<?xml version="1.0" encoding="UTF-8"?>
<svg id="Calque_1" data-name="Calque 1" xmlns="http://www.w3.org/2000/svg" xmlns:xlink="http://www.w3.org/1999/xlink" viewBox="0 0 768 1336.73">
  <defs>
    <style>
      .cls-1 {
        clip-path: url(#clippath);
      }

      .cls-2, .cls-3, .cls-4 {
        fill: none;
      }

      .cls-2, .cls-3, .cls-5, .cls-6 {
        stroke-width: 0px;
      }

      .cls-7 {
        fill: #72383d;
        stroke-width: 2px;
      }

      .cls-7, .cls-4 {
        stroke: #72383d;
        stroke-miterlimit: 10;
      }

      .cls-8 {
        clip-path: url(#clippath-1);
      }

      .cls-9 {
        clip-path: url(#clippath-3);
      }

      .cls-10 {
        clip-path: url(#clippath-2);
      }

      .cls-3, .cls-11 {
        opacity: .35;
      }

      .cls-6 {
        fill: #fff;
      }
    </style>
    <clipPath id="clippath">
      <rect class="cls-2" x="239.63" y="444.58" width="311.05" height="213.57"/>
    </clipPath>
    <clipPath id="clippath-1">
      <rect class="cls-2" x="259" y="1132.62" width="250" height="79.5"/>
    </clipPath>
    <clipPath id="clippath-2">
      <rect class="cls-3" x="239.63" y="112.47" width="311.55" height="211.19"/>
    </clipPath>
    <clipPath id="clippath-3">
      <rect class="cls-2" x="246.86" y="814.14" width="297.08" height="198.2"/>
    </clipPath>
  </defs>
  <rect class="cls-6" y="-2" width="768" height="1338.73"/>
  <g class="cls-11">
    <g class="cls-1">
      <image width="700" height="467" transform="translate(239.63 444.58) scale(.44 .46)" xlink:href="../ressources/food_5_dark.jpg"/>
    </g>
  </g>
  <g>
    <path class="cls-7" d="m573.56,1225.74H194.44c.08-25.04-14.01-9.03-14.01-20.16v-66.42c0-11.14,13.68,1.94,14.01-20.16h379.12c.29,17.36,14.01,9.03,14.01,20.16v66.42c0,11.14-13.73-1.02-14.01,20.16Z"/>
    <g class="cls-8">
      <image width="500" height="159" transform="translate(259 1132.62) scale(.5)" xlink:href="../ressources/signature.png"/>
    </g>
  </g>
  <g class="cls-11">
    <g class="cls-10">
      <image width="1920" height="1280" transform="translate(239.63 112.47) scale(.16)" xlink:href="../ressources/cover_dark.jpg"/>
    </g>
  </g>
  <g class="cls-11">
    <g class="cls-9">
      <image width="700" height="467" transform="translate(246.86 814.14) scale(.42)" xlink:href="../ressources/food_1_dark.jpg"/>
    </g>
  </g>
  <g>
    <line class="cls-4" x1="723.72" y1="1296.45" x2="723.72" y2="53.49"/>
    <line class="cls-4" x1="724.71" y1="1296.45" x2="724.71" y2="53.49"/>
    <line class="cls-4" x1="725.67" y1="1296.45" x2="725.67" y2="53.49"/>
    <line class="cls-4" x1="726.62" y1="1296.34" x2="726.62" y2="53.38"/>
    <line class="cls-4" x1="727.61" y1="1296.34" x2="727.61" y2="53.38"/>
    <line class="cls-4" x1="728.57" y1="1296.34" x2="728.57" y2="53.38"/>
  </g>
  <polyline class="cls-4" points="42.11 53.38 39.11 1296.34 38.14 1296.34 41.14 53.38 40.16 53.38 37.16 1296.34 36.21 1296.45 39.21 53.49 38.24 53.49 35.24 1296.45 34.26 1296.45 37.26 53.49"/>
  <g>
    <path class="cls-5" d="m268.47,217.12l-1.91,1.83c-.18-.61-.27-1.21-.27-1.79,0-2.15.89-3.89,2.68-5.21,1.34-.99,3.18-1.49,5.52-1.49h7c2.9,0,4.35-.89,4.35-2.68,0-.62-.21-1.2-.64-1.73l1.48-1.41c.34.47.52,1.07.52,1.8,0,1.54-.69,2.83-2.08,3.87-1.39,1.04-3.1,1.56-5.14,1.56h-3.26l-.88,7.92-.14,1.3c-.13,1.11-.37,1.91-.72,2.4s-1.02.97-2.01,1.44l3.41.18-1.4,1.36-5.72-.26,1.51-1.45,1.28.14c.95-.6,1.53-1.83,1.76-3.69l.12-1.14.91-8.2h-1.99c-3.27,0-4.91,1.08-4.91,3.25,0,.66.18,1.32.55,2Z"/>
    <path class="cls-5" d="m290.21,221.57c-.88,1.45-1.85,2.64-2.91,3.57-1.06.93-1.98,1.39-2.76,1.39-1.07,0-1.6-.86-1.6-2.59,0-2.38.78-4.43,2.34-6.17s3.4-2.61,5.54-2.61c.81,0,1.5.1,2.07.3-.04.14-.06.23-.07.26l-.14.62c-.09.43-.14.68-.15.75l-.75,5.17-.11.75c-.1.74-.15,1.24-.15,1.49,0,.33.1.5.29.5.65,0,1.32-.73,2.01-2.19.21.12.32.25.32.38,0,.27-.34.82-1.01,1.65-.91,1.12-1.76,1.69-2.54,1.69-.57,0-.86-.38-.86-1.15,0-.23.03-.56.08-.97l.12-.94.15-1.03.13-.87Zm.67-4.64c-.71-.4-1.43-.6-2.16-.6-1.09,0-2.01.67-2.76,2-.74,1.33-1.11,2.99-1.11,4.96,0,1.01.3,1.52.9,1.52.7,0,1.54-.53,2.52-1.59,1.33-1.43,2.13-3.1,2.42-5.03l.19-1.26Z"/>
    <path class="cls-5" d="m299.08,219.94c1.73-3.29,3.44-4.93,5.12-4.93.44,0,.88.1,1.31.3l-1.65,1.8c-.25-.14-.57-.21-.96-.21-.81,0-1.67.66-2.57,1.97-.9,1.32-1.43,2.69-1.59,4.11l-.32,2.86-1.74.59.04-.35.08-.76.09-.76.61-5.58.07-.61c.05-.46.08-.84.08-1.12,0-.48-.13-.71-.4-.71-.63,0-1.25.67-1.87,2-.2-.15-.29-.3-.28-.46.02-.48.46-1.11,1.31-1.89s1.52-1.18,2.01-1.18c.67,0,1,.44,1,1.31,0,.21-.02.5-.06.86l-.08.82-.11.98-.11.96Z"/>
    <path class="cls-5" d="m308.92,216.67l-.57,5.18c-.1.93-.15,1.62-.15,2.06,0,.88.3,1.32.9,1.32.65,0,1.32-.53,2.01-1.59.12.15.18.28.18.4,0,.44-.38.96-1.15,1.57s-1.43.91-1.99.91c-1.11,0-1.66-.71-1.66-2.13,0-.52.07-1.37.2-2.54l.56-5.18h-2.46l1.36-1.36h1.25l.25-2.13,1.73-.57-.28,2.71h4.97l-1.37,1.36h-3.76Z"/>
    <path class="cls-5" d="m320.69,222.49c.2.13.29.29.29.47,0,.24-.25.66-.75,1.24-1.34,1.55-2.66,2.32-3.96,2.32-.8,0-1.45-.32-1.97-.95s-.77-1.44-.77-2.43c0-1.78.67-3.58,2.02-5.41s2.68-2.74,4-2.74c.95,0,1.43.51,1.43,1.54,0,1.15-.56,2.27-1.67,3.36s-2.47,1.86-4.07,2.29c.16,1.88.9,2.81,2.23,2.81s2.39-.84,3.22-2.51Zm-5.4-1.73c.23.08.43.12.62.12.97,0,1.82-.3,2.54-.89s1.09-1.29,1.09-2.09c0-.91-.46-1.37-1.39-1.37-.67,0-1.28.4-1.82,1.2s-.89,1.81-1.04,3.03Z"/>
    <path class="cls-5" d="m336.43,221.57c-.88,1.45-1.85,2.64-2.91,3.57-1.06.93-1.98,1.39-2.76,1.39-1.07,0-1.6-.86-1.6-2.59,0-2.38.78-4.43,2.34-6.17s3.4-2.61,5.54-2.61c.81,0,1.5.1,2.07.3-.04.14-.06.23-.07.26l-.14.62c-.09.43-.14.68-.15.75l-.75,5.17-.11.75c-.1.74-.15,1.24-.15,1.49,0,.33.1.5.29.5.65,0,1.32-.73,2.01-2.19.21.12.32.25.32.38,0,.27-.34.82-1.01,1.65-.91,1.12-1.76,1.69-2.54,1.69-.57,0-.86-.38-.86-1.15,0-.23.03-.56.08-.97l.12-.94.15-1.03.13-.87Zm.67-4.64c-.71-.4-1.43-.6-2.16-.6-1.09,0-2.01.67-2.76,2-.74,1.33-1.11,2.99-1.11,4.96,0,1.01.3,1.52.9,1.52.7,0,1.54-.53,2.52-1.59,1.33-1.43,2.13-3.1,2.42-5.03l.19-1.26Zm-.86-3.43c-.96-.62-1.75-1.72-2.37-3.3l.95-.95c.7,1.52,1.52,2.57,2.44,3.18l-1.02,1.08Z"/>
    <path class="cls-5" d="m353.12,222.77c.23.11.34.25.34.42,0,.56-.42,1.26-1.26,2.09s-1.54,1.24-2.12,1.24c-.65,0-.97-.47-.97-1.41,0-.57.04-1.15.11-1.75l.13-1.04.9-8.16c.28-2.48,1.13-4.56,2.56-6.22,1.42-1.66,3.07-2.5,4.93-2.5.45,0,.84.04,1.15.12l-1.66,1.7c-.37-.12-.8-.19-1.29-.19-1.17,0-2.05.41-2.63,1.24-.58.82-.98,2.22-1.2,4.19l-1.09,9.81c-.09.76-.13,1.3-.13,1.63,0,.7.12,1.05.36,1.05.29,0,.63-.23,1.01-.69.39-.46.67-.97.85-1.53Z"/>
    <path class="cls-5" d="m362.04,221.57c-.88,1.45-1.85,2.64-2.91,3.57-1.06.93-1.98,1.39-2.76,1.39-1.07,0-1.6-.86-1.6-2.59,0-2.38.78-4.43,2.34-6.17s3.4-2.61,5.54-2.61c.81,0,1.5.1,2.07.3-.04.14-.06.23-.07.26l-.14.62c-.09.43-.14.68-.15.75l-.75,5.17-.11.75c-.1.74-.15,1.24-.15,1.49,0,.33.1.5.29.5.65,0,1.32-.73,2.01-2.19.21.12.32.25.32.38,0,.27-.34.82-1.01,1.65-.91,1.12-1.76,1.69-2.54,1.69-.57,0-.86-.38-.86-1.15,0-.23.03-.56.08-.97l.12-.94.15-1.03.13-.87Zm.67-4.64c-.71-.4-1.43-.6-2.16-.6-1.09,0-2.01.67-2.76,2-.74,1.33-1.11,2.99-1.11,4.96,0,1.01.3,1.52.9,1.52.7,0,1.54-.53,2.52-1.59,1.33-1.43,2.13-3.1,2.42-5.03l.19-1.26Z"/>
    <path class="cls-5" d="m376.35,226.37l-.1.92c-.24,2.42-1.12,4.48-2.62,6.2-1.51,1.71-3.2,2.57-5.08,2.57-.39,0-.76-.05-1.12-.14l1.7-1.69c.44.13.87.2,1.26.2,2.33,0,3.67-1.81,4.03-5.43l1.22-12.15c-.37.27-.76.59-1.18.95-.51.44-.97.78-1.36,1.03l.09-.94c1.32-.78,2.76-1.9,4.34-3.35l-.54,5.43c.83-1.45,1.76-2.65,2.79-3.58s1.94-1.4,2.72-1.4c1.13,0,1.69.96,1.69,2.89,0,2.29-.74,4.28-2.21,5.97-1.48,1.68-3.22,2.53-5.22,2.53h-.4Zm.16-1.76c.63.4,1.35.6,2.15.6,1.07,0,1.94-.62,2.61-1.87.67-1.25,1-2.87,1-4.86,0-1.16-.32-1.74-.95-1.74-.7,0-1.52.53-2.48,1.59-1.28,1.41-2.01,3.09-2.21,5.02l-.13,1.26Z"/>
    <path class="cls-5" d="m388.28,226.52c-1.76,0-2.64-1.16-2.64-3.49,0-1.88.69-3.68,2.06-5.42s2.8-2.61,4.28-2.61c1.78,0,2.67,1.16,2.67,3.49,0,1.88-.69,3.69-2.06,5.43s-2.81,2.6-4.31,2.6Zm1.42-1.31c.9,0,1.65-.5,2.26-1.5s.91-2.25.91-3.74c0-2.44-.76-3.66-2.27-3.66-.89,0-1.64.5-2.24,1.51s-.91,2.25-.91,3.73c0,2.44.75,3.66,2.26,3.66Z"/>
    <path class="cls-5" d="m401.66,222.81c.21.12.32.25.32.36,0,.28-.34.84-1.02,1.66-.91,1.12-1.76,1.69-2.54,1.69-.57,0-.86-.38-.86-1.13,0-.32.12-1.3.35-2.95l.46-3.18.12-.81.09-.64c.04-.27.06-.5.06-.69,0-.39-.11-.58-.33-.58-.61,0-1.26.67-1.96,2-.15-.13-.22-.27-.22-.4,0-.48.44-1.12,1.32-1.92s1.58-1.21,2.1-1.21c.59,0,.88.41.88,1.22,0,.16-.03.48-.09.96l-.11.78c0,.06-.05.38-.13.95l-.48,3.35-.12.75c-.1.74-.15,1.24-.15,1.49,0,.33.1.5.29.5.65,0,1.33-.73,2.02-2.19Zm-2.34-9.32l.98-2.43c.88-.36,1.59-.86,2.16-1.49.08.11.12.22.12.34,0,1.05-1.09,2.24-3.26,3.57Z"/>
    <path class="cls-5" d="m406.91,219.94c1.73-3.29,3.44-4.93,5.12-4.93.44,0,.88.1,1.31.3l-1.65,1.8c-.25-.14-.57-.21-.96-.21-.81,0-1.67.66-2.57,1.97-.9,1.32-1.43,2.69-1.59,4.11l-.32,2.86-1.74.59.04-.35.08-.76.09-.76.61-5.58.07-.61c.05-.46.08-.84.08-1.12,0-.48-.13-.71-.4-.71-.63,0-1.25.67-1.87,2-.2-.15-.29-.3-.28-.46.02-.48.46-1.11,1.31-1.89s1.52-1.18,2.01-1.18c.67,0,1,.44,1,1.31,0,.21-.02.5-.06.86l-.08.82-.11.98-.11.96Z"/>
    <path class="cls-5" d="m419.84,222.49c.2.13.29.29.29.47,0,.24-.25.66-.75,1.24-1.34,1.55-2.66,2.32-3.96,2.32-.8,0-1.45-.32-1.97-.95s-.77-1.44-.77-2.43c0-1.78.67-3.58,2.02-5.41s2.68-2.74,4-2.74c.95,0,1.43.51,1.43,1.54,0,1.15-.56,2.27-1.67,3.36s-2.47,1.86-4.07,2.29c.16,1.88.9,2.81,2.23,2.81s2.39-.84,3.22-2.51Zm-5.4-1.73c.23.08.43.12.62.12.97,0,1.82-.3,2.54-.89s1.09-1.29,1.09-2.09c0-.91-.46-1.37-1.39-1.37-.67,0-1.28.4-1.82,1.2s-.89,1.81-1.04,3.03Z"/>
    <path class="cls-5" d="m421.37,230.46l-.29-.33c1.2-.87,1.79-1.82,1.79-2.85,0-.86-.47-1.6-1.42-2.21l1.65-1.64c.95.71,1.43,1.55,1.43,2.53,0,1.39-1.05,2.89-3.16,4.5Z"/>
    <path class="cls-5" d="m442.42,225.81l-1.74.71.04-.33.09-.87.08-.82.59-5.26.08-.6c.03-.31.05-.62.05-.91,0-.76-.23-1.14-.69-1.14-.72,0-1.56.73-2.52,2.2-.96,1.47-1.51,2.87-1.66,4.2l-.3,2.81-1.75.71.04-.33.09-.87.09-.82.6-5.44.07-.62c.05-.48.08-.88.08-1.17,0-.5-.12-.75-.38-.75-.59,0-1.22.66-1.9,1.99-.18-.15-.27-.28-.27-.39,0-.47.43-1.11,1.28-1.92s1.54-1.21,2.04-1.21c.67,0,1.01.43,1.01,1.29,0,.22-.02.51-.06.88l-.09.95-.1.8-.1.83.33-.52c1.75-2.82,3.38-4.23,4.89-4.23.73,0,1.09.52,1.09,1.57,0,.18-.03.56-.09,1.14l-.12,1.08-.16,1.46c.73-1.51,1.59-2.76,2.58-3.76,1-1,1.88-1.49,2.67-1.49s1.16.5,1.16,1.5c0,.43-.04.94-.13,1.54l-.62,4.35c-.14.9-.21,1.59-.21,2.09,0,.41.11.62.34.62.27,0,.6-.22,1.01-.67.4-.45.73-.95.97-1.51.21.14.32.27.32.39,0,.49-.44,1.15-1.31,1.98-.87.83-1.57,1.24-2.09,1.24-.67,0-1-.45-1-1.34,0-.56.08-1.43.26-2.61l.42-2.82c.02-.1.04-.32.08-.67.02-.14.04-.38.08-.71s.06-.59.06-.77c0-.66-.22-1-.65-1-.73,0-1.58.73-2.55,2.2s-1.53,2.87-1.68,4.2l-.31,2.81Z"/>
    <path class="cls-5" d="m459.32,222.49c.2.13.29.29.29.47,0,.24-.25.66-.75,1.24-1.34,1.55-2.66,2.32-3.96,2.32-.8,0-1.45-.32-1.97-.95s-.77-1.44-.77-2.43c0-1.78.67-3.58,2.02-5.41s2.68-2.74,4-2.74c.95,0,1.43.51,1.43,1.54,0,1.15-.56,2.27-1.67,3.36s-2.47,1.86-4.07,2.29c.16,1.88.9,2.81,2.23,2.81s2.39-.84,3.22-2.51Zm-5.4-1.73c.23.08.43.12.62.12.97,0,1.82-.3,2.54-.89s1.09-1.29,1.09-2.09c0-.91-.46-1.37-1.39-1.37-.67,0-1.28.4-1.82,1.2s-.89,1.81-1.04,3.03Z"/>
    <path class="cls-5" d="m464.95,219.94c1.73-3.29,3.44-4.93,5.12-4.93.44,0,.88.1,1.31.3l-1.65,1.8c-.25-.14-.57-.21-.96-.21-.81,0-1.67.66-2.57,1.97-.9,1.32-1.43,2.69-1.59,4.11l-.32,2.86-1.74.59.04-.35.08-.76.09-.76.61-5.58.07-.61c.05-.46.08-.84.08-1.12,0-.48-.13-.71-.4-.71-.63,0-1.25.67-1.87,2-.2-.15-.29-.3-.28-.46.02-.48.46-1.11,1.31-1.89s1.52-1.18,2.01-1.18c.67,0,1,.44,1,1.31,0,.21-.02.5-.06.86l-.08.82-.11.98-.11.96Z"/>
    <path class="cls-5" d="m477.89,222.49c.2.13.29.29.29.47,0,.24-.25.66-.75,1.24-1.34,1.55-2.66,2.32-3.96,2.32-.8,0-1.45-.32-1.97-.95s-.77-1.44-.77-2.43c0-1.78.67-3.58,2.02-5.41s2.68-2.74,4-2.74c.95,0,1.43.51,1.43,1.54,0,1.15-.56,2.27-1.67,3.36s-2.47,1.86-4.07,2.29c.16,1.88.9,2.81,2.23,2.81s2.39-.84,3.22-2.51Zm-5.4-1.73c.23.08.43.12.62.12.97,0,1.82-.3,2.54-.89s1.09-1.29,1.09-2.09c0-.91-.46-1.37-1.39-1.37-.67,0-1.28.4-1.82,1.2s-.89,1.81-1.04,3.03Z"/>
    <path class="cls-5" d="m485.36,222.81c.21.12.32.25.32.36,0,.28-.34.84-1.02,1.66-.91,1.12-1.76,1.69-2.54,1.69-.57,0-.86-.38-.86-1.13,0-.32.12-1.3.35-2.95l.46-3.18.12-.81.09-.64c.04-.27.06-.5.06-.69,0-.39-.11-.58-.33-.58-.61,0-1.26.67-1.96,2-.15-.13-.22-.27-.22-.4,0-.48.44-1.12,1.32-1.92s1.58-1.21,2.1-1.21c.59,0,.88.41.88,1.22,0,.16-.03.48-.09.96l-.11.78c0,.06-.05.38-.13.95l-.48,3.35-.12.75c-.1.74-.15,1.24-.15,1.49,0,.33.1.5.29.5.65,0,1.33-.73,2.02-2.19Zm-2.34-9.32l.98-2.43c.88-.36,1.59-.86,2.16-1.49.08.11.12.22.12.34,0,1.05-1.09,2.24-3.26,3.57Z"/>
    <path class="cls-5" d="m489.95,225.81l-1.75.71.04-.33.09-.87.09-.82.61-5.44.07-.62c.05-.48.07-.88.07-1.17,0-.5-.13-.75-.38-.75-.59,0-1.22.66-1.89,1.99-.18-.15-.27-.28-.27-.39,0-.47.43-1.11,1.28-1.92s1.53-1.21,2.02-1.21c.67,0,1.01.43,1.01,1.29,0,.22-.02.51-.06.88l-.09.95-.1.8-.1.83c.92-1.38,1.93-2.51,3.03-3.4s2.03-1.34,2.81-1.34,1.14.53,1.14,1.58c0,.32-.04.8-.12,1.44l-.64,4.37c-.13.88-.19,1.57-.19,2.07,0,.41.11.61.33.61.54,0,1.21-.71,2-2.14.19.12.28.24.28.36,0,.51-.44,1.17-1.31,2s-1.58,1.24-2.13,1.24c-.61,0-.91-.44-.91-1.31,0-.64.08-1.53.25-2.66l.41-2.84c.13-.92.2-1.65.2-2.19,0-.62-.21-.93-.64-.93-1,0-2.01.68-3.04,2.03s-1.62,2.81-1.8,4.37l-.31,2.81Z"/>
    <path class="cls-5" d="m510.07,215.46c-.04.14-.06.23-.07.26l-.13.62c-.1.45-.16.7-.16.75l-.47,4.29c-.08.72-.16,1.98-.25,3.79-.11,2.26-.32,3.93-.64,5.02s-.89,2.05-1.7,2.91c-1.86,1.96-3.84,2.94-5.94,2.94-1.02,0-1.86-.34-2.53-1.03-.67-.69-1.01-1.55-1.01-2.58,0-2.1,1.29-4.17,3.86-6.22-.55-.43-.82-1.19-.82-2.28,0-2.36.78-4.42,2.33-6.16s3.39-2.62,5.51-2.62c.9,0,1.57.1,2.03.3Zm-2.54,6.16c-2.11,3.22-4.02,4.83-5.73,4.83-.07,0-.2,0-.38-.02-1.82,1.83-2.73,3.45-2.73,4.88,0,.98.35,1.79,1.04,2.45s1.55.99,2.58.99c1.58,0,2.79-.7,3.64-2.08.64-1.07,1.09-3.62,1.34-7.65.09-1.52.17-2.65.24-3.4Zm.52-4.69c-.56-.4-1.27-.6-2.12-.6-1.07,0-1.98.67-2.71,2.02-.74,1.34-1.11,3-1.11,4.96,0,1.02.3,1.52.9,1.52.69,0,1.53-.53,2.52-1.59,1.38-1.48,2.17-3.15,2.37-5.02l.15-1.29Z"/>
    <path class="cls-5" d="m520.01,221.61c-.89,1.37-1.9,2.53-3.01,3.48s-2.03,1.43-2.73,1.43c-.77,0-1.16-.51-1.16-1.54,0-.38.05-1.01.15-1.88l.42-3.84c0-.05.03-.28.06-.68l.07-.76c.02-.23.04-.43.04-.61,0-.45-.13-.68-.39-.68-.59,0-1.23.66-1.92,1.99-.15-.12-.22-.24-.22-.38,0-.48.43-1.13,1.29-1.93.86-.8,1.55-1.21,2.06-1.21.65,0,.97.45.97,1.34,0,.21-.02.46-.05.74l-.11.9-.1.98-.37,3.35c-.06.57-.09,1.15-.09,1.73,0,.54.2.81.6.81.88,0,1.88-.73,2.98-2.18s1.77-2.89,1.97-4.31l.41-2.78,1.9-.64c-.22.91-.38,1.71-.49,2.42l-.71,4.89c-.04.3-.07.55-.09.75l-.08.64c-.05.4-.07.68-.07.84,0,.33.09.5.28.5.66,0,1.34-.73,2.03-2.19.21.12.32.25.32.38,0,.27-.34.82-1.02,1.65-.92,1.12-1.76,1.69-2.54,1.69-.57,0-.86-.38-.86-1.15,0-.24.03-.57.08-.97l.13-.94c.07-.51.12-.85.14-1.03l.12-.82Z"/>
    <path class="cls-5" d="m532.1,222.49c.2.13.29.29.29.47,0,.24-.25.66-.75,1.24-1.34,1.55-2.66,2.32-3.96,2.32-.8,0-1.45-.32-1.97-.95s-.77-1.44-.77-2.43c0-1.78.67-3.58,2.02-5.41s2.68-2.74,4-2.74c.95,0,1.43.51,1.43,1.54,0,1.15-.56,2.27-1.67,3.36s-2.47,1.86-4.07,2.29c.16,1.88.9,2.81,2.23,2.81s2.39-.84,3.22-2.51Zm-5.4-1.73c.23.08.43.12.62.12.97,0,1.82-.3,2.54-.89s1.09-1.29,1.09-2.09c0-.91-.46-1.37-1.39-1.37-.67,0-1.28.4-1.82,1.2s-.89,1.81-1.04,3.03Zm2.55-7.27l1.32-2.43c1.31-.55,2.32-1.16,3.04-1.82.16.25.23.46.23.62,0,.8-1.53,2.01-4.59,3.62Z"/>
  </g>
  <g>
    <path class="cls-5" d="m663.14,215.26l-.16-.28c-.9-1.48-1.35-2.83-1.35-4.07,0-1.36.32-2.58.96-3.65.64-1.07,1.37-1.61,2.19-1.61.64,0,1.17.36,1.57,1.08s.61,1.63.61,2.74c0,1.63-.62,3.32-1.86,5.07l-.31.44.18.28c1.23,1.89,1.85,3.51,1.85,4.85,0,1.59-.39,3.07-1.18,4.45s-1.63,2.07-2.53,2.07c-.73,0-1.34-.46-1.85-1.38s-.76-2.04-.76-3.38c0-2.4.88-4.6,2.63-6.61Zm.22.37c-1.16,1.68-1.74,3.31-1.74,4.88,0,1.21.25,2.26.75,3.15.5.89,1.08,1.34,1.75,1.34.48,0,.9-.32,1.25-.97.35-.65.53-1.42.53-2.3,0-1.33-.75-3.21-2.25-5.64l-.29-.45Zm1.19-1.12c.88-.95,1.32-2.34,1.32-4.19,0-1.05-.18-1.91-.53-2.58-.35-.67-.81-1-1.37-1-.45,0-.82.25-1.11.75s-.43,1.14-.43,1.92c0,1.2.59,2.72,1.77,4.56l.34.53Z"/>
    <path class="cls-5" d="m677.29,215.07h-8.84l.37-1.71h8.83l-.36,1.71Zm-.73,3.43h-8.11l.37-1.72h8.11l-.37,1.72Zm1.7,5.4c-.89,1.55-2,2.32-3.32,2.32-1.45,0-2.66-.99-3.64-2.96s-1.47-4.42-1.47-7.33.49-5.35,1.47-7.33,2.2-2.96,3.64-2.96,2.68,1.02,3.69,3.06l-.37,1.73c-.95-2.05-2.05-3.07-3.32-3.07-1.19,0-2.2.83-3.02,2.5-.83,1.66-1.24,3.69-1.24,6.08s.41,4.42,1.24,6.08c.83,1.66,1.83,2.49,3.02,2.49,1.29,0,2.4-1.04,3.32-3.13v2.53Z"/>
  </g>
  <g>
    <path class="cls-5" d="m373.01,567.19c.13.13.2.32.2.56,0,.77-.35,1.79-1.06,3.06-1.19,2.14-2.55,3.22-4.07,3.22-1.23,0-2.21-.89-2.94-2.68s-1.1-4.19-1.1-7.2c0-4.3.68-7.9,2.05-10.81,1.37-2.91,3.07-4.36,5.09-4.36,1.03,0,2.1.39,3.21,1.18l-.58,2.58-.17.76c-.14.6-.31.9-.52.9-.04,0-.1-.02-.18-.05.08-.36.12-.66.12-.89,0-.78-.26-1.46-.78-2.05-.52-.58-1.13-.88-1.82-.88-1.42,0-2.58,1.13-3.47,3.39-.89,2.26-1.33,5.2-1.33,8.82,0,2.8.31,5.03.94,6.69.62,1.66,1.46,2.49,2.5,2.49.75,0,1.5-.45,2.25-1.36s1.3-2.03,1.66-3.37Z"/>
    <path class="cls-5" d="m377.71,563.9c1.29-4.93,2.56-7.4,3.82-7.4.33,0,.65.15.98.46l-1.23,2.71c-.19-.21-.42-.32-.72-.32-.61,0-1.24.99-1.92,2.96-.67,1.97-1.07,4.03-1.18,6.16l-.24,4.29-1.3.88.03-.53.06-1.14.07-1.14.46-8.37.05-.91c.04-.69.06-1.25.06-1.69,0-.71-.1-1.07-.3-1.07-.47,0-.93,1-1.39,3.01-.15-.22-.22-.45-.21-.69.02-.71.34-1.66.98-2.84.63-1.18,1.13-1.77,1.5-1.77.5,0,.74.66.74,1.97,0,.32-.01.74-.04,1.28l-.06,1.23-.08,1.48-.08,1.44Z"/>
    <path class="cls-5" d="m387.35,567.74c.15.2.22.43.22.7,0,.36-.19.98-.56,1.86-1,2.32-1.98,3.48-2.95,3.48-.59,0-1.08-.47-1.47-1.42s-.58-2.16-.58-3.64c0-2.67.5-5.38,1.51-8.11s2-4.1,2.98-4.1c.71,0,1.07.77,1.07,2.3,0,1.72-.42,3.4-1.25,5.04s-1.84,2.78-3.04,3.43c.12,2.81.67,4.22,1.66,4.22s1.78-1.25,2.4-3.76Zm-4.03-2.6c.17.12.32.18.46.18.72,0,1.35-.45,1.9-1.34s.81-1.93.81-3.13c0-1.37-.35-2.06-1.04-2.06-.5,0-.95.6-1.36,1.8-.4,1.2-.66,2.72-.77,4.54Z"/>
    <path class="cls-5" d="m392.64,569.88c1.63-4.57,2.44-7.75,2.44-9.55,0-.67-.17-1.2-.51-1.58l1.09-2.25c.42.43.64,1.12.64,2.07,0,1.17-.56,3.45-1.67,6.84-.24.73-.42,1.25-.52,1.58l-.22.76-.4,1.28c-.22.7-.45,1.49-.7,2.37l-1.21,2.37c-.22-3.78-.58-7.2-1.08-10.28-.5-3.07-.95-4.61-1.35-4.61-.44,0-.75.89-.93,2.67-.17-.12-.25-.31-.25-.58,0-.89.19-1.85.57-2.88s.74-1.56,1.08-1.6c1.26-.12,2.27,4.34,3.01,13.38Z"/>
    <path class="cls-5" d="m402.06,567.74c.15.2.22.43.22.7,0,.36-.19.98-.56,1.86-1,2.32-1.98,3.48-2.95,3.48-.59,0-1.08-.47-1.47-1.42s-.58-2.16-.58-3.64c0-2.67.5-5.38,1.51-8.11s2-4.1,2.98-4.1c.71,0,1.07.77,1.07,2.3,0,1.72-.42,3.4-1.25,5.04s-1.84,2.78-3.04,3.43c.12,2.81.67,4.22,1.66,4.22s1.78-1.25,2.4-3.76Zm-4.03-2.6c.17.12.32.18.46.18.72,0,1.35-.45,1.9-1.34s.81-1.93.81-3.13c0-1.37-.35-2.06-1.04-2.06-.5,0-.95.6-1.36,1.8-.4,1.2-.66,2.72-.77,4.54Z"/>
    <path class="cls-5" d="m406.14,559l-.42,7.77c-.08,1.39-.11,2.43-.11,3.09,0,1.32.22,1.99.67,1.99.48,0,.98-.8,1.5-2.39.09.22.13.42.13.6,0,.66-.29,1.44-.86,2.36-.57.91-1.07,1.37-1.48,1.37-.83,0-1.24-1.07-1.24-3.2,0-.79.05-2.06.15-3.81l.42-7.77h-1.83l1.02-2.04h.93l.18-3.2,1.29-.86-.21,4.06h3.7l-1.02,2.04h-2.8Z"/>
    <path class="cls-5" d="m412.47,559l-.42,7.77c-.08,1.39-.11,2.43-.11,3.09,0,1.32.22,1.99.67,1.99.48,0,.98-.8,1.5-2.39.09.22.13.42.13.6,0,.66-.29,1.44-.86,2.36-.57.91-1.07,1.37-1.48,1.37-.83,0-1.24-1.07-1.24-3.2,0-.79.05-2.06.15-3.81l.42-7.77h-1.83l1.02-2.04h.93l.18-3.2,1.29-.86-.21,4.06h3.7l-1.02,2.04h-2.8Z"/>
    <path class="cls-5" d="m421.25,567.74c.15.2.22.43.22.7,0,.36-.19.98-.56,1.86-1,2.32-1.98,3.48-2.95,3.48-.59,0-1.08-.47-1.47-1.42s-.58-2.16-.58-3.64c0-2.67.5-5.38,1.51-8.11s2-4.1,2.98-4.1c.71,0,1.07.77,1.07,2.3,0,1.72-.42,3.4-1.25,5.04s-1.84,2.78-3.04,3.43c.12,2.81.67,4.22,1.66,4.22s1.78-1.25,2.4-3.76Zm-4.03-2.6c.17.12.32.18.46.18.72,0,1.35-.45,1.9-1.34s.81-1.93.81-3.13c0-1.37-.35-2.06-1.04-2.06-.5,0-.95.6-1.36,1.8-.4,1.2-.66,2.72-.77,4.54Z"/>
    <path class="cls-5" d="m422.04,572.83l1.21-1.99c.46.97,1.03,1.46,1.72,1.46.84,0,1.26-.81,1.26-2.44,0-.9-.39-2.16-1.16-3.78l-.5-1.04c-.73-1.54-1.1-2.78-1.1-3.73,0-1.36.29-2.5.88-3.43.59-.93,1.31-1.39,2.16-1.39.47,0,.98.18,1.53.53l-1.05,1.95c-.44-.67-.93-1-1.48-1-.64,0-.95.53-.95,1.6,0,.76.35,1.88,1.06,3.36l.54,1.16c.8,1.69,1.21,3.05,1.21,4.08,0,1.48-.35,2.78-1.06,3.91-.71,1.13-1.52,1.7-2.44,1.7-.65,0-1.26-.32-1.83-.95Z"/>
  </g>
  <g>
    <path class="cls-5" d="m307.85,921.67l2.3.26-1.04,2.04-4.03-.39,1.13-2.18.94.21c.71-.9,1.15-2.75,1.31-5.54l.1-1.71.73-13.32c-2.64,1.01-3.97,3.02-3.97,6.03,0,1.21.13,2.28.38,3.22l-1.41,2.5c-.12-.9-.18-1.82-.18-2.74,0-3.19.67-5.79,2.02-7.8,1.35-2.01,3.09-3.01,5.23-3.01,2.87,0,4.3,1.89,4.3,5.66,0,2.39-.53,4.44-1.6,6.13s-2.42,2.65-4.06,2.85c-.14,2.73-.32,4.51-.55,5.34-.23.83-.76,1.65-1.59,2.44Zm2.86-20.83l-.63,11.21c.33.12.61.18.86.18,2.24,0,3.36-1.96,3.36-5.89,0-3.67-1.2-5.5-3.59-5.5Z"/>
    <path class="cls-5" d="m320.19,918.47c.16.19.23.37.23.54,0,.42-.25,1.25-.76,2.5-.68,1.69-1.31,2.53-1.9,2.53-.43,0-.64-.57-.64-1.7,0-.48.09-1.96.26-4.42l.34-4.78.09-1.21.07-.97c.03-.41.04-.75.04-1.04,0-.58-.08-.88-.24-.88-.45,0-.94,1-1.46,3.01-.11-.2-.17-.4-.17-.6,0-.71.33-1.68.98-2.88s1.18-1.81,1.57-1.81c.44,0,.66.61.66,1.83,0,.23-.02.71-.07,1.44l-.08,1.18c0,.09-.04.57-.1,1.42l-.36,5.02-.09,1.12c-.08,1.11-.11,1.86-.11,2.23,0,.5.07.75.22.75.49,0,.99-1.1,1.5-3.29Zm-1.75-13.97l.73-3.64c.65-.54,1.19-1.28,1.61-2.23.06.16.09.33.09.51,0,1.57-.81,3.36-2.43,5.36Z"/>
    <path class="cls-5" d="m326.56,917.99c.15.2.22.43.22.7,0,.36-.19.98-.56,1.86-1,2.32-1.98,3.48-2.95,3.48-.59,0-1.08-.47-1.47-1.42-.38-.95-.58-2.16-.58-3.64,0-2.67.5-5.38,1.51-8.11,1-2.74,2-4.1,2.98-4.1.71,0,1.07.77,1.07,2.3,0,1.72-.42,3.4-1.25,5.04-.83,1.64-1.84,2.78-3.04,3.43.12,2.81.67,4.22,1.66,4.22s1.78-1.25,2.4-3.76Zm-4.03-2.6c.17.12.32.18.46.18.72,0,1.35-.45,1.9-1.34s.81-1.93.81-3.13c0-1.37-.35-2.06-1.04-2.06-.5,0-.95.6-1.36,1.8s-.66,2.72-.77,4.54Zm3.2-10.9c-.72-.93-1.3-2.58-1.76-4.96l.71-1.42c.52,2.27,1.13,3.86,1.82,4.76l-.76,1.62Z"/>
    <path class="cls-5" d="m333.98,907.22l-1,2.41c-.47-.39-.91-.58-1.34-.58-.76,0-1.37.65-1.8,1.95s-.66,3.08-.66,5.34c0,1.59.16,2.88.48,3.85s.73,1.46,1.25,1.46c.87,0,1.55-1.14,2.04-3.43.13.28.19.54.19.79,0,.97-.38,2.05-1.13,3.24-.75,1.19-1.45,1.78-2.08,1.78s-1.1-.49-1.49-1.47c-.39-.98-.58-2.25-.58-3.81,0-3.04.51-5.79,1.54-8.28,1.03-2.48,2.16-3.73,3.42-3.73.45,0,.84.15,1.16.46Z"/>
    <path class="cls-5" d="m340.06,917.99c.15.2.22.43.22.7,0,.36-.19.98-.56,1.86-1,2.32-1.98,3.48-2.95,3.48-.59,0-1.08-.47-1.47-1.42-.38-.95-.58-2.16-.58-3.64,0-2.67.5-5.38,1.51-8.11,1-2.74,2-4.1,2.98-4.1.71,0,1.07.77,1.07,2.3,0,1.72-.42,3.4-1.25,5.04-.83,1.64-1.84,2.78-3.04,3.43.12,2.81.67,4.22,1.66,4.22s1.78-1.25,2.4-3.76Zm-4.03-2.6c.17.12.32.18.46.18.72,0,1.35-.45,1.9-1.34s.81-1.93.81-3.13c0-1.37-.35-2.06-1.04-2.06-.5,0-.95.6-1.36,1.8s-.66,2.72-.77,4.54Z"/>
    <path class="cls-5" d="m352.21,907.03l.08-1.51c.21-3.75.85-6.87,1.91-9.35s2.29-3.73,3.68-3.73c.33,0,.62.06.86.18l-1.24,2.55c-.27-.19-.6-.28-.97-.28-.87,0-1.53.62-1.96,1.84-.43,1.23-.73,3.33-.89,6.29l-.81,14.65-.06,1.11c-.05,1-.08,1.7-.08,2.13,0,.57.08.86.23.86.48,0,.97-1.1,1.46-3.29.16.19.24.38.24.56,0,.42-.24,1.25-.71,2.48-.66,1.69-1.28,2.53-1.85,2.53-.45,0-.67-.62-.67-1.86,0-.46.04-1.37.11-2.72l.09-1.55.06-1.3c-.4,1.76-1.04,3.44-1.92,5.04-.89,1.6-1.62,2.4-2.19,2.4-.82,0-1.23-1.29-1.23-3.88,0-3.39.57-6.43,1.7-9.12,1.13-2.7,2.42-4.04,3.84-4.04.07,0,.18.01.34.04Zm-.14,2.53c-.49-.54-.94-.81-1.35-.81-.86,0-1.57.98-2.13,2.95-.56,1.97-.84,4.46-.84,7.5,0,1.52.22,2.28.66,2.28.54,0,1.17-.8,1.89-2.39.94-2.05,1.49-4.56,1.66-7.55l.11-1.98Z"/>
    <path class="cls-5" d="m361.88,916.68c-.67,2.05-1.41,3.79-2.25,5.22s-1.51,2.14-2.04,2.14c-.58,0-.87-.77-.87-2.32,0-.57.04-1.52.11-2.83l.31-5.76c0-.08.02-.42.04-1.02l.05-1.14c.02-.34.03-.64.03-.91,0-.68-.1-1.02-.29-1.02-.44,0-.92,1-1.43,2.99-.11-.18-.17-.36-.17-.56,0-.73.32-1.69.97-2.9s1.16-1.81,1.53-1.81c.48,0,.73.67.73,2,0,.32-.01.69-.04,1.11l-.08,1.35-.08,1.48-.27,5.03c-.05.86-.07,1.72-.07,2.6,0,.81.15,1.21.44,1.21.66,0,1.4-1.09,2.22-3.27s1.32-4.34,1.47-6.47l.3-4.17,1.42-.97c-.16,1.36-.29,2.57-.37,3.63l-.53,7.34c-.03.44-.05.82-.07,1.12l-.06.97c-.04.6-.05,1.02-.05,1.26,0,.5.07.75.21.75.5,0,1-1.1,1.51-3.29.16.19.24.38.24.56,0,.41-.25,1.24-.76,2.48-.68,1.69-1.31,2.53-1.9,2.53-.43,0-.64-.57-.64-1.72,0-.36.02-.85.06-1.46l.1-1.41c.05-.76.09-1.28.11-1.55l.09-1.23Z"/>
    <path class="cls-5" d="m372.79,914.22c.63-2.21,1.33-4,2.09-5.38.76-1.38,1.44-2.08,2.02-2.08.84,0,1.26,1.44,1.26,4.31,0,3.52-.55,6.53-1.67,9.02s-2.45,3.74-4.02,3.74c-.2,0-.37-.02-.52-.05l-.71-.14s-.15-.01-.33-.04c.13-.89.22-1.83.27-2.81l.84-15.17c.2-3.65.87-6.76,2.01-9.33,1.14-2.57,2.41-3.85,3.81-3.85.29,0,.57.06.84.19l-1.29,2.53c-.33-.2-.64-.3-.94-.3-1.74,0-2.75,2.72-3.05,8.17l-.62,11.19Zm-.37,6.95c.54.6,1.08.9,1.62.9.8,0,1.45-.93,1.95-2.8s.75-4.3.75-7.29c0-1.74-.24-2.62-.71-2.62-.52,0-1.14.79-1.84,2.37-.95,2.14-1.51,4.66-1.67,7.55l-.1,1.9Z"/>
    <path class="cls-5" d="m381.17,924.04c-1.31,0-1.97-1.75-1.97-5.24,0-2.81.51-5.52,1.54-8.13,1.03-2.61,2.09-3.91,3.19-3.91,1.33,0,1.99,1.75,1.99,5.24,0,2.82-.51,5.54-1.54,8.14s-2.1,3.9-3.21,3.9Zm1.06-1.97c.67,0,1.23-.75,1.68-2.25.45-1.5.68-3.37.68-5.61,0-3.66-.57-5.48-1.7-5.48-.66,0-1.22.75-1.67,2.26s-.68,3.37-.68,5.6c0,3.66.56,5.48,1.69,5.48Z"/>
    <path class="cls-5" d="m393.23,916.68c-.67,2.05-1.41,3.79-2.25,5.22s-1.51,2.14-2.04,2.14c-.58,0-.87-.77-.87-2.32,0-.57.04-1.52.11-2.83l.31-5.76c0-.08.02-.42.04-1.02l.05-1.14c.02-.34.03-.64.03-.91,0-.68-.1-1.02-.29-1.02-.44,0-.92,1-1.43,2.99-.11-.18-.17-.36-.17-.56,0-.73.32-1.69.97-2.9s1.16-1.81,1.53-1.81c.48,0,.73.67.73,2,0,.32-.01.69-.04,1.11l-.08,1.35-.08,1.48-.27,5.03c-.05.86-.07,1.72-.07,2.6,0,.81.15,1.21.44,1.21.66,0,1.4-1.09,2.22-3.27s1.32-4.34,1.47-6.47l.3-4.17,1.42-.97c-.16,1.36-.29,2.57-.37,3.63l-.53,7.34c-.03.44-.05.82-.07,1.12l-.06.97c-.04.6-.05,1.02-.05,1.26,0,.5.07.75.21.75.5,0,1-1.1,1.51-3.29.16.19.24.38.24.56,0,.41-.25,1.24-.76,2.48-.68,1.69-1.31,2.53-1.9,2.53-.43,0-.64-.57-.64-1.72,0-.36.02-.85.06-1.46l.1-1.41c.05-.76.09-1.28.11-1.55l.09-1.23Z"/>
    <path class="cls-5" d="m403.02,907.22l-1,2.41c-.47-.39-.91-.58-1.34-.58-.76,0-1.37.65-1.8,1.95s-.66,3.08-.66,5.34c0,1.59.16,2.88.48,3.85s.73,1.46,1.25,1.46c.87,0,1.55-1.14,2.04-3.43.13.28.19.54.19.79,0,.97-.38,2.05-1.13,3.24-.75,1.19-1.45,1.78-2.08,1.78s-1.1-.49-1.49-1.47c-.39-.98-.58-2.25-.58-3.81,0-3.04.51-5.79,1.54-8.28,1.03-2.48,2.16-3.73,3.42-3.73.45,0,.84.15,1.16.46Z"/>
    <path class="cls-5" d="m406.06,913.88c.68-2.06,1.43-3.76,2.25-5.11s1.52-2.01,2.1-2.01.85.79.85,2.37c0,.47-.03,1.19-.1,2.16l-.47,6.55c-.1,1.31-.15,2.35-.15,3.11,0,.61.08.91.25.91.4,0,.9-1.07,1.48-3.22.15.18.22.36.22.54,0,.76-.33,1.76-.98,3-.65,1.24-1.18,1.85-1.59,1.85-.46,0-.68-.66-.68-1.97,0-.96.06-2.29.18-3.99l.3-4.25c.1-1.39.15-2.5.15-3.32,0-.9-.16-1.35-.48-1.35-.74,0-1.5,1.02-2.26,3.05-.76,2.03-1.21,4.22-1.34,6.55l-.23,4.22-1.31,1.07.03-.49.07-1.3.07-1.23.85-15.41c.2-3.63.87-6.74,2.01-9.31,1.14-2.57,2.41-3.86,3.81-3.86.29,0,.57.06.85.19l-1.28,2.53c-.33-.2-.65-.3-.94-.3-1.73,0-2.75,2.72-3.05,8.16l-.61,10.86Z"/>
    <path class="cls-5" d="m418.61,917.99c.15.2.22.43.22.7,0,.36-.19.98-.56,1.86-1,2.32-1.98,3.48-2.95,3.48-.59,0-1.08-.47-1.47-1.42-.38-.95-.58-2.16-.58-3.64,0-2.67.5-5.38,1.51-8.11,1-2.74,2-4.1,2.98-4.1.71,0,1.07.77,1.07,2.3,0,1.72-.42,3.4-1.25,5.04-.83,1.64-1.84,2.78-3.04,3.43.12,2.81.67,4.22,1.66,4.22s1.78-1.25,2.4-3.76Zm-4.03-2.6c.17.12.32.18.46.18.72,0,1.35-.45,1.9-1.34s.81-1.93.81-3.13c0-1.37-.35-2.06-1.04-2.06-.5,0-.95.6-1.36,1.8s-.66,2.72-.77,4.54Z"/>
    <path class="cls-5" d="m422.81,914.16c1.29-4.93,2.56-7.4,3.82-7.4.33,0,.65.15.98.46l-1.23,2.71c-.19-.21-.42-.32-.72-.32-.61,0-1.24.99-1.92,2.96-.67,1.97-1.07,4.03-1.18,6.16l-.24,4.29-1.3.88.03-.53.06-1.14.07-1.14.46-8.37.05-.91c.04-.69.06-1.25.06-1.69,0-.71-.1-1.07-.3-1.07-.47,0-.93,1-1.39,3.01-.15-.22-.21-.45-.21-.69.02-.71.34-1.66.98-2.84s1.13-1.77,1.5-1.77c.5,0,.74.66.74,1.97,0,.32-.01.74-.04,1.28l-.06,1.23-.08,1.48-.08,1.44Z"/>
    <path class="cls-5" d="m427.03,929.95l-.22-.49c.89-1.3,1.34-2.72,1.34-4.27,0-1.29-.35-2.4-1.06-3.32l1.23-2.46c.71,1.07,1.07,2.33,1.07,3.8,0,2.09-.79,4.34-2.36,6.75Z"/>
    <path class="cls-5" d="m439.44,918.42c.17.16.25.38.25.63,0,.84-.31,1.89-.94,3.13s-1.15,1.86-1.58,1.86c-.48,0-.72-.7-.72-2.11,0-.86.03-1.73.08-2.62l.1-1.56.67-12.23c.21-3.73.85-6.84,1.91-9.33s2.29-3.74,3.67-3.74c.34,0,.62.06.86.18l-1.24,2.55c-.27-.19-.59-.28-.96-.28-.87,0-1.53.62-1.96,1.85-.43,1.24-.73,3.33-.89,6.28l-.81,14.72c-.06,1.14-.1,1.95-.1,2.44,0,1.05.09,1.58.27,1.58.21,0,.47-.35.76-1.04.29-.69.5-1.46.64-2.3Z"/>
    <path class="cls-5" d="m445.98,917.99c.15.2.22.43.22.7,0,.36-.19.98-.56,1.86-1,2.32-1.98,3.48-2.95,3.48-.59,0-1.08-.47-1.47-1.42-.38-.95-.58-2.16-.58-3.64,0-2.67.5-5.38,1.51-8.11,1-2.74,2-4.1,2.98-4.1.71,0,1.07.77,1.07,2.3,0,1.72-.42,3.4-1.25,5.04-.83,1.64-1.84,2.78-3.04,3.43.12,2.81.67,4.22,1.66,4.22s1.78-1.25,2.4-3.76Zm-4.03-2.6c.17.12.32.18.46.18.72,0,1.35-.45,1.9-1.34s.81-1.93.81-3.13c0-1.37-.35-2.06-1.04-2.06-.5,0-.95.6-1.36,1.8s-.66,2.72-.77,4.54Zm1.91-10.9l.99-3.64c.98-.83,1.73-1.74,2.26-2.72.12.38.17.69.17.93,0,1.21-1.14,3.02-3.42,5.43Z"/>
    <path class="cls-5" d="m454.57,907.45c-.03.21-.05.34-.05.39l-.1.93c-.08.68-.12,1.05-.12,1.12l-.35,6.43c-.06,1.08-.12,2.97-.18,5.68-.08,3.39-.24,5.89-.48,7.52-.24,1.63-.66,3.08-1.27,4.36-1.39,2.94-2.86,4.41-4.43,4.41-.76,0-1.39-.52-1.89-1.54-.5-1.03-.75-2.32-.75-3.86,0-3.15.96-6.26,2.87-9.32-.41-.65-.61-1.78-.61-3.41,0-3.54.58-6.62,1.74-9.24,1.16-2.62,2.53-3.92,4.11-3.92.67,0,1.17.15,1.51.46Zm-1.89,9.24c-1.57,4.83-3,7.25-4.27,7.25-.05,0-.15-.01-.28-.04-1.36,2.74-2.04,5.18-2.04,7.32,0,1.46.26,2.69.77,3.68.52.99,1.16,1.48,1.92,1.48,1.18,0,2.08-1.04,2.71-3.13.48-1.61.81-5.43,1-11.47.07-2.28.13-3.98.18-5.1Zm.39-7.04c-.42-.6-.95-.9-1.58-.9-.8,0-1.47,1.01-2.02,3.02s-.83,4.49-.83,7.44c0,1.52.22,2.29.67,2.29.51,0,1.14-.8,1.88-2.39,1.03-2.21,1.62-4.72,1.77-7.52l.11-1.93Z"/>
    <path class="cls-5" d="m461.99,916.68c-.67,2.05-1.41,3.79-2.25,5.22s-1.51,2.14-2.04,2.14c-.58,0-.87-.77-.87-2.32,0-.57.04-1.52.11-2.83l.31-5.76c0-.08.02-.42.04-1.02l.05-1.14c.02-.34.03-.64.03-.91,0-.68-.1-1.02-.29-1.02-.44,0-.92,1-1.43,2.99-.11-.18-.17-.36-.17-.56,0-.73.32-1.69.97-2.9.64-1.21,1.16-1.81,1.53-1.81.48,0,.73.67.73,2,0,.32-.01.69-.04,1.11l-.08,1.35-.08,1.48-.27,5.03c-.05.86-.07,1.72-.07,2.6,0,.81.15,1.21.44,1.21.66,0,1.4-1.09,2.23-3.27.83-2.18,1.32-4.34,1.47-6.47l.3-4.17,1.42-.97c-.16,1.36-.29,2.57-.37,3.63l-.53,7.34c-.03.44-.05.82-.07,1.12l-.06.97c-.04.6-.05,1.02-.05,1.26,0,.5.07.75.21.75.5,0,1-1.1,1.51-3.29.16.19.24.38.24.56,0,.41-.25,1.24-.76,2.48-.68,1.69-1.31,2.53-1.9,2.53-.43,0-.64-.57-.64-1.72,0-.36.02-.85.06-1.46l.1-1.41c.05-.76.09-1.28.11-1.55l.09-1.23Z"/>
    <path class="cls-5" d="m472.52,922.97l-1.3,1.07.03-.49.07-1.3.06-1.23.44-7.89.06-.9c.02-.47.04-.93.04-1.37,0-1.14-.17-1.71-.52-1.71-.54,0-1.16,1.1-1.88,3.3s-1.13,4.3-1.24,6.29l-.22,4.22-1.31,1.07.03-.49.07-1.3.07-1.23.45-8.16.05-.93c.04-.73.06-1.31.06-1.76,0-.75-.09-1.12-.28-1.12-.44,0-.91,1-1.42,2.99-.13-.22-.2-.42-.2-.58,0-.7.32-1.66.96-2.87s1.14-1.82,1.52-1.82c.5,0,.75.64.75,1.93,0,.33-.01.77-.04,1.32l-.07,1.42-.07,1.2-.07,1.25.25-.77c1.3-4.23,2.52-6.35,3.64-6.35.54,0,.81.79.81,2.36,0,.27-.02.84-.07,1.71l-.09,1.62-.12,2.2c.54-2.26,1.18-4.14,1.93-5.63s1.41-2.24,1.99-2.24.86.75.86,2.25c0,.64-.03,1.41-.1,2.3l-.46,6.52c-.1,1.35-.15,2.39-.15,3.13,0,.62.08.93.25.93.2,0,.45-.33.75-1s.54-1.42.72-2.27c.16.21.24.4.24.58,0,.74-.33,1.73-.98,2.97-.65,1.24-1.17,1.86-1.56,1.86-.5,0-.75-.67-.75-2,0-.84.06-2.15.19-3.92l.31-4.24c.01-.15.03-.49.06-1,.01-.21.03-.57.06-1.07s.04-.89.04-1.16c0-1-.16-1.49-.49-1.49-.55,0-1.18,1.1-1.9,3.3-.72,2.2-1.14,4.3-1.25,6.29l-.23,4.22Z"/>
    <path class="cls-5" d="m485.12,917.99c.15.2.22.43.22.7,0,.36-.19.98-.56,1.86-1,2.32-1.98,3.48-2.95,3.48-.59,0-1.08-.47-1.47-1.42-.38-.95-.58-2.16-.58-3.64,0-2.67.5-5.38,1.51-8.11,1-2.74,2-4.1,2.98-4.1.71,0,1.07.77,1.07,2.3,0,1.72-.42,3.4-1.25,5.04-.83,1.64-1.84,2.78-3.04,3.43.12,2.81.67,4.22,1.66,4.22s1.78-1.25,2.4-3.76Zm-4.03-2.6c.17.12.32.18.46.18.72,0,1.35-.45,1.9-1.34s.81-1.93.81-3.13c0-1.37-.35-2.06-1.04-2.06-.5,0-.95.6-1.36,1.8s-.66,2.72-.77,4.54Z"/>
    <path class="cls-5" d="m485.9,923.09l1.21-1.99c.46.97,1.03,1.46,1.72,1.46.84,0,1.26-.81,1.26-2.44,0-.9-.38-2.16-1.16-3.78l-.5-1.04c-.73-1.54-1.1-2.78-1.1-3.73,0-1.36.29-2.5.88-3.43.59-.93,1.31-1.39,2.16-1.39.47,0,.98.18,1.53.53l-1.05,1.95c-.44-.67-.94-1-1.48-1-.63,0-.95.53-.95,1.6,0,.76.35,1.88,1.06,3.36l.54,1.16c.8,1.69,1.21,3.05,1.21,4.08,0,1.48-.35,2.78-1.06,3.91s-1.52,1.7-2.44,1.7c-.65,0-1.26-.32-1.83-.95Z"/>
  </g>
  <g>
    <path class="cls-5" d="m663.37,565.22l.71-12.96c-.5.72-.92,1.26-1.25,1.64l-.82.97s-.08.09-.19.22l.09-1.5c1.02-.74,2.16-1.99,3.41-3.76l-.85,15.39h1.94l-.75,1.22h-4.47l.77-1.22h1.41Z"/>
    <path class="cls-5" d="m670.21,565.22l.71-12.96c-.5.72-.92,1.26-1.25,1.64l-.82.97s-.08.09-.19.22l.09-1.5c1.02-.74,2.16-1.99,3.41-3.76l-.85,15.39h1.94l-.75,1.22h-4.47l.77-1.22h1.41Z"/>
    <path class="cls-5" d="m683.58,555.28h-8.84l.37-1.71h8.83l-.36,1.71Zm-.73,3.43h-8.11l.37-1.71h8.11l-.37,1.71Zm1.7,5.4c-.89,1.55-2,2.32-3.32,2.32-1.45,0-2.66-.99-3.64-2.96-.98-1.97-1.47-4.42-1.47-7.33s.49-5.35,1.47-7.33c.98-1.97,2.2-2.96,3.64-2.96s2.68,1.02,3.69,3.06l-.37,1.73c-.95-2.05-2.05-3.07-3.32-3.07-1.19,0-2.2.83-3.02,2.5-.83,1.66-1.24,3.69-1.24,6.08s.41,4.42,1.24,6.08c.83,1.66,1.83,2.49,3.02,2.49,1.29,0,2.4-1.04,3.32-3.13v2.53Z"/>
  </g>
  <g>
    <path class="cls-5" d="m660.97,916.43l.96-1.9c1.4-.67,2.54-1.82,3.4-3.43.87-1.61,1.3-3.38,1.3-5.3,0-1.11-.2-2.03-.61-2.76s-.92-1.09-1.55-1.09c-.75,0-1.48.56-2.19,1.67-.05-.22-.07-.36-.07-.42,0-.55.41-1.17,1.22-1.86s1.54-1.04,2.18-1.04,1.19.41,1.67,1.22c.48.81.72,1.75.72,2.82,0,1.46-.43,3.17-1.31,5.15-.87,1.97-1.93,3.65-3.19,5.04l4.54.47-.91,1.84-6.18-.41Z"/>
    <path class="cls-5" d="m670.27,911.71c0-2.87.49-5.49,1.47-7.85.98-2.36,2.07-3.55,3.25-3.55.63,0,1.14.49,1.53,1.47.39.98.58,2.27.58,3.88,0,2.75-.5,5.31-1.49,7.66-1,2.35-2.08,3.52-3.24,3.52-.61,0-1.11-.48-1.51-1.45s-.59-2.19-.59-3.68Zm5.65-4.18c0-1.67-.19-3.03-.56-4.06-.37-1.03-.86-1.55-1.46-1.55-.68,0-1.25.75-1.73,2.24-.48,1.49-.72,3.29-.72,5.4,0,1.71.18,3.08.55,4.11.37,1.03.86,1.55,1.46,1.55.68,0,1.25-.75,1.73-2.25.48-1.5.72-3.31.72-5.44Z"/>
    <path class="cls-5" d="m686.96,905.28h-8.84l.37-1.71h8.83l-.36,1.71Zm-.73,3.43h-8.11l.37-1.71h8.11l-.37,1.71Zm1.7,5.4c-.89,1.55-2,2.32-3.32,2.32-1.45,0-2.66-.99-3.64-2.96-.98-1.97-1.47-4.42-1.47-7.33s.49-5.35,1.47-7.33c.98-1.97,2.2-2.96,3.64-2.96s2.68,1.02,3.69,3.06l-.37,1.73c-.95-2.05-2.05-3.07-3.32-3.07-1.19,0-2.2.83-3.02,2.5-.83,1.66-1.24,3.69-1.24,6.08s.41,4.42,1.24,6.08c.83,1.66,1.83,2.49,3.02,2.49,1.29,0,2.4-1.04,3.32-3.13v2.53Z"/>
  </g>
</svg>