<?xml version="1.0" encoding="UTF-8"?>
<svg id="Calque_1" data-name="Calque 1" xmlns="http://www.w3.org/2000/svg" xmlns:xlink="http://www.w3.org/1999/xlink" viewBox="0 0 768 1694.17">
  <defs>
    <style>
      .cls-1 {
        clip-path: url(#clippath);
      }

      .cls-2, .cls-3, .cls-4, .cls-5, .cls-6 {
        fill: none;
      }

      .cls-2, .cls-3, .cls-4, .cls-7, .cls-8 {
        stroke-width: 0px;
      }

      .cls-9 {
        clip-path: url(#clippath-1);
      }

      .cls-10 {
        clip-path: url(#clippath-3);
      }

      .cls-11 {
        clip-path: url(#clippath-2);
      }

      .cls-3 {
        opacity: 0;
      }

      .cls-4, .cls-12 {
        opacity: .35;
      }

      .cls-5 {
        stroke-width: 2px;
      }

      .cls-5, .cls-6 {
        stroke: #72383d;
        stroke-miterlimit: 10;
      }

      .cls-8 {
        fill: #fff;
      }
    </style>
    <clipPath id="clippath">
      <rect class="cls-3" x="239.63" y="225.84" width="311.55" height="211.19"/>
    </clipPath>
    <clipPath id="clippath-1">
      <rect class="cls-2" x="242.32" y="924.05" width="304.49" height="205.1"/>
    </clipPath>
    <clipPath id="clippath-2">
      <rect class="cls-2" x="242.32" y="574.48" width="306.16" height="204.26"/>
    </clipPath>
    <clipPath id="clippath-3">
      <rect class="cls-4" x="242.32" y="1312.92" width="304.49" height="201.45"/>
    </clipPath>
  </defs>
  <rect class="cls-8" width="768" height="1694.17"/>
  <path class="cls-6" d="m569.48,166.74H190.36c.08-25.04-14.01-9.03-14.01-20.16v-66.42c0-11.14,13.68,1.94,14.01-20.16h379.12c.29,17.36,14.01,9.03,14.01,20.16v66.42c0,11.14-13.73-1.02-14.01,20.16Z"/>
  <g>
    <line class="cls-6" x1="723.72" y1="1640.24" x2="723.72" y2="166.87"/>
    <line class="cls-6" x1="724.71" y1="1640.24" x2="724.71" y2="166.87"/>
    <line class="cls-6" x1="725.67" y1="1640.24" x2="725.67" y2="166.87"/>
    <line class="cls-6" x1="726.62" y1="1640.11" x2="726.62" y2="166.74"/>
    <line class="cls-6" x1="727.61" y1="1640.11" x2="727.61" y2="166.74"/>
    <line class="cls-6" x1="728.57" y1="1640.11" x2="728.57" y2="166.74"/>
  </g>
  <polyline class="cls-6" points="42.11 166.74 39.11 1640.11 38.14 1640.11 41.14 166.74 40.16 166.74 37.16 1640.11 36.21 1640.24 39.21 166.87 38.24 166.87 35.24 1640.24 34.26 1640.24 37.26 166.87"/>
  <g>
    <path class="cls-7" d="m316.51,130.91c.16-.57.78-1.68,1.88-3.33,1.1-1.64,2.48-3.57,4.15-5.79,1.67-2.22,3.52-4.63,5.56-7.24,2.03-2.61,4.04-5.15,6.02-7.63,1.98-2.48,3.85-4.79,5.59-6.92,1.75-2.14,3.17-3.86,4.26-5.16,1.1-.36,1.96-.64,2.58-.82.63-.18,1.12-.35,1.49-.51.31.11.36.26.16.47-.63.42-1.02,1.02-1.17,1.8-.21,1.2-.42,2.63-.63,4.3-.21,1.67-.4,3.44-.59,5.32-.18,1.88-.35,3.81-.51,5.79-.16,1.98-.29,3.86-.39,5.63-.1,1.77-.18,3.4-.23,4.89-.05,1.49-.08,2.67-.08,3.56,0,.52.04.87.12,1.06.08.18.18.26.31.23.13-.03.27-.13.43-.31.16-.18.31-.38.47-.59.57-.73,1.51-1.89,2.82-3.48,1.3-1.59,2.79-3.39,4.46-5.4,1.67-2.01,3.44-4.11,5.32-6.3s3.68-4.26,5.4-6.22c1.72-1.96,3.27-3.7,4.66-5.24,1.38-1.54,2.41-2.62,3.09-3.25.83-.42,1.85-.81,3.05-1.17,1.2-.36,2.16-.78,2.9-1.25.16,0,.29.07.39.2.1.13.1.27,0,.43-.89.37-1.53.68-1.92.94-.39.26-.72.76-.98,1.49-.63,1.98-1.27,4.29-1.92,6.92-.65,2.63-1.25,5.33-1.8,8.1-.55,2.77-1,5.47-1.37,8.1-.37,2.63-.55,4.94-.55,6.92,0,.73.17,1.24.51,1.53.34.29.74.43,1.21.43s.99-.05,1.56-.16c.57-.1,1.1-.26,1.56-.47.1,0,.17.07.2.2.03.13-.01.25-.12.35-.52.16-1.13.34-1.84.55-.7.21-1.41.42-2.11.63-.7.21-1.36.4-1.96.59-.6.18-1.11.33-1.53.43-.63,0-1.13-.12-1.53-.35-.39-.23-.64-.67-.74-1.29.05-.73.23-1.93.55-3.6.31-1.67.7-3.55,1.17-5.63.47-2.09.98-4.28,1.53-6.57.55-2.29,1.06-4.42,1.53-6.38.47-1.96.87-3.61,1.21-4.97.34-1.36.53-2.16.59-2.43.21-.78.21-1.16,0-1.13-.21.03-.52.22-.94.59-.99.89-2.15,2.02-3.48,3.4-1.33,1.38-2.74,2.91-4.23,4.58-1.49,1.67-3.01,3.44-4.58,5.32s-3.1,3.76-4.62,5.63c-1.51,1.88-2.95,3.72-4.3,5.52-1.36,1.8-2.56,3.46-3.6,4.97-.1.21-.23.46-.39.74-.16.29-.29.61-.39.98-.99.05-1.73.2-2.23.43-.5.23-1.01.59-1.53,1.06-.31.1-.5.05-.55-.16.16-1.1.33-2.56.51-4.38.18-1.83.36-3.83.55-6.02.18-2.19.35-4.45.51-6.77.16-2.32.31-4.51.47-6.57.16-2.06.29-3.87.39-5.44.1-1.56.18-2.69.23-3.36,0-.99-.42-.99-1.25,0-1.51,1.72-3.3,3.89-5.36,6.49-2.06,2.61-4.13,5.32-6.22,8.14-2.09,2.82-4.06,5.58-5.91,8.29-1.85,2.71-3.33,5.06-4.42,7.04-.94,1.72-1.5,3.02-1.68,3.91-.18.89-.25,1.62-.2,2.19.05.57,0,.82-.16.74-.16-.08-.31-.27-.47-.59-.16-.31-.29-.78-.39-1.41-.11-.63-.29-1.49-.55-2.58Z"/>
    <path class="cls-7" d="m397.81,120.66c-.89,1.1-1.94,2.23-3.17,3.4-1.23,1.17-2.56,2.24-3.99,3.21-1.44.97-2.92,1.75-4.46,2.35-1.54.6-3.07.9-4.58.9-2.45,0-3.68-1.1-3.68-3.29,0-1.46.38-3.04,1.13-4.73.76-1.69,1.73-3.26,2.93-4.69,1.2-1.43,2.52-2.63,3.95-3.6,1.43-.96,2.8-1.45,4.11-1.45.73,0,1.24.13,1.53.39.29.26.43.6.43,1.02,0,.63-.2,1.3-.59,2.03-.39.73-.98,1.42-1.76,2.07-.78.65-1.77,1.2-2.97,1.64-1.2.44-2.63.67-4.3.67-.26.47-.55,1.21-.86,2.23-.31,1.02-.47,2.05-.47,3.09,0,2.14.96,3.21,2.89,3.21,1.2,0,2.44-.29,3.72-.86,1.28-.57,2.52-1.29,3.72-2.15,1.2-.86,2.31-1.8,3.33-2.82,1.02-1.02,1.87-1.97,2.54-2.86.1-.1.22-.13.35-.08.13.05.2.16.2.31Zm-8.22-6.1c0-.68-.34-1.02-1.02-1.02-.52,0-1.06.2-1.6.59-.55.39-1.08.9-1.6,1.53-.52.63-1.02,1.3-1.49,2.03-.47.73-.86,1.44-1.17,2.11.1.05.29.09.55.12.26.03.47.04.63.04,1.51,0,2.84-.53,3.99-1.6,1.15-1.07,1.72-2.33,1.72-3.79Z"/>
    <path class="cls-7" d="m418.7,119.88c-.94,1.3-2.02,2.62-3.25,3.95-1.23,1.33-2.53,2.52-3.91,3.56-1.38,1.04-2.79,1.9-4.23,2.58-1.44.68-2.83,1.02-4.19,1.02-.63,0-1.2-.09-1.72-.27-.52-.18-.78-.64-.78-1.37s.26-1.66.78-2.78c.52-1.12,1.13-2.31,1.84-3.56.7-1.25,1.43-2.53,2.19-3.83.76-1.3,1.37-2.5,1.84-3.6.1-.26.12-.48.04-.67-.08-.18-.25-.2-.51-.04-.57.37-1.25.86-2.03,1.49s-1.58,1.29-2.39,2c-.81.7-1.59,1.42-2.35,2.15-.76.73-1.37,1.38-1.84,1.96-.84,1.3-1.55,2.5-2.15,3.6-.6,1.1-1.34,2.32-2.23,3.68-.21.31-.37.47-.47.47-.26,0-.48-.29-.67-.86-.18-.57-.27-.94-.27-1.1,0-.47.33-1.11.98-1.92.65-.81,1.37-1.71,2.15-2.7.83-1.67,1.7-3.43,2.58-5.28.89-1.85,1.64-3.51,2.27-4.97.16-.26.39-.39.7-.39s.6.13.86.39c.26.26.39.55.39.86,0,.21-.38.93-1.13,2.15-.76,1.23-1.5,2.65-2.23,4.26.99-.89,2.07-1.83,3.25-2.82,1.17-.99,2.29-1.9,3.36-2.74,1.07-.83,2.01-1.53,2.82-2.07.81-.55,1.37-.82,1.68-.82.21,0,.4.12.59.35s.27.46.27.67-.13.52-.39.94c-.57.83-1.28,1.9-2.11,3.21-.83,1.3-1.63,2.65-2.39,4.03-.76,1.38-1.4,2.7-1.92,3.95-.52,1.25-.78,2.24-.78,2.97,0,.63.13,1.06.39,1.29.26.23.68.35,1.25.35.89,0,1.93-.34,3.13-1.02,1.2-.68,2.44-1.53,3.72-2.54,1.28-1.02,2.49-2.15,3.64-3.4,1.15-1.25,2.09-2.45,2.82-3.6.1-.16.26-.2.47-.12.21.08.18.27-.08.59Z"/>
    <path class="cls-7" d="m438.5,120.58c-.89,1.25-1.93,2.57-3.13,3.95-1.2,1.38-2.45,2.65-3.76,3.79-1.3,1.15-2.63,2.1-3.99,2.86-1.36.76-2.63,1.13-3.83,1.13-.89,0-1.58-.23-2.07-.7-.5-.47-.74-1.2-.74-2.19,0-.47.07-1,.2-1.6.13-.6.35-1.26.67-2-.31.37-.67.8-1.06,1.29-.39.5-.83.97-1.33,1.41-.5.44-1.04.81-1.64,1.1-.6.29-1.27.43-2,.43-.57,0-1.04-.17-1.41-.51-.37-.34-.55-.87-.55-1.6,0-.42.09-.94.27-1.56s.52-1.47,1.02-2.54c.5-1.07,1.17-2.4,2.03-3.99.86-1.59,1.97-3.56,3.33-5.91.26-.52.5-.78.7-.78.36,0,.74.22,1.13.67.39.44.59.74.59.9s-.16.47-.47.94c-.83,1.25-1.62,2.5-2.35,3.76-.73,1.25-1.37,2.43-1.92,3.52-.55,1.1-.99,2.07-1.33,2.93-.34.86-.51,1.53-.51,2,0,.78.29,1.17.86,1.17.52,0,1.24-.4,2.15-1.21.91-.81,2-2.18,3.25-4.11.47-.83.95-1.71,1.45-2.62.5-.91.98-1.79,1.45-2.62.47-.83.91-1.6,1.33-2.31.42-.7.73-1.24.94-1.6.26-.36.47-.55.63-.55.21,0,.44.22.7.67.26.44.39.98.39,1.6,0,.42-.11.81-.31,1.17-.63.94-1.29,1.87-2,2.78-.7.91-1.36,1.87-1.96,2.86-.6.99-1.11,2.03-1.53,3.13-.42,1.1-.63,2.3-.63,3.6,0,1.15.55,1.72,1.64,1.72.73,0,1.6-.27,2.62-.82,1.02-.55,2.12-1.32,3.33-2.31,1.2-.99,2.44-2.19,3.72-3.6,1.28-1.41,2.49-2.95,3.64-4.62.31-.1.47.03.47.39Z"/>
  </g>
  <g class="cls-12">
    <g class="cls-1">
      <image width="700" height="467" transform="translate(111.38 -44.99)" xlink:href="../ressources/food_4_dark.jpg"/>
    </g>
  </g>
  <g>
    <path class="cls-7" d="m174.37,326.32l1.49-1.59.36.08c.47.12.91.21,1.34.26.63-.39,1.06-.86,1.28-1.41.22-.55.42-1.62.6-3.21l.98-8.81c-1.62.12-2.92.55-3.89,1.31-.97.76-1.45,1.71-1.45,2.85,0,.69.17,1.33.52,1.94l-1.89,1.66c-.16-.6-.25-1.21-.25-1.83,0-2.11.9-3.84,2.7-5.19s4.1-2.02,6.91-2.02c3.62,0,5.43,1.04,5.43,3.11,0,1.77-1.26,3.19-3.77,4.25,2.46.89,3.68,2.26,3.68,4.11,0,1.5-.76,2.7-2.29,3.59s-3.56,1.34-6.12,1.34c-1.57,0-3.45-.15-5.65-.45Zm7.16-7.64l-.17,1.57-.11.98c-.13,1.16-.37,1.98-.7,2.45s-1.04.98-2.12,1.53c1.55.25,3.08.38,4.59.38,2.44,0,3.66-.97,3.66-2.91,0-.84-.33-1.64-1-2.42-.67-.78-1.49-1.31-2.45-1.59h-.31s-.56.04-.56.04l-.52-.02h-.32Zm.79-7.14l-.69,6.19c.46.04.86.06,1.2.06.38,0,.82-.03,1.35-.08,1.66-.96,2.5-2.11,2.5-3.46,0-1.81-1.45-2.71-4.36-2.71Z"/>
    <path class="cls-7" d="m199.1,322c-.89,1.37-1.9,2.53-3.02,3.48-1.12.95-2.03,1.43-2.73,1.43-.77,0-1.16-.51-1.16-1.54,0-.38.05-1.01.15-1.88l.42-3.84c0-.05.03-.28.06-.68l.07-.76c.02-.23.04-.43.04-.61,0-.45-.13-.68-.39-.68-.59,0-1.23.66-1.92,1.99-.15-.12-.22-.24-.22-.38,0-.48.43-1.13,1.3-1.93s1.55-1.21,2.06-1.21c.65,0,.97.45.97,1.34,0,.21-.02.46-.05.74l-.11.9-.1.98-.37,3.35c-.06.57-.09,1.15-.09,1.73,0,.54.2.81.6.81.88,0,1.88-.73,2.98-2.18s1.77-2.89,1.97-4.31l.41-2.78,1.9-.64c-.22.91-.38,1.71-.49,2.42l-.71,4.89c-.04.3-.07.55-.09.75l-.08.64c-.05.4-.07.68-.07.84,0,.34.09.5.28.5.66,0,1.34-.73,2.03-2.19.21.12.32.25.32.38,0,.27-.34.82-1.02,1.65-.91,1.12-1.76,1.69-2.54,1.69-.57,0-.86-.38-.86-1.15,0-.24.03-.57.08-.97l.13-.94c.07-.51.12-.85.14-1.03l.12-.82Z"/>
    <path class="cls-7" d="m207.89,320.32c1.73-3.29,3.44-4.93,5.12-4.93.44,0,.87.1,1.31.3l-1.65,1.8c-.25-.14-.57-.21-.96-.21-.81,0-1.67.66-2.57,1.97-.9,1.32-1.43,2.69-1.59,4.11l-.32,2.86-1.74.59.04-.35.08-.76.09-.76.61-5.58.07-.61c.05-.46.08-.84.08-1.12,0-.48-.13-.71-.4-.71-.63,0-1.25.67-1.87,2-.2-.15-.29-.3-.28-.46.02-.48.46-1.11,1.31-1.89.85-.79,1.52-1.18,2.01-1.18.67,0,1,.44,1,1.31,0,.21-.02.5-.06.86l-.08.82-.11.98-.11.96Z"/>
    <path class="cls-7" d="m223.56,315.85c-.04.14-.06.23-.07.26l-.13.62c-.1.45-.16.7-.16.75l-.47,4.29c-.08.72-.16,1.98-.25,3.79-.11,2.26-.32,3.93-.64,5.02s-.89,2.05-1.7,2.91c-1.86,1.96-3.84,2.94-5.94,2.94-1.02,0-1.86-.34-2.53-1.03s-1.01-1.54-1.01-2.58c0-2.1,1.29-4.17,3.86-6.21-.55-.43-.82-1.19-.82-2.28,0-2.36.78-4.41,2.33-6.16s3.39-2.62,5.51-2.62c.9,0,1.57.1,2.03.3Zm-2.53,6.16c-2.11,3.22-4.02,4.83-5.73,4.83-.07,0-.2,0-.38-.02-1.82,1.83-2.73,3.45-2.73,4.88,0,.97.35,1.79,1.04,2.45.69.66,1.55.99,2.58.99,1.58,0,2.79-.7,3.64-2.08.64-1.07,1.09-3.62,1.34-7.65.09-1.52.17-2.66.24-3.4Zm.52-4.69c-.56-.4-1.27-.6-2.12-.6-1.07,0-1.98.67-2.71,2.02s-1.11,3-1.11,4.96c0,1.02.3,1.52.9,1.52.69,0,1.53-.53,2.52-1.59,1.38-1.48,2.17-3.15,2.37-5.02l.15-1.29Z"/>
    <path class="cls-7" d="m232.14,322.88c.2.13.29.29.29.47,0,.24-.25.66-.75,1.24-1.34,1.55-2.66,2.32-3.96,2.32-.8,0-1.45-.32-1.97-.95s-.77-1.44-.77-2.43c0-1.78.67-3.58,2.02-5.41s2.68-2.74,4-2.74c.95,0,1.43.51,1.43,1.54,0,1.15-.56,2.27-1.67,3.36s-2.47,1.86-4.07,2.29c.16,1.88.9,2.81,2.23,2.81s2.39-.84,3.22-2.51Zm-5.4-1.73c.23.08.43.12.62.12.97,0,1.82-.3,2.54-.89s1.09-1.29,1.09-2.09c0-.91-.46-1.37-1.39-1.37-.67,0-1.28.4-1.82,1.2s-.89,1.81-1.04,3.03Z"/>
    <path class="cls-7" d="m237.76,320.32c1.73-3.29,3.44-4.93,5.12-4.93.44,0,.87.1,1.31.3l-1.65,1.8c-.25-.14-.57-.21-.96-.21-.81,0-1.67.66-2.57,1.97-.9,1.32-1.43,2.69-1.59,4.11l-.32,2.86-1.74.59.04-.35.08-.76.09-.76.61-5.58.07-.61c.05-.46.08-.84.08-1.12,0-.48-.13-.71-.4-.71-.63,0-1.25.67-1.87,2-.2-.15-.29-.3-.28-.46.02-.48.46-1.11,1.31-1.89.85-.79,1.52-1.18,2.01-1.18.67,0,1,.44,1,1.31,0,.21-.02.5-.06.86l-.08.82-.11.98-.11.96Z"/>
    <path class="cls-7" d="m251.78,327.1c-.33-.73-.79-1.29-1.37-1.66l1.73-1.65c.51.38.96.93,1.35,1.65l-1.72,1.66Zm.94-8.39c-.35-.74-.81-1.29-1.38-1.65l1.74-1.66c.51.4.95.95,1.34,1.66l-1.7,1.65Z"/>
    <path class="cls-7" d="m267.41,325.33l3.08.18-1.4,1.36-5.4-.26,1.51-1.45,1.27.14c.95-.6,1.54-1.83,1.76-3.69l.13-1.14.98-8.88c-3.55.67-5.32,2.01-5.32,4.02,0,.8.17,1.52.5,2.14l-1.89,1.66c-.16-.6-.25-1.21-.25-1.83,0-2.12.9-3.86,2.71-5.2s4.14-2.01,7.01-2.01c3.84,0,5.77,1.26,5.77,3.77,0,1.59-.72,2.96-2.15,4.09s-3.25,1.77-5.44,1.9c-.19,1.82-.43,3.01-.73,3.56-.3.55-1.02,1.1-2.14,1.63Zm3.84-13.89l-.84,7.48c.44.08.82.12,1.15.12,3,0,4.5-1.31,4.5-3.93,0-2.45-1.6-3.67-4.81-3.67Z"/>
    <path class="cls-7" d="m285.26,321.95c-.88,1.45-1.85,2.64-2.91,3.57s-1.98,1.39-2.76,1.39c-1.07,0-1.6-.86-1.6-2.59,0-2.38.78-4.43,2.34-6.17s3.4-2.61,5.54-2.61c.81,0,1.5.1,2.07.3-.04.14-.06.23-.07.26l-.14.62c-.09.43-.14.68-.15.75l-.75,5.17-.11.75c-.1.74-.15,1.24-.15,1.49,0,.34.1.5.29.5.65,0,1.32-.73,2.01-2.19.21.12.31.25.31.38,0,.27-.34.82-1.01,1.65-.91,1.12-1.76,1.69-2.54,1.69-.57,0-.86-.38-.86-1.15,0-.23.03-.56.08-.97l.12-.94.15-1.03.13-.87Zm.67-4.64c-.71-.4-1.43-.6-2.16-.6-1.09,0-2.01.67-2.76,2s-1.11,2.99-1.11,4.96c0,1.01.3,1.52.9,1.52.7,0,1.54-.53,2.52-1.59,1.33-1.43,2.13-3.11,2.42-5.03l.19-1.26Z"/>
    <path class="cls-7" d="m295.98,323.19c.21.12.31.25.31.36,0,.28-.34.84-1.02,1.66-.91,1.12-1.76,1.69-2.54,1.69-.57,0-.86-.38-.86-1.14,0-.32.12-1.3.35-2.95l.46-3.18.12-.81.09-.64c.04-.27.06-.5.06-.69,0-.39-.11-.58-.33-.58-.61,0-1.26.67-1.96,2-.15-.13-.22-.27-.22-.4,0-.48.44-1.12,1.32-1.92s1.58-1.21,2.1-1.21c.59,0,.88.41.88,1.22,0,.16-.03.48-.09.96l-.11.78c0,.06-.05.38-.13.95l-.48,3.35-.12.75c-.1.74-.15,1.24-.15,1.49,0,.34.1.5.29.5.65,0,1.33-.73,2.02-2.19Zm-2.35-9.32l.98-2.43c.88-.36,1.59-.86,2.16-1.49.08.11.12.22.12.34,0,1.05-1.09,2.24-3.26,3.57Z"/>
    <path class="cls-7" d="m300.57,326.19l-1.75.71.04-.33.09-.87.09-.82.61-5.44.07-.62c.05-.48.07-.88.07-1.17,0-.5-.13-.75-.38-.75-.59,0-1.22.66-1.89,1.99-.18-.15-.27-.28-.27-.39,0-.47.43-1.11,1.28-1.92s1.53-1.21,2.02-1.21c.67,0,1.01.43,1.01,1.29,0,.22-.02.51-.06.88l-.09.95-.1.8-.1.83c.92-1.38,1.93-2.51,3.03-3.4s2.03-1.34,2.81-1.34,1.14.53,1.14,1.58c0,.32-.04.8-.12,1.44l-.64,4.37c-.13.87-.19,1.56-.19,2.07,0,.41.11.61.33.61.54,0,1.21-.71,2-2.14.19.12.28.24.28.36,0,.51-.44,1.17-1.31,2-.87.82-1.58,1.24-2.13,1.24-.61,0-.91-.44-.91-1.31,0-.64.08-1.53.25-2.66l.41-2.84c.13-.92.2-1.65.2-2.19,0-.62-.21-.93-.64-.93-1,0-2.01.68-3.04,2.03s-1.62,2.81-1.8,4.37l-.31,2.81Z"/>
    <path class="cls-7" d="m320.61,320.36c.85-1.47,1.78-2.67,2.81-3.59,1.02-.92,1.93-1.38,2.71-1.38,1.13,0,1.69.96,1.69,2.87,0,2.35-.74,4.35-2.23,6.01-1.49,1.66-3.29,2.49-5.39,2.49-.27,0-.5-.01-.7-.04l-.95-.09c-.06,0-.2,0-.45-.02.17-.59.29-1.22.36-1.88l1.12-10.12c.27-2.43,1.17-4.5,2.7-6.22s3.23-2.57,5.11-2.57c.39,0,.77.04,1.13.13l-1.72,1.69c-.45-.13-.86-.2-1.26-.2-2.33,0-3.69,1.81-4.09,5.44l-.84,7.46Zm-.5,4.64c.73.4,1.45.6,2.17.6,1.08,0,1.95-.62,2.62-1.87.67-1.24,1.01-2.86,1.01-4.86,0-1.16-.32-1.74-.95-1.74-.7,0-1.52.53-2.47,1.58-1.28,1.43-2.03,3.1-2.25,5.03l-.14,1.26Z"/>
    <path class="cls-7" d="m333.08,320.32c1.73-3.29,3.44-4.93,5.12-4.93.44,0,.87.1,1.31.3l-1.65,1.8c-.25-.14-.57-.21-.96-.21-.81,0-1.67.66-2.57,1.97-.9,1.32-1.43,2.69-1.59,4.11l-.32,2.86-1.74.59.04-.35.08-.76.09-.76.61-5.58.07-.61c.05-.46.08-.84.08-1.12,0-.48-.13-.71-.4-.71-.63,0-1.25.67-1.87,2-.2-.15-.29-.3-.28-.46.02-.48.46-1.11,1.31-1.89.85-.79,1.52-1.18,2.01-1.18.67,0,1,.44,1,1.31,0,.21-.02.5-.06.86l-.08.82-.11.98-.11.96Z"/>
    <path class="cls-7" d="m344.93,323.19c.21.12.31.25.31.36,0,.28-.34.84-1.02,1.66-.91,1.12-1.76,1.69-2.54,1.69-.57,0-.86-.38-.86-1.14,0-.32.12-1.3.35-2.95l.46-3.18.12-.81.09-.64c.04-.27.06-.5.06-.69,0-.39-.11-.58-.33-.58-.61,0-1.26.67-1.96,2-.15-.13-.22-.27-.22-.4,0-.48.44-1.12,1.32-1.92s1.58-1.21,2.1-1.21c.59,0,.88.41.88,1.22,0,.16-.03.48-.09.96l-.11.78c0,.06-.05.38-.13.95l-.48,3.35-.12.75c-.1.74-.15,1.24-.15,1.49,0,.34.1.5.29.5.65,0,1.33-.73,2.02-2.19Zm-2.35-9.32l.98-2.43c.88-.36,1.59-.86,2.16-1.49.08.11.12.22.12.34,0,1.05-1.09,2.24-3.26,3.57Z"/>
    <path class="cls-7" d="m348.95,326.91c-1.76,0-2.64-1.16-2.64-3.49,0-1.88.69-3.68,2.06-5.42s2.8-2.61,4.28-2.61c1.78,0,2.67,1.16,2.67,3.49,0,1.88-.69,3.69-2.06,5.43s-2.81,2.6-4.31,2.6Zm1.42-1.31c.9,0,1.65-.5,2.26-1.5s.91-2.25.91-3.74c0-2.44-.76-3.66-2.27-3.66-.89,0-1.64.5-2.24,1.51s-.91,2.25-.91,3.73c0,2.44.75,3.66,2.26,3.66Z"/>
    <path class="cls-7" d="m364.8,315.69l-1.34,1.61c-.62-.26-1.22-.39-1.79-.39-1.02,0-1.83.43-2.42,1.3s-.88,2.05-.88,3.56c0,1.06.21,1.92.64,2.57s.98.97,1.67.97c1.16,0,2.08-.76,2.74-2.29.17.19.26.36.26.53,0,.65-.51,1.37-1.52,2.16s-1.94,1.19-2.78,1.19-1.48-.33-2-.98-.78-1.5-.78-2.54c0-2.02.69-3.86,2.06-5.52s2.9-2.48,4.58-2.48c.61,0,1.13.1,1.56.3Z"/>
    <path class="cls-7" d="m368.88,320.13c.91-1.38,1.92-2.51,3.02-3.4s2.04-1.34,2.82-1.34,1.14.53,1.14,1.58c0,.31-.05.79-.14,1.44l-.62,4.37c-.13.87-.19,1.56-.19,2.07,0,.41.11.61.33.61.54,0,1.2-.71,1.98-2.14.2.12.29.24.29.36,0,.51-.44,1.17-1.31,2-.87.82-1.58,1.24-2.13,1.24-.61,0-.91-.44-.91-1.31,0-.64.08-1.53.25-2.66l.41-2.84c.13-.93.2-1.67.2-2.21,0-.6-.21-.9-.64-.9-1,0-2.01.68-3.03,2.03s-1.62,2.81-1.8,4.37l-.31,2.81-1.75.71.04-.33.09-.87.09-.82,1.14-10.27c.27-2.42,1.17-4.49,2.69-6.21,1.52-1.72,3.23-2.57,5.11-2.57.39,0,.77.04,1.14.13l-1.72,1.69c-.45-.13-.87-.2-1.27-.2-2.32,0-3.68,1.81-4.09,5.44l-.81,7.24Z"/>
    <path class="cls-7" d="m385.72,322.88c.2.13.29.29.29.47,0,.24-.25.66-.75,1.24-1.34,1.55-2.66,2.32-3.96,2.32-.8,0-1.45-.32-1.97-.95s-.77-1.44-.77-2.43c0-1.78.67-3.58,2.02-5.41s2.68-2.74,4-2.74c.95,0,1.43.51,1.43,1.54,0,1.15-.56,2.27-1.67,3.36s-2.47,1.86-4.07,2.29c.16,1.88.9,2.81,2.23,2.81s2.39-.84,3.22-2.51Zm-5.4-1.73c.23.08.43.12.62.12.97,0,1.82-.3,2.54-.89s1.09-1.29,1.09-2.09c0-.91-.46-1.37-1.39-1.37-.67,0-1.28.4-1.82,1.2s-.89,1.81-1.04,3.03Zm2.55-7.27l1.32-2.43c1.31-.55,2.32-1.16,3.04-1.82.16.25.23.46.23.62,0,.8-1.53,2.01-4.59,3.62Z"/>
    <path class="cls-7" d="m387.24,330.85l-.29-.33c1.2-.87,1.79-1.82,1.79-2.85,0-.86-.47-1.6-1.42-2.21l1.65-1.64c.95.71,1.43,1.55,1.43,2.53,0,1.39-1.05,2.89-3.16,4.5Z"/>
    <path class="cls-7" d="m404.45,324.31c2.18-3.05,3.27-5.17,3.27-6.37,0-.45-.23-.8-.68-1.05l1.46-1.5c.57.29.86.75.86,1.38,0,.78-.75,2.3-2.24,4.56-.33.48-.56.84-.69,1.05l-.29.5-.54.86c-.3.47-.61,1-.94,1.58l-1.63,1.58c-.3-2.52-.78-4.8-1.45-6.85-.67-2.05-1.27-3.07-1.8-3.07-.59,0-1.01.59-1.24,1.78-.23-.08-.34-.21-.34-.39,0-.59.26-1.23.77-1.92.51-.69.99-1.04,1.45-1.07,1.69-.08,3.04,2.89,4.04,8.92Z"/>
    <path class="cls-7" d="m415.64,323.19c.21.12.31.25.31.36,0,.28-.34.84-1.02,1.66-.91,1.12-1.76,1.69-2.54,1.69-.57,0-.86-.38-.86-1.14,0-.32.12-1.3.35-2.95l.46-3.18.12-.81.09-.64c.04-.27.06-.5.06-.69,0-.39-.11-.58-.33-.58-.61,0-1.26.67-1.96,2-.15-.13-.22-.27-.22-.4,0-.48.44-1.12,1.32-1.92s1.58-1.21,2.1-1.21c.59,0,.88.41.88,1.22,0,.16-.03.48-.09.96l-.11.78c0,.06-.05.38-.13.95l-.48,3.35-.12.75c-.1.74-.15,1.24-.15,1.49,0,.34.1.5.29.5.65,0,1.33-.73,2.02-2.19Zm-2.35-9.32l.98-2.43c.88-.36,1.59-.86,2.16-1.49.08.11.12.22.12.34,0,1.05-1.09,2.24-3.26,3.57Z"/>
    <path class="cls-7" d="m424.34,321.95c-.88,1.45-1.85,2.64-2.91,3.57s-1.98,1.39-2.76,1.39c-1.07,0-1.6-.86-1.6-2.59,0-2.38.78-4.43,2.34-6.17s3.4-2.61,5.54-2.61c.81,0,1.5.1,2.07.3-.04.14-.06.23-.07.26l-.14.62c-.09.43-.14.68-.15.75l-.75,5.17-.11.75c-.1.74-.15,1.24-.15,1.49,0,.34.1.5.29.5.65,0,1.32-.73,2.01-2.19.21.12.31.25.31.38,0,.27-.34.82-1.01,1.65-.91,1.12-1.76,1.69-2.54,1.69-.57,0-.86-.38-.86-1.15,0-.23.03-.56.08-.97l.12-.94.15-1.03.13-.87Zm.67-4.64c-.71-.4-1.43-.6-2.16-.6-1.09,0-2.01.67-2.76,2s-1.11,2.99-1.11,4.96c0,1.01.3,1.52.9,1.52.7,0,1.54-.53,2.52-1.59,1.33-1.43,2.13-3.11,2.42-5.03l.19-1.26Z"/>
    <path class="cls-7" d="m432.55,326.19l-1.75.71.04-.33.09-.87.09-.82.61-5.44.07-.62c.05-.48.07-.88.07-1.17,0-.5-.13-.75-.38-.75-.59,0-1.22.66-1.89,1.99-.18-.15-.27-.28-.27-.39,0-.47.43-1.11,1.28-1.92s1.53-1.21,2.02-1.21c.67,0,1.01.43,1.01,1.29,0,.22-.02.51-.06.88l-.09.95-.1.8-.1.83c.92-1.38,1.93-2.51,3.03-3.4s2.03-1.34,2.81-1.34,1.14.53,1.14,1.58c0,.32-.04.8-.12,1.44l-.64,4.37c-.13.87-.19,1.56-.19,2.07,0,.41.11.61.33.61.54,0,1.21-.71,2-2.14.19.12.28.24.28.36,0,.51-.44,1.17-1.31,2-.87.82-1.58,1.24-2.13,1.24-.61,0-.91-.44-.91-1.31,0-.64.08-1.53.25-2.66l.41-2.84c.13-.92.2-1.65.2-2.19,0-.62-.21-.93-.64-.93-1,0-2.01.68-3.04,2.03s-1.62,2.81-1.8,4.37l-.31,2.81Z"/>
    <path class="cls-7" d="m450.75,315.56l.11-1.01c.28-2.5,1.14-4.58,2.56-6.23s3.07-2.48,4.93-2.48c.45,0,.83.04,1.15.12l-1.67,1.7c-.37-.12-.8-.19-1.3-.19-1.17,0-2.05.41-2.63,1.23s-.98,2.22-1.2,4.19l-1.08,9.77-.08.74c-.07.66-.11,1.14-.11,1.42,0,.38.1.57.3.57.65,0,1.3-.73,1.95-2.19.21.12.32.25.32.38,0,.28-.32.83-.95,1.65-.88,1.12-1.71,1.69-2.49,1.69-.6,0-.9-.41-.9-1.24,0-.3.05-.91.14-1.82l.12-1.03.08-.87c-.53,1.17-1.39,2.29-2.58,3.36-1.19,1.07-2.17,1.6-2.94,1.6-1.1,0-1.65-.86-1.65-2.59,0-2.26.76-4.29,2.28-6.08s3.24-2.7,5.15-2.7c.09,0,.25,0,.46.02Zm-.19,1.69c-.66-.36-1.26-.54-1.81-.54-1.16,0-2.11.66-2.86,1.97-.75,1.31-1.13,2.98-1.13,5,0,1.01.3,1.52.89,1.52.72,0,1.56-.53,2.53-1.59,1.26-1.37,2-3.04,2.23-5.03l.15-1.32Z"/>
    <path class="cls-7" d="m462.36,322.88c.2.13.29.29.29.47,0,.24-.25.66-.75,1.24-1.34,1.55-2.66,2.32-3.96,2.32-.8,0-1.45-.32-1.97-.95s-.77-1.44-.77-2.43c0-1.78.67-3.58,2.02-5.41s2.68-2.74,4-2.74c.95,0,1.43.51,1.43,1.54,0,1.15-.56,2.27-1.67,3.36s-2.47,1.86-4.07,2.29c.16,1.88.9,2.81,2.23,2.81s2.39-.84,3.22-2.51Zm-5.4-1.73c.23.08.43.12.62.12.97,0,1.82-.3,2.54-.89s1.09-1.29,1.09-2.09c0-.91-.46-1.37-1.39-1.37-.67,0-1.28.4-1.82,1.2s-.89,1.81-1.04,3.03Z"/>
    <path class="cls-7" d="m473.88,320.13c.91-1.38,1.92-2.51,3.02-3.4s2.04-1.34,2.82-1.34,1.14.53,1.14,1.58c0,.31-.05.79-.14,1.44l-.62,4.37c-.13.87-.19,1.56-.19,2.07,0,.41.11.61.33.61.54,0,1.2-.71,1.98-2.14.2.12.29.24.29.36,0,.51-.44,1.17-1.31,2-.87.82-1.58,1.24-2.13,1.24-.61,0-.91-.44-.91-1.31,0-.64.08-1.53.25-2.66l.41-2.84c.13-.93.2-1.67.2-2.21,0-.6-.21-.9-.64-.9-1,0-2.01.68-3.03,2.03s-1.62,2.81-1.8,4.37l-.31,2.81-1.75.71.04-.33.09-.87.09-.82,1.14-10.27c.27-2.42,1.17-4.49,2.69-6.21,1.52-1.72,3.23-2.57,5.11-2.57.39,0,.77.04,1.14.13l-1.72,1.69c-.45-.13-.87-.2-1.27-.2-2.32,0-3.68,1.81-4.09,5.44l-.81,7.24Z"/>
    <path class="cls-7" d="m490.88,321.95c-.88,1.45-1.85,2.64-2.91,3.57s-1.98,1.39-2.76,1.39c-1.07,0-1.6-.86-1.6-2.59,0-2.38.78-4.43,2.34-6.17s3.4-2.61,5.54-2.61c.81,0,1.5.1,2.07.3-.04.14-.06.23-.07.26l-.14.62c-.09.43-.14.68-.15.75l-.75,5.17-.11.75c-.1.74-.15,1.24-.15,1.49,0,.34.1.5.29.5.65,0,1.32-.73,2.01-2.19.21.12.31.25.31.38,0,.27-.34.82-1.01,1.65-.91,1.12-1.76,1.69-2.54,1.69-.57,0-.86-.38-.86-1.15,0-.23.03-.56.08-.97l.12-.94.15-1.03.13-.87Zm.67-4.64c-.71-.4-1.43-.6-2.16-.6-1.09,0-2.01.67-2.76,2s-1.11,2.99-1.11,4.96c0,1.01.3,1.52.9,1.52.7,0,1.54-.53,2.52-1.59,1.33-1.43,2.13-3.11,2.42-5.03l.19-1.26Z"/>
    <path class="cls-7" d="m504.08,315.69l-1.34,1.61c-.62-.26-1.22-.39-1.79-.39-1.02,0-1.83.43-2.42,1.3s-.88,2.05-.88,3.56c0,1.06.21,1.92.64,2.57s.98.97,1.67.97c1.16,0,2.08-.76,2.74-2.29.17.19.26.36.26.53,0,.65-.51,1.37-1.52,2.16s-1.94,1.19-2.78,1.19-1.48-.33-2-.98c-.52-.65-.78-1.5-.78-2.54,0-2.02.69-3.86,2.06-5.52s2.9-2.48,4.58-2.48c.61,0,1.13.1,1.56.3Z"/>
    <path class="cls-7" d="m508.16,320.13c.91-1.38,1.92-2.51,3.02-3.4s2.04-1.34,2.82-1.34,1.14.53,1.14,1.58c0,.31-.04.79-.14,1.44l-.62,4.37c-.13.87-.19,1.56-.19,2.07,0,.41.11.61.33.61.54,0,1.2-.71,1.98-2.14.2.12.29.24.29.36,0,.51-.44,1.17-1.31,2s-1.58,1.24-2.13,1.24c-.61,0-.92-.44-.92-1.31,0-.64.08-1.53.25-2.66l.41-2.84c.13-.93.2-1.67.2-2.21,0-.6-.21-.9-.64-.9-1,0-2.01.68-3.03,2.03-1.02,1.36-1.62,2.81-1.8,4.37l-.31,2.81-1.75.71.04-.33.09-.87.09-.82,1.14-10.27c.27-2.42,1.17-4.49,2.69-6.21,1.52-1.72,3.23-2.57,5.11-2.57.39,0,.77.04,1.14.13l-1.72,1.69c-.45-.13-.87-.2-1.27-.2-2.32,0-3.68,1.81-4.09,5.44l-.81,7.24Z"/>
    <path class="cls-7" d="m525,322.88c.2.13.29.29.29.47,0,.24-.25.66-.75,1.24-1.34,1.55-2.66,2.32-3.96,2.32-.8,0-1.45-.32-1.97-.95s-.77-1.44-.77-2.43c0-1.78.67-3.58,2.02-5.41s2.68-2.74,4-2.74c.95,0,1.43.51,1.43,1.54,0,1.15-.56,2.27-1.67,3.36s-2.47,1.86-4.07,2.29c.16,1.88.9,2.81,2.23,2.81s2.39-.84,3.22-2.51Zm-5.4-1.73c.23.08.43.12.62.12.97,0,1.82-.3,2.54-.89s1.09-1.29,1.09-2.09c0-.91-.46-1.37-1.39-1.37-.67,0-1.28.4-1.82,1.2s-.89,1.81-1.04,3.03Zm2.55-7.27l1.32-2.43c1.31-.55,2.32-1.16,3.04-1.82.16.25.23.46.23.62,0,.8-1.53,2.01-4.59,3.62Z"/>
    <path class="cls-7" d="m541.29,315.56l.11-1.01c.28-2.5,1.14-4.58,2.56-6.23s3.07-2.48,4.93-2.48c.45,0,.83.04,1.15.12l-1.67,1.7c-.37-.12-.8-.19-1.3-.19-1.17,0-2.05.41-2.63,1.23-.58.82-.98,2.22-1.2,4.19l-1.08,9.77-.08.74c-.07.66-.11,1.14-.11,1.42,0,.38.1.57.3.57.65,0,1.3-.73,1.95-2.19.21.12.32.25.32.38,0,.28-.32.83-.95,1.65-.88,1.12-1.71,1.69-2.49,1.69-.6,0-.9-.41-.9-1.24,0-.3.05-.91.14-1.82l.12-1.03.08-.87c-.53,1.17-1.39,2.29-2.58,3.36s-2.17,1.6-2.94,1.6c-1.1,0-1.65-.86-1.65-2.59,0-2.26.76-4.29,2.28-6.08s3.24-2.7,5.15-2.7c.09,0,.25,0,.46.02Zm-.19,1.69c-.66-.36-1.26-.54-1.81-.54-1.16,0-2.11.66-2.86,1.97-.75,1.31-1.13,2.98-1.13,5,0,1.01.3,1.52.89,1.52.72,0,1.56-.53,2.53-1.59,1.26-1.37,2-3.04,2.23-5.03l.15-1.32Z"/>
    <path class="cls-7" d="m552.9,322.88c.2.13.29.29.29.47,0,.24-.25.66-.75,1.24-1.34,1.55-2.66,2.32-3.96,2.32-.8,0-1.45-.32-1.97-.95s-.77-1.44-.77-2.43c0-1.78.67-3.58,2.02-5.41s2.68-2.74,4-2.74c.95,0,1.43.51,1.43,1.54,0,1.15-.56,2.27-1.67,3.36s-2.47,1.86-4.07,2.29c.16,1.88.9,2.81,2.23,2.81s2.39-.84,3.22-2.51Zm-5.4-1.73c.23.08.43.12.62.12.97,0,1.82-.3,2.54-.89s1.09-1.29,1.09-2.09c0-.91-.46-1.37-1.39-1.37-.67,0-1.28.4-1.82,1.2s-.89,1.81-1.04,3.03Z"/>
    <path class="cls-7" d="m561.15,326.6l1.45-1.43c2.12-.51,3.83-1.37,5.14-2.58,1.31-1.21,1.97-2.54,1.97-3.98,0-.83-.31-1.53-.93-2.07s-1.4-.82-2.34-.82c-1.14,0-2.24.42-3.3,1.25-.07-.16-.11-.27-.11-.32,0-.41.61-.88,1.84-1.4s2.32-.78,3.29-.78,1.8.3,2.53.91,1.09,1.32,1.09,2.12c0,1.09-.66,2.38-1.97,3.87s-2.92,2.75-4.82,3.79l6.87.35-1.37,1.38-9.34-.3Z"/>
    <path class="cls-7" d="m575.2,323.05c0-2.16.74-4.12,2.23-5.9s3.12-2.67,4.92-2.67c.95,0,1.72.37,2.31,1.11s.88,1.71.88,2.91c0,2.07-.75,3.99-2.26,5.75s-3.14,2.65-4.9,2.65c-.92,0-1.68-.36-2.28-1.09s-.9-1.65-.9-2.77Zm8.54-3.14c0-1.26-.28-2.28-.84-3.05s-1.3-1.17-2.2-1.17c-1.02,0-1.9.56-2.62,1.68s-1.08,2.47-1.08,4.06c0,1.28.28,2.31.84,3.09s1.29,1.17,2.21,1.17c1.02,0,1.9-.56,2.62-1.69s1.08-2.49,1.08-4.09Z"/>
    <path class="cls-7" d="m587.58,323.05c0-2.16.74-4.12,2.23-5.9s3.12-2.67,4.92-2.67c.95,0,1.72.37,2.31,1.11s.88,1.71.88,2.91c0,2.07-.75,3.99-2.26,5.75s-3.14,2.65-4.9,2.65c-.92,0-1.68-.36-2.28-1.09s-.9-1.65-.9-2.77Zm8.54-3.14c0-1.26-.28-2.28-.84-3.05s-1.3-1.17-2.2-1.17c-1.02,0-1.9.56-2.62,1.68s-1.08,2.47-1.08,4.06c0,1.28.28,2.31.84,3.09s1.29,1.17,2.21,1.17c1.02,0,1.9-.56,2.62-1.69s1.08-2.49,1.08-4.09Z"/>
    <path class="cls-7" d="m609.26,315.85c-.04.14-.06.23-.07.26l-.13.62c-.1.45-.16.7-.16.75l-.47,4.29c-.08.72-.16,1.98-.25,3.79-.11,2.26-.32,3.93-.64,5.02s-.89,2.05-1.7,2.91c-1.86,1.96-3.84,2.94-5.94,2.94-1.02,0-1.86-.34-2.53-1.03s-1.01-1.54-1.01-2.58c0-2.1,1.29-4.17,3.86-6.21-.55-.43-.82-1.19-.82-2.28,0-2.36.78-4.41,2.33-6.16s3.39-2.62,5.51-2.62c.9,0,1.57.1,2.03.3Zm-2.53,6.16c-2.11,3.22-4.02,4.83-5.73,4.83-.07,0-.2,0-.38-.02-1.82,1.83-2.73,3.45-2.73,4.88,0,.97.35,1.79,1.04,2.45.69.66,1.55.99,2.58.99,1.58,0,2.79-.7,3.64-2.08.64-1.07,1.09-3.62,1.34-7.65.09-1.52.17-2.66.24-3.4Zm.52-4.69c-.56-.4-1.27-.6-2.12-.6-1.07,0-1.98.67-2.71,2.02-.74,1.34-1.11,3-1.11,4.96,0,1.02.3,1.52.9,1.52.69,0,1.53-.53,2.52-1.59,1.38-1.48,2.17-3.15,2.37-5.02l.15-1.29Z"/>
    <path class="cls-7" d="m610.44,330.85l-.29-.33c1.2-.87,1.79-1.82,1.79-2.85,0-.86-.47-1.6-1.42-2.21l1.65-1.64c.95.71,1.43,1.55,1.43,2.53,0,1.39-1.05,2.89-3.16,4.5Z"/>
    <path class="cls-7" d="m244.56,355.08l1.62-1.32c.61.65,1.38.97,2.3.97,1.13,0,1.69-.54,1.69-1.63,0-.6-.52-1.44-1.55-2.52l-.67-.69c-.98-1.02-1.47-1.85-1.47-2.48,0-.91.39-1.67,1.18-2.29s1.75-.93,2.9-.93c.62,0,1.31.12,2.05.35l-1.41,1.3c-.59-.45-1.25-.67-1.98-.67-.85,0-1.28.36-1.28,1.07,0,.51.47,1.25,1.42,2.24l.73.77c1.08,1.12,1.62,2.03,1.62,2.72,0,.98-.47,1.85-1.42,2.61s-2.04,1.13-3.27,1.13c-.88,0-1.7-.21-2.46-.63Z"/>
    <path class="cls-7" d="m261.11,350.75c-.88,1.45-1.85,2.64-2.91,3.57s-1.98,1.39-2.76,1.39c-1.07,0-1.6-.86-1.6-2.59,0-2.38.78-4.43,2.34-6.17s3.4-2.61,5.54-2.61c.81,0,1.5.1,2.07.3-.04.14-.06.23-.07.26l-.14.62c-.09.43-.14.68-.15.75l-.75,5.17-.11.75c-.1.74-.15,1.24-.15,1.49,0,.34.1.5.29.5.65,0,1.32-.73,2.01-2.19.21.12.31.25.31.38,0,.27-.34.82-1.01,1.65-.91,1.12-1.76,1.69-2.54,1.69-.57,0-.86-.38-.86-1.15,0-.23.03-.56.08-.97l.12-.94.15-1.03.13-.87Zm.67-4.64c-.71-.4-1.43-.6-2.16-.6-1.09,0-2.01.67-2.76,2s-1.11,2.99-1.11,4.96c0,1.01.3,1.52.9,1.52.7,0,1.54-.53,2.52-1.59,1.33-1.43,2.13-3.11,2.42-5.03l.19-1.26Z"/>
    <path class="cls-7" d="m270.9,351.96c.23.11.34.25.34.42,0,.56-.42,1.26-1.26,2.09s-1.54,1.24-2.12,1.24c-.65,0-.97-.47-.97-1.41,0-.57.04-1.15.11-1.75l.13-1.04.9-8.16c.28-2.48,1.13-4.56,2.56-6.22,1.43-1.66,3.07-2.5,4.93-2.5.45,0,.84.04,1.15.12l-1.66,1.7c-.37-.12-.8-.19-1.29-.19-1.17,0-2.05.41-2.63,1.24-.58.82-.98,2.22-1.2,4.19l-1.09,9.81c-.09.76-.13,1.3-.13,1.63,0,.7.12,1.05.36,1.05.29,0,.63-.23,1.01-.69.39-.46.67-.97.85-1.53Z"/>
    <path class="cls-7" d="m279.82,350.75c-.88,1.45-1.85,2.64-2.91,3.57s-1.98,1.39-2.76,1.39c-1.07,0-1.6-.86-1.6-2.59,0-2.38.78-4.43,2.34-6.17s3.4-2.61,5.54-2.61c.81,0,1.5.1,2.07.3-.04.14-.06.23-.07.26l-.14.62c-.09.43-.14.68-.15.75l-.75,5.17-.11.75c-.1.74-.15,1.24-.15,1.49,0,.34.1.5.29.5.65,0,1.32-.73,2.01-2.19.21.12.31.25.31.38,0,.27-.34.82-1.01,1.65-.91,1.12-1.76,1.69-2.54,1.69-.57,0-.86-.38-.86-1.15,0-.23.03-.56.08-.97l.12-.94.15-1.03.13-.87Zm.67-4.64c-.71-.4-1.43-.6-2.16-.6-1.09,0-2.01.67-2.76,2s-1.11,2.99-1.11,4.96c0,1.01.3,1.52.9,1.52.7,0,1.54-.53,2.52-1.59,1.33-1.43,2.13-3.11,2.42-5.03l.19-1.26Z"/>
    <path class="cls-7" d="m292.69,344.36l.11-1.01c.28-2.5,1.14-4.58,2.56-6.23s3.07-2.48,4.93-2.48c.45,0,.83.04,1.15.12l-1.67,1.7c-.37-.12-.8-.19-1.3-.19-1.17,0-2.05.41-2.63,1.23s-.98,2.22-1.2,4.19l-1.08,9.77-.08.74c-.07.66-.11,1.14-.11,1.42,0,.38.1.57.3.57.65,0,1.3-.73,1.95-2.19.21.12.32.25.32.38,0,.28-.32.83-.95,1.65-.88,1.12-1.71,1.69-2.49,1.69-.6,0-.9-.41-.9-1.24,0-.3.05-.91.14-1.82l.12-1.03.08-.87c-.53,1.17-1.39,2.29-2.58,3.36-1.19,1.07-2.17,1.6-2.94,1.6-1.1,0-1.65-.86-1.65-2.59,0-2.26.76-4.29,2.28-6.08s3.24-2.7,5.15-2.7c.09,0,.25,0,.46.02Zm-.19,1.69c-.66-.36-1.26-.54-1.81-.54-1.16,0-2.11.66-2.86,1.97-.75,1.31-1.13,2.98-1.13,5,0,1.01.3,1.52.89,1.52.72,0,1.56-.53,2.53-1.59,1.26-1.37,2-3.04,2.23-5.03l.15-1.32Z"/>
    <path class="cls-7" d="m304.3,351.68c.2.13.29.29.29.47,0,.24-.25.66-.75,1.24-1.34,1.55-2.66,2.32-3.96,2.32-.8,0-1.45-.32-1.97-.95s-.77-1.44-.77-2.43c0-1.78.67-3.58,2.02-5.41s2.68-2.74,4-2.74c.95,0,1.43.51,1.43,1.54,0,1.15-.56,2.27-1.67,3.36s-2.47,1.86-4.07,2.29c.16,1.88.9,2.81,2.23,2.81s2.39-.84,3.22-2.51Zm-5.4-1.73c.23.08.43.12.62.12.97,0,1.82-.3,2.54-.89s1.09-1.29,1.09-2.09c0-.91-.46-1.37-1.39-1.37-.67,0-1.28.4-1.82,1.2s-.89,1.81-1.04,3.03Z"/>
    <path class="cls-7" d="m305.82,359.65l-.29-.33c1.2-.87,1.79-1.82,1.79-2.85,0-.86-.47-1.6-1.42-2.21l1.65-1.64c.95.71,1.43,1.55,1.43,2.53,0,1.39-1.05,2.89-3.16,4.5Z"/>
    <path class="cls-7" d="m320.32,355.71c-1.76,0-2.64-1.16-2.64-3.49,0-1.88.69-3.68,2.06-5.42s2.8-2.61,4.28-2.61c1.78,0,2.67,1.16,2.67,3.49,0,1.88-.69,3.69-2.06,5.43s-2.81,2.6-4.31,2.6Zm1.42-1.31c.9,0,1.65-.5,2.26-1.5s.91-2.25.91-3.74c0-2.44-.76-3.66-2.27-3.66-.89,0-1.64.5-2.24,1.51s-.91,2.25-.91,3.73c0,2.44.75,3.66,2.26,3.66Z"/>
    <path class="cls-7" d="m333.69,351.99c.21.12.31.25.31.36,0,.28-.34.84-1.02,1.66-.91,1.12-1.76,1.69-2.54,1.69-.57,0-.86-.38-.86-1.14,0-.32.12-1.3.35-2.95l.46-3.18.12-.81.09-.64c.04-.27.06-.5.06-.69,0-.39-.11-.58-.33-.58-.61,0-1.26.67-1.96,2-.15-.13-.22-.27-.22-.4,0-.48.44-1.12,1.32-1.92s1.58-1.21,2.1-1.21c.59,0,.88.41.88,1.22,0,.16-.03.48-.09.96l-.11.78c0,.06-.05.38-.13.95l-.48,3.35-.12.75c-.1.74-.15,1.24-.15,1.49,0,.34.1.5.29.5.65,0,1.33-.73,2.02-2.19Zm-2.35-9.32l.98-2.43c.88-.36,1.59-.86,2.16-1.49.08.11.12.22.12.34,0,1.05-1.09,2.24-3.26,3.57Z"/>
    <path class="cls-7" d="m344.85,344.65c-.04.14-.06.23-.07.26l-.13.62c-.1.45-.16.7-.16.75l-.47,4.29c-.08.72-.16,1.98-.25,3.79-.11,2.26-.32,3.93-.64,5.02s-.89,2.05-1.7,2.91c-1.86,1.96-3.84,2.94-5.94,2.94-1.02,0-1.86-.34-2.53-1.03s-1.01-1.54-1.01-2.58c0-2.1,1.29-4.17,3.86-6.21-.55-.43-.82-1.19-.82-2.28,0-2.36.78-4.41,2.33-6.16s3.39-2.62,5.51-2.62c.9,0,1.57.1,2.03.3Zm-2.53,6.16c-2.11,3.22-4.02,4.83-5.73,4.83-.07,0-.2,0-.38-.02-1.82,1.83-2.73,3.45-2.73,4.88,0,.97.35,1.79,1.04,2.45.69.66,1.55.99,2.58.99,1.58,0,2.79-.7,3.64-2.08.64-1.07,1.09-3.62,1.34-7.65.09-1.52.17-2.66.24-3.4Zm.52-4.69c-.56-.4-1.27-.6-2.12-.6-1.07,0-1.98.67-2.71,2.02s-1.11,3-1.11,4.96c0,1.02.3,1.52.9,1.52.69,0,1.53-.53,2.52-1.59,1.38-1.48,2.17-3.15,2.37-5.02l.15-1.29Z"/>
    <path class="cls-7" d="m349.47,354.99l-1.75.71.04-.33.09-.87.09-.82.61-5.44.07-.62c.05-.48.07-.88.07-1.17,0-.5-.13-.75-.38-.75-.59,0-1.22.66-1.89,1.99-.18-.15-.27-.28-.27-.39,0-.47.43-1.11,1.28-1.92s1.53-1.21,2.02-1.21c.67,0,1.01.43,1.01,1.29,0,.22-.02.51-.06.88l-.09.95-.1.8-.1.83c.92-1.38,1.93-2.51,3.03-3.4s2.03-1.34,2.81-1.34,1.14.53,1.14,1.58c0,.32-.04.8-.12,1.44l-.64,4.37c-.13.87-.19,1.56-.19,2.07,0,.41.11.61.33.61.54,0,1.21-.71,2-2.14.19.12.28.24.28.36,0,.51-.44,1.17-1.31,2-.87.82-1.58,1.24-2.13,1.24-.61,0-.91-.44-.91-1.31,0-.64.08-1.53.25-2.66l.41-2.84c.13-.92.2-1.65.2-2.19,0-.62-.21-.93-.64-.93-1,0-2.01.68-3.04,2.03s-1.62,2.81-1.8,4.37l-.31,2.81Z"/>
    <path class="cls-7" d="m362.45,355.71c-1.76,0-2.64-1.16-2.64-3.49,0-1.88.69-3.68,2.06-5.42s2.8-2.61,4.28-2.61c1.78,0,2.67,1.16,2.67,3.49,0,1.88-.69,3.69-2.06,5.43s-2.81,2.6-4.31,2.6Zm1.42-1.31c.9,0,1.65-.5,2.26-1.5s.91-2.25.91-3.74c0-2.44-.76-3.66-2.27-3.66-.89,0-1.64.5-2.24,1.51s-.91,2.25-.91,3.73c0,2.44.75,3.66,2.26,3.66Z"/>
    <path class="cls-7" d="m373.31,354.99l-1.75.71.04-.33.09-.87.09-.82.61-5.44.07-.62c.05-.48.07-.88.07-1.17,0-.5-.13-.75-.38-.75-.59,0-1.22.66-1.89,1.99-.18-.15-.27-.28-.27-.39,0-.47.43-1.11,1.28-1.92s1.53-1.21,2.02-1.21c.67,0,1.01.43,1.01,1.29,0,.22-.02.51-.06.88l-.09.95-.1.8-.1.83c.92-1.38,1.93-2.51,3.03-3.4s2.03-1.34,2.81-1.34,1.14.53,1.14,1.58c0,.32-.04.8-.12,1.44l-.64,4.37c-.13.87-.19,1.56-.19,2.07,0,.41.11.61.33.61.54,0,1.21-.71,2-2.14.19.12.28.24.28.36,0,.51-.44,1.17-1.31,2-.87.82-1.58,1.24-2.13,1.24-.61,0-.91-.44-.91-1.31,0-.64.08-1.53.25-2.66l.41-2.84c.13-.92.2-1.65.2-2.19,0-.62-.21-.93-.64-.93-1,0-2.01.68-3.04,2.03s-1.62,2.81-1.8,4.37l-.31,2.81Z"/>
    <path class="cls-7" d="m382.94,355.08l1.62-1.32c.61.65,1.38.97,2.3.97,1.13,0,1.69-.54,1.69-1.63,0-.6-.52-1.44-1.55-2.52l-.67-.69c-.98-1.02-1.47-1.85-1.47-2.48,0-.91.39-1.67,1.18-2.29s1.75-.93,2.9-.93c.62,0,1.31.12,2.05.35l-1.41,1.3c-.59-.45-1.25-.67-1.98-.67-.85,0-1.28.36-1.28,1.07,0,.51.47,1.25,1.42,2.24l.73.77c1.08,1.12,1.62,2.03,1.62,2.72,0,.98-.47,1.85-1.42,2.61s-2.04,1.13-3.27,1.13c-.88,0-1.7-.21-2.46-.63Z"/>
    <path class="cls-7" d="m391.94,359.65l-.29-.33c1.2-.87,1.79-1.82,1.79-2.85,0-.86-.47-1.6-1.42-2.21l1.65-1.64c.95.71,1.43,1.55,1.43,2.53,0,1.39-1.05,2.89-3.16,4.5Z"/>
    <path class="cls-7" d="m403.1,355.08l1.62-1.32c.61.65,1.38.97,2.3.97,1.13,0,1.69-.54,1.69-1.63,0-.6-.52-1.44-1.55-2.52l-.67-.69c-.98-1.02-1.47-1.85-1.47-2.48,0-.91.39-1.67,1.18-2.29s1.75-.93,2.9-.93c.62,0,1.31.12,2.05.35l-1.41,1.3c-.59-.45-1.25-.67-1.98-.67-.85,0-1.28.36-1.28,1.07,0,.51.47,1.25,1.42,2.24l.73.77c1.08,1.12,1.62,2.03,1.62,2.72,0,.98-.47,1.85-1.42,2.61s-2.04,1.13-3.27,1.13c-.88,0-1.7-.21-2.46-.63Z"/>
    <path class="cls-7" d="m419.65,350.75c-.88,1.45-1.85,2.64-2.91,3.57s-1.98,1.39-2.76,1.39c-1.07,0-1.6-.86-1.6-2.59,0-2.38.78-4.43,2.34-6.17s3.4-2.61,5.54-2.61c.81,0,1.5.1,2.07.3-.04.14-.06.23-.07.26l-.14.62c-.09.43-.14.68-.15.75l-.75,5.17-.11.75c-.1.74-.15,1.24-.15,1.49,0,.34.1.5.29.5.65,0,1.32-.73,2.01-2.19.21.12.31.25.31.38,0,.27-.34.82-1.01,1.65-.91,1.12-1.76,1.69-2.54,1.69-.57,0-.86-.38-.86-1.15,0-.23.03-.56.08-.97l.12-.94.15-1.03.13-.87Zm.67-4.64c-.71-.4-1.43-.6-2.16-.6-1.09,0-2.01.67-2.76,2s-1.11,2.99-1.11,4.96c0,1.01.3,1.52.9,1.52.7,0,1.54-.53,2.52-1.59,1.33-1.43,2.13-3.11,2.42-5.03l.19-1.26Z"/>
    <path class="cls-7" d="m433.18,350.8c-.89,1.37-1.9,2.53-3.02,3.48-1.12.95-2.03,1.43-2.73,1.43-.77,0-1.16-.51-1.16-1.54,0-.38.05-1.01.15-1.88l.42-3.84c0-.05.03-.28.06-.68l.07-.76c.02-.23.04-.43.04-.61,0-.45-.13-.68-.39-.68-.59,0-1.23.66-1.92,1.99-.15-.12-.22-.24-.22-.38,0-.48.43-1.13,1.3-1.93s1.55-1.21,2.06-1.21c.65,0,.97.45.97,1.34,0,.21-.02.46-.05.74l-.11.9-.1.98-.37,3.35c-.06.57-.09,1.15-.09,1.73,0,.54.2.81.6.81.88,0,1.88-.73,2.98-2.18s1.77-2.89,1.97-4.31l.41-2.78,1.9-.64c-.22.91-.38,1.71-.49,2.42l-.71,4.89c-.04.3-.07.55-.09.75l-.08.64c-.05.4-.07.68-.07.84,0,.34.09.5.28.5.66,0,1.34-.73,2.03-2.19.21.12.32.25.32.38,0,.27-.34.82-1.02,1.65-.91,1.12-1.76,1.69-2.54,1.69-.57,0-.86-.38-.86-1.15,0-.24.03-.57.08-.97l.13-.94c.07-.51.12-.85.14-1.03l.12-.82Z"/>
    <path class="cls-7" d="m446.31,344.49l-1.34,1.61c-.62-.26-1.22-.39-1.79-.39-1.02,0-1.83.43-2.42,1.3s-.88,2.05-.88,3.56c0,1.06.21,1.92.64,2.57s.98.97,1.67.97c1.16,0,2.08-.76,2.74-2.29.17.19.26.36.26.53,0,.65-.51,1.37-1.52,2.16s-1.94,1.19-2.78,1.19-1.48-.33-2-.98-.78-1.5-.78-2.54c0-2.02.69-3.86,2.06-5.52s2.9-2.48,4.58-2.48c.61,0,1.13.1,1.56.3Z"/>
    <path class="cls-7" d="m454.45,351.68c.2.13.29.29.29.47,0,.24-.25.66-.75,1.24-1.34,1.55-2.66,2.32-3.96,2.32-.8,0-1.45-.32-1.97-.95s-.77-1.44-.77-2.43c0-1.78.67-3.58,2.02-5.41s2.68-2.74,4-2.74c.95,0,1.43.51,1.43,1.54,0,1.15-.56,2.27-1.67,3.36s-2.47,1.86-4.07,2.29c.16,1.88.9,2.81,2.23,2.81s2.39-.84,3.22-2.51Zm-5.4-1.73c.23.08.43.12.62.12.97,0,1.82-.3,2.54-.89s1.09-1.29,1.09-2.09c0-.91-.46-1.37-1.39-1.37-.67,0-1.28.4-1.82,1.2s-.89,1.81-1.04,3.03Z"/>
    <path class="cls-7" d="m462.17,355.08l1.62-1.32c.61.65,1.38.97,2.3.97,1.13,0,1.69-.54,1.69-1.63,0-.6-.52-1.44-1.55-2.52l-.67-.69c-.98-1.02-1.47-1.85-1.47-2.48,0-.91.39-1.67,1.18-2.29s1.75-.93,2.9-.93c.62,0,1.31.12,2.05.35l-1.41,1.3c-.59-.45-1.25-.67-1.98-.67-.85,0-1.28.36-1.28,1.07,0,.51.47,1.25,1.42,2.24l.73.77c1.08,1.12,1.62,2.03,1.62,2.72,0,.98-.47,1.85-1.42,2.61s-2.04,1.13-3.27,1.13c-.88,0-1.7-.21-2.46-.63Z"/>
    <path class="cls-7" d="m478.57,351.68c.2.13.29.29.29.47,0,.24-.25.66-.75,1.24-1.34,1.55-2.66,2.32-3.96,2.32-.8,0-1.45-.32-1.97-.95s-.77-1.44-.77-2.43c0-1.78.67-3.58,2.02-5.41s2.68-2.74,4-2.74c.95,0,1.43.51,1.43,1.54,0,1.15-.56,2.27-1.67,3.36s-2.47,1.86-4.07,2.29c.16,1.88.9,2.81,2.23,2.81s2.39-.84,3.22-2.51Zm-5.4-1.73c.23.08.43.12.62.12.97,0,1.82-.3,2.54-.89s1.09-1.29,1.09-2.09c0-.91-.46-1.37-1.39-1.37-.67,0-1.28.4-1.82,1.2s-.89,1.81-1.04,3.03Z"/>
    <path class="cls-7" d="m488.53,344.49l-1.34,1.61c-.62-.26-1.22-.39-1.79-.39-1.02,0-1.83.43-2.42,1.3s-.88,2.05-.88,3.56c0,1.06.21,1.92.64,2.57s.98.97,1.67.97c1.16,0,2.08-.76,2.74-2.29.17.19.26.36.26.53,0,.65-.51,1.37-1.52,2.16s-1.94,1.19-2.78,1.19-1.48-.33-2-.98-.78-1.5-.78-2.54c0-2.02.69-3.86,2.06-5.52s2.9-2.48,4.58-2.48c.61,0,1.13.1,1.56.3Z"/>
    <path class="cls-7" d="m493.38,349.12c1.73-3.29,3.44-4.93,5.12-4.93.44,0,.87.1,1.31.3l-1.65,1.8c-.25-.14-.57-.21-.96-.21-.81,0-1.67.66-2.57,1.97-.9,1.32-1.43,2.69-1.59,4.11l-.32,2.86-1.74.59.04-.35.08-.76.09-.76.61-5.58.07-.61c.05-.46.08-.84.08-1.12,0-.48-.13-.71-.4-.71-.63,0-1.25.67-1.87,2-.2-.15-.29-.3-.28-.46.02-.48.46-1.11,1.31-1.89.85-.79,1.52-1.18,2.01-1.18.67,0,1,.44,1,1.31,0,.21-.02.5-.06.86l-.08.82-.11.98-.11.96Z"/>
    <path class="cls-7" d="m506.38,351.68c.2.13.29.29.29.47,0,.24-.25.66-.75,1.24-1.34,1.55-2.66,2.32-3.96,2.32-.8,0-1.45-.32-1.97-.95s-.77-1.44-.77-2.43c0-1.78.67-3.58,2.02-5.41s2.68-2.74,4-2.74c.95,0,1.43.51,1.43,1.54,0,1.15-.56,2.27-1.67,3.36s-2.47,1.86-4.07,2.29c.16,1.88.9,2.81,2.23,2.81s2.39-.84,3.22-2.51Zm-5.4-1.73c.23.08.43.12.62.12.97,0,1.82-.3,2.54-.89s1.09-1.29,1.09-2.09c0-.91-.46-1.37-1.39-1.37-.67,0-1.28.4-1.82,1.2s-.89,1.81-1.04,3.03Zm4.29-7.27c-.96-.62-1.75-1.72-2.37-3.3l.95-.95c.7,1.52,1.52,2.57,2.44,3.18l-1.02,1.08Z"/>
    <path class="cls-7" d="m511.84,345.85l-.57,5.18c-.1.93-.15,1.62-.15,2.06,0,.88.3,1.32.9,1.32.65,0,1.32-.53,2.01-1.59.12.15.17.28.17.4,0,.44-.38.96-1.15,1.57s-1.43.91-1.99.91c-1.11,0-1.66-.71-1.66-2.13,0-.52.07-1.37.2-2.54l.56-5.18h-2.46l1.36-1.36h1.25l.25-2.13,1.73-.57-.29,2.71h4.97l-1.37,1.36h-3.76Z"/>
    <path class="cls-7" d="m523.62,351.68c.2.13.29.29.29.47,0,.24-.25.66-.75,1.24-1.34,1.55-2.66,2.32-3.96,2.32-.8,0-1.45-.32-1.97-.95s-.77-1.44-.77-2.43c0-1.78.67-3.58,2.02-5.41s2.68-2.74,4-2.74c.95,0,1.43.51,1.43,1.54,0,1.15-.56,2.27-1.67,3.36s-2.47,1.86-4.07,2.29c.16,1.88.9,2.81,2.23,2.81s2.39-.84,3.22-2.51Zm-5.4-1.73c.23.08.43.12.62.12.97,0,1.82-.3,2.54-.89s1.09-1.29,1.09-2.09c0-.91-.46-1.37-1.39-1.37-.67,0-1.28.4-1.82,1.2s-.89,1.81-1.04,3.03Z"/>
  </g>
  <g>
    <path class="cls-7" d="m662.55,338.37l.71-12.96c-.5.72-.92,1.26-1.25,1.64l-.82.97s-.08.09-.19.22l.09-1.5c1.02-.74,2.16-1.99,3.41-3.76l-.85,15.39h1.94l-.75,1.22h-4.47l.77-1.22h1.41Z"/>
    <path class="cls-7" d="m669.98,328.62l-.16-.28c-.9-1.48-1.35-2.83-1.35-4.07,0-1.36.32-2.58.96-3.65.64-1.07,1.37-1.61,2.19-1.61.64,0,1.17.36,1.57,1.08s.61,1.63.61,2.74c0,1.63-.62,3.32-1.86,5.07l-.31.44.18.28c1.23,1.89,1.85,3.51,1.85,4.85,0,1.59-.39,3.07-1.18,4.45s-1.63,2.07-2.53,2.07c-.73,0-1.34-.46-1.85-1.38s-.76-2.04-.76-3.38c0-2.4.88-4.6,2.63-6.61Zm.22.37c-1.16,1.68-1.74,3.31-1.74,4.88,0,1.21.25,2.26.75,3.15.5.89,1.08,1.34,1.75,1.34.48,0,.9-.32,1.25-.97.35-.65.53-1.42.53-2.3,0-1.33-.75-3.21-2.25-5.64l-.29-.45Zm1.19-1.12c.88-.95,1.32-2.34,1.32-4.19,0-1.05-.18-1.91-.53-2.58-.35-.67-.81-1-1.37-1-.45,0-.82.25-1.11.75s-.43,1.14-.43,1.92c0,1.2.59,2.72,1.77,4.56l.34.53Z"/>
    <path class="cls-7" d="m684.12,328.43h-8.84l.37-1.71h8.83l-.36,1.71Zm-.73,3.43h-8.11l.37-1.72h8.11l-.37,1.72Zm1.7,5.4c-.89,1.55-2,2.32-3.32,2.32-1.45,0-2.66-.99-3.64-2.96s-1.47-4.42-1.47-7.33.49-5.35,1.47-7.33,2.2-2.96,3.64-2.96,2.68,1.02,3.69,3.06l-.37,1.73c-.95-2.05-2.05-3.07-3.32-3.07-1.19,0-2.2.83-3.02,2.5-.83,1.66-1.24,3.69-1.24,6.08s.41,4.42,1.24,6.08c.83,1.66,1.83,2.49,3.02,2.49,1.29,0,2.4-1.04,3.32-3.13v2.53Z"/>
  </g>
  <path class="cls-5" d="m567.04,171.36H187.92c.08-25.04-14.01-9.03-14.01-20.16v-66.42c0-11.14,13.68,1.94,14.01-20.16h379.12c.29,17.36,14.01,9.03,14.01,20.16v66.42c0,11.14-13.73-1.02-14.01,20.16Z"/>
  <path class="cls-6" d="m569.48,166.74H190.36c.08-25.04-14.01-9.03-14.01-20.16v-66.42c0-11.14,13.68,1.94,14.01-20.16h379.12c.29,17.36,14.01,9.03,14.01,20.16v66.42c0,11.14-13.73-1.02-14.01,20.16Z"/>
  <g class="cls-12">
    <g class="cls-9">
      <image width="700" height="467" transform="translate(242.32 924.05) scale(.43)" xlink:href="../ressources/food_7_dark.jpg"/>
    </g>
  </g>
  <g class="cls-12">
    <g class="cls-11">
      <image width="700" height="467" transform="translate(242.32 574.48) scale(.44)" xlink:href="../ressources/food_11_dark.jpg"/>
    </g>
  </g>
  <g class="cls-12">
    <g class="cls-10">
      <image width="700" height="467" transform="translate(242.32 1312.92) scale(.43)" xlink:href="../ressources/food_10_dark.jpg"/>
    </g>
  </g>
  <g>
    <path class="cls-7" d="m326.93,663.05c-.26,2.68-.42,4.49-.47,5.41l-.28,4.87h4.88l.04-.63c.38-6.81,1.05-11.44,2.01-13.89,1.18-3,2.48-4.5,3.91-4.5.54,0,1.03.19,1.49.56l-1.29,2.55c-.49-.67-.98-1-1.46-1-.98,0-1.67.98-2.05,2.94s-.77,6.41-1.14,13.33l-.13,2.39c-.16,3.08-.25,5.47-.25,7.15,0,1,.21,1.49.64,1.49.31,0,.7-.27,1.17-.81.02.21.03.36.03.44,0,.35-.15.67-.46.95l-.51.47-2.57,2.36c0-2.17.14-5.85.42-11.06l.04-.63h-4.88l-.09,1.6-.11,1.95c-.1,1.66-.28,2.87-.54,3.6-.26.74-.75,1.46-1.49,2.16l2.06.26-1.05,2.04-3.78-.39,1.12-2.18.95.21c.46-.6.78-1.34.95-2.24.17-.9.33-2.56.45-5l.68-12.3h-.27c-2.43,0-3.64,1.61-3.64,4.83,0,1.01.14,2.02.41,3.04l-1.42,2.74c-.13-.91-.2-1.82-.2-2.72,0-3.02.56-5.45,1.68-7.28s2.6-2.74,4.46-2.74h.69Z"/>
    <path class="cls-7" d="m340.65,679.71c-.66,2.18-1.38,3.96-2.17,5.35-.79,1.39-1.47,2.08-2.06,2.08-.8,0-1.2-1.29-1.2-3.88,0-3.56.58-6.65,1.74-9.25,1.16-2.61,2.54-3.91,4.13-3.91.61,0,1.12.15,1.55.46-.03.21-.05.34-.05.39l-.1.93c-.07.64-.11,1.02-.11,1.12l-.56,7.76-.08,1.12c-.08,1.11-.11,1.86-.11,2.23,0,.5.07.75.22.75.49,0,.99-1.1,1.5-3.29.16.19.23.38.23.56,0,.41-.25,1.24-.75,2.48-.68,1.69-1.31,2.53-1.9,2.53-.43,0-.64-.57-.64-1.72,0-.35.02-.84.06-1.46l.09-1.41.11-1.55.1-1.3Zm.5-6.96c-.53-.6-1.07-.9-1.61-.9-.82,0-1.5,1-2.05,3s-.83,4.48-.83,7.44c0,1.52.22,2.28.67,2.28.52,0,1.15-.8,1.88-2.39.99-2.14,1.59-4.66,1.8-7.55l.14-1.9Z"/>
    <path class="cls-7" d="m347.26,677.27c1.29-4.93,2.56-7.4,3.82-7.4.33,0,.65.15.98.46l-1.23,2.71c-.19-.21-.42-.32-.72-.32-.6,0-1.24.99-1.92,2.96-.67,1.97-1.07,4.03-1.18,6.16l-.24,4.29-1.3.88.03-.53.06-1.14.07-1.14.46-8.37.05-.91c.04-.69.06-1.25.06-1.69,0-.71-.1-1.07-.3-1.07-.47,0-.93,1-1.39,3.01-.15-.22-.22-.45-.21-.69.02-.71.34-1.66.98-2.84.63-1.18,1.13-1.77,1.5-1.77.5,0,.74.66.74,1.97,0,.32-.01.74-.04,1.28l-.06,1.23-.08,1.48-.08,1.44Z"/>
    <path class="cls-7" d="m356.09,681.58c.16.19.23.37.23.54,0,.42-.25,1.25-.76,2.5-.68,1.69-1.31,2.53-1.9,2.53-.43,0-.64-.57-.64-1.7,0-.48.09-1.96.26-4.42l.34-4.78.09-1.21.07-.97c.03-.41.04-.75.04-1.04,0-.58-.08-.88-.24-.88-.45,0-.94,1-1.46,3.01-.11-.2-.17-.4-.17-.6,0-.71.33-1.68.98-2.88s1.18-1.81,1.57-1.81c.44,0,.66.61.66,1.83,0,.23-.02.71-.07,1.44l-.08,1.18c0,.09-.04.57-.1,1.42l-.36,5.02-.09,1.12c-.08,1.11-.11,1.86-.11,2.23,0,.5.07.75.22.75.49,0,.99-1.1,1.5-3.29Zm-1.75-13.97l.73-3.64c.65-.54,1.19-1.28,1.61-2.23.06.16.09.33.09.51,0,1.57-.81,3.36-2.43,5.36Z"/>
    <path class="cls-7" d="m363.24,670.33l-1,2.41c-.47-.39-.91-.58-1.34-.58-.76,0-1.36.65-1.8,1.95-.44,1.3-.66,3.08-.66,5.34,0,1.59.16,2.88.48,3.85s.73,1.46,1.25,1.46c.87,0,1.55-1.14,2.04-3.43.13.28.19.54.19.79,0,.97-.38,2.05-1.13,3.24-.75,1.19-1.45,1.78-2.08,1.78s-1.1-.49-1.49-1.47c-.39-.98-.58-2.25-.58-3.81,0-3.04.51-5.79,1.54-8.28,1.03-2.48,2.16-3.73,3.42-3.73.45,0,.84.15,1.16.46Z"/>
    <path class="cls-7" d="m365.94,687.15c-1.31,0-1.97-1.75-1.97-5.24,0-2.81.51-5.52,1.54-8.13s2.09-3.91,3.19-3.91c1.33,0,1.99,1.75,1.99,5.24,0,2.82-.51,5.54-1.54,8.14s-2.1,3.9-3.21,3.9Zm1.06-1.97c.67,0,1.23-.75,1.68-2.25s.68-3.37.68-5.61c0-3.66-.57-5.48-1.7-5.48-.66,0-1.22.75-1.67,2.26-.45,1.51-.68,3.37-.68,5.6,0,3.66.56,5.48,1.69,5.48Z"/>
    <path class="cls-7" d="m374.41,672.36l-.42,7.77c-.08,1.39-.11,2.43-.11,3.09,0,1.32.22,1.99.67,1.99.48,0,.98-.8,1.5-2.39.09.22.13.42.13.6,0,.66-.29,1.44-.86,2.36-.57.91-1.07,1.37-1.48,1.37-.83,0-1.24-1.07-1.24-3.2,0-.79.05-2.06.15-3.81l.42-7.77h-1.83l1.02-2.04h.93l.18-3.2,1.29-.86-.21,4.06h3.7l-1.02,2.04h-2.8Z"/>
    <path class="cls-7" d="m377.46,686.2l1.21-1.99c.46.97,1.03,1.46,1.72,1.46.84,0,1.26-.81,1.26-2.44,0-.9-.39-2.16-1.16-3.78l-.5-1.04c-.73-1.54-1.1-2.78-1.1-3.73,0-1.36.29-2.5.88-3.43.59-.93,1.31-1.39,2.16-1.39.47,0,.98.18,1.53.53l-1.05,1.95c-.44-.67-.93-1-1.48-1-.64,0-.95.53-.95,1.6,0,.76.35,1.88,1.06,3.36l.54,1.16c.8,1.69,1.21,3.05,1.21,4.08,0,1.48-.35,2.78-1.06,3.91-.71,1.13-1.52,1.7-2.44,1.7-.65,0-1.26-.32-1.83-.95Z"/>
    <path class="cls-7" d="m394.76,679.71c-.66,2.18-1.38,3.96-2.17,5.35s-1.47,2.08-2.06,2.08c-.8,0-1.2-1.29-1.2-3.88,0-3.56.58-6.65,1.74-9.25s2.54-3.91,4.13-3.91c.61,0,1.12.15,1.55.46-.03.21-.05.34-.05.39l-.1.93c-.07.64-.11,1.02-.11,1.12l-.56,7.76-.08,1.12c-.08,1.11-.11,1.86-.11,2.23,0,.5.07.75.22.75.49,0,.99-1.1,1.5-3.29.16.19.23.38.23.56,0,.41-.25,1.24-.75,2.48-.68,1.69-1.31,2.53-1.9,2.53-.43,0-.64-.57-.64-1.72,0-.35.02-.84.06-1.46l.09-1.41.11-1.55.1-1.3Zm.5-6.96c-.53-.6-1.07-.9-1.61-.9-.82,0-1.5,1-2.05,3s-.83,4.48-.83,7.44c0,1.52.22,2.28.67,2.28.52,0,1.15-.8,1.88-2.39.99-2.14,1.59-4.66,1.8-7.55l.14-1.9Z"/>
    <path class="cls-7" d="m404.85,679.78c-.66,2.05-1.41,3.79-2.25,5.22-.83,1.43-1.51,2.14-2.04,2.14-.58,0-.87-.77-.87-2.32,0-.57.04-1.52.11-2.83l.31-5.76c0-.08.02-.42.04-1.02l.05-1.14c.02-.34.03-.64.03-.91,0-.68-.1-1.02-.29-1.02-.44,0-.92,1-1.43,2.99-.11-.18-.17-.36-.17-.56,0-.73.32-1.69.97-2.9.64-1.21,1.16-1.81,1.53-1.81.48,0,.73.67.73,2,0,.32-.01.69-.03,1.11l-.08,1.35-.08,1.48-.27,5.03c-.05.86-.07,1.72-.07,2.6,0,.81.15,1.21.44,1.21.66,0,1.4-1.09,2.22-3.27.83-2.18,1.32-4.34,1.47-6.47l.3-4.17,1.42-.97c-.16,1.36-.29,2.57-.37,3.63l-.53,7.34c-.03.44-.05.82-.07,1.12l-.06.97c-.04.6-.05,1.02-.05,1.26,0,.5.07.75.21.75.5,0,1-1.1,1.51-3.29.16.19.24.38.24.56,0,.41-.25,1.24-.76,2.48-.68,1.69-1.31,2.53-1.9,2.53-.42,0-.64-.57-.64-1.72,0-.36.02-.85.06-1.46l.1-1.41c.05-.76.09-1.28.11-1.55l.09-1.23Z"/>
    <path class="cls-7" d="m412.16,678.99l-.27-1.44c-.2-1.02-.31-1.57-.32-1.65l-.42-1.88c-.3-1.35-.58-2.02-.86-2.02-.41,0-.74.78-.98,2.34-.17-.13-.26-.32-.26-.56,0-.73.21-1.56.63-2.5s.79-1.41,1.13-1.41c.65,0,1.33,1.89,2.02,5.66l.18.93.2-.65c1.24-3.96,2.29-5.94,3.14-5.94.22,0,.48.13.78.39l-1.06,2.23c-.14-.08-.24-.12-.3-.12-.64,0-1.41,1.48-2.29,4.45l-.25.85.2,1.08c.77,4.25,1.4,6.38,1.89,6.38.46,0,.81-.66,1.05-1.97.16.21.24.43.24.65,0,.59-.23,1.29-.7,2.11-.47.82-.87,1.23-1.21,1.23-.68,0-1.37-1.92-2.07-5.75l-.24-1.3-.25.9c-1.19,4.1-2.32,6.15-3.41,6.15-.41,0-.75-.2-1.04-.61l1.01-1.99c.17.35.38.53.61.53.66,0,1.4-1.34,2.22-4.02l.45-1.48.17-.58Z"/>
    <path class="cls-7" d="m425.25,672.36l-.71,14.21c-.16,3.22-.4,5.67-.73,7.36-.33,1.69-.86,3.2-1.59,4.55-1.08,1.98-2.29,2.97-3.62,2.97-.27,0-.61-.15-1.03-.44l1.16-2.13c.5.33.94.49,1.35.49,1.72,0,2.71-2.62,2.98-7.86l.23-4.36.73-14.8h-1.57l.99-2.04h.69l.05-1.02c.21-4.34.83-7.71,1.86-10.13,1.03-2.42,2.36-3.63,4-3.63.31,0,.66.06,1.04.17l-1.22,2.41c-.44-.34-.87-.51-1.28-.51-1,0-1.71.7-2.14,2.09-.42,1.4-.73,4.07-.93,8.03l-.13,2.59h3.54l-1.04,2.04h-2.61Z"/>
    <path class="cls-7" d="m433.38,681.1c.15.2.22.43.22.7,0,.36-.19.98-.56,1.86-1,2.32-1.98,3.48-2.95,3.48-.59,0-1.08-.47-1.47-1.42s-.58-2.16-.58-3.64c0-2.67.5-5.38,1.51-8.11s2-4.1,2.98-4.1c.71,0,1.07.77,1.07,2.3,0,1.72-.42,3.4-1.25,5.04s-1.84,2.78-3.04,3.43c.12,2.81.67,4.22,1.66,4.22s1.78-1.25,2.4-3.76Zm-4.03-2.6c.17.12.32.18.46.18.72,0,1.35-.45,1.9-1.34s.81-1.93.81-3.13c0-1.37-.35-2.06-1.04-2.06-.5,0-.95.6-1.36,1.8-.4,1.2-.66,2.72-.77,4.54Z"/>
    <path class="cls-7" d="m437.08,686.08l-1.31,1.07.03-.49.07-1.3.07-1.23.46-8.16.05-.93c.04-.73.05-1.31.05-1.76,0-.75-.09-1.12-.28-1.12-.44,0-.91,1-1.41,2.99-.13-.22-.2-.42-.2-.58,0-.7.32-1.66.96-2.87s1.14-1.82,1.51-1.82c.5,0,.75.64.75,1.93,0,.33-.01.77-.04,1.32l-.07,1.42-.07,1.2-.07,1.25c.69-2.06,1.44-3.76,2.26-5.11s1.52-2.01,2.09-2.01.85.79.85,2.37c0,.48-.03,1.2-.09,2.16l-.47,6.55c-.1,1.31-.14,2.35-.14,3.11,0,.61.08.91.25.91.4,0,.9-1.07,1.49-3.22.14.18.21.36.21.54,0,.76-.33,1.76-.98,3s-1.18,1.85-1.59,1.85c-.46,0-.68-.66-.68-1.97,0-.96.06-2.29.18-3.99l.31-4.25c.1-1.38.15-2.48.15-3.29,0-.93-.16-1.39-.48-1.39-.75,0-1.5,1.02-2.27,3.05-.76,2.03-1.21,4.22-1.34,6.55l-.23,4.22Z"/>
    <path class="cls-7" d="m446.76,687.15c-1.31,0-1.97-1.75-1.97-5.24,0-2.81.51-5.52,1.54-8.13s2.09-3.91,3.19-3.91c1.33,0,1.99,1.75,1.99,5.24,0,2.82-.51,5.54-1.54,8.14s-2.1,3.9-3.21,3.9Zm1.06-1.97c.67,0,1.23-.75,1.68-2.25s.68-3.37.68-5.61c0-3.66-.57-5.48-1.7-5.48-.66,0-1.22.75-1.67,2.26-.45,1.51-.68,3.37-.68,5.6,0,3.66.56,5.48,1.69,5.48Z"/>
    <path class="cls-7" d="m458.82,679.78c-.66,2.05-1.41,3.79-2.25,5.22-.83,1.43-1.51,2.14-2.04,2.14-.58,0-.87-.77-.87-2.32,0-.57.04-1.52.11-2.83l.31-5.76c0-.08.02-.42.04-1.02l.05-1.14c.02-.34.03-.64.03-.91,0-.68-.1-1.02-.29-1.02-.44,0-.92,1-1.43,2.99-.11-.18-.17-.36-.17-.56,0-.73.32-1.69.97-2.9.64-1.21,1.16-1.81,1.53-1.81.48,0,.73.67.73,2,0,.32-.01.69-.03,1.11l-.08,1.35-.08,1.48-.27,5.03c-.05.86-.07,1.72-.07,2.6,0,.81.15,1.21.44,1.21.66,0,1.4-1.09,2.22-3.27.83-2.18,1.32-4.34,1.47-6.47l.3-4.17,1.42-.97c-.16,1.36-.29,2.57-.37,3.63l-.53,7.34c-.03.44-.05.82-.07,1.12l-.06.97c-.04.6-.05,1.02-.05,1.26,0,.5.07.75.21.75.5,0,1-1.1,1.51-3.29.16.19.24.38.24.56,0,.41-.25,1.24-.76,2.48-.68,1.69-1.31,2.53-1.9,2.53-.42,0-.64-.57-.64-1.72,0-.36.02-.85.06-1.46l.1-1.41c.05-.76.09-1.28.11-1.55l.09-1.23Z"/>
    <path class="cls-7" d="m466.76,681.58c.16.19.23.37.23.54,0,.42-.25,1.25-.76,2.5-.68,1.69-1.31,2.53-1.9,2.53-.42,0-.64-.57-.64-1.7,0-.48.09-1.96.26-4.42l.34-4.78.09-1.21.07-.97c.03-.41.04-.75.04-1.04,0-.58-.08-.88-.24-.88-.45,0-.94,1-1.46,3.01-.11-.2-.17-.4-.17-.6,0-.71.33-1.68.98-2.88s1.18-1.81,1.57-1.81c.44,0,.66.61.66,1.83,0,.23-.02.71-.07,1.44l-.08,1.18c0,.09-.04.57-.1,1.42l-.36,5.02-.09,1.12c-.08,1.11-.11,1.86-.11,2.23,0,.5.07.75.22.75.49,0,.99-1.1,1.5-3.29Zm-1.75-13.97l.73-3.64c.65-.54,1.19-1.28,1.61-2.23.06.16.09.33.09.51,0,1.57-.81,3.36-2.43,5.36Z"/>
    <path class="cls-7" d="m471.36,681.52c.17.16.25.38.25.63,0,.84-.31,1.89-.94,3.13s-1.15,1.86-1.58,1.86c-.48,0-.73-.7-.73-2.11,0-.86.03-1.73.08-2.62l.1-1.56.67-12.23c.21-3.73.85-6.84,1.91-9.33,1.06-2.5,2.29-3.74,3.67-3.74.34,0,.62.06.86.18l-1.24,2.55c-.27-.19-.59-.28-.96-.28-.87,0-1.53.62-1.96,1.85s-.73,3.33-.89,6.28l-.81,14.72c-.06,1.14-.1,1.95-.1,2.44,0,1.05.09,1.58.27,1.58.21,0,.47-.35.76-1.04.29-.69.5-1.46.63-2.3Z"/>
  </g>
  <g>
    <path class="cls-7" d="m252.73,1403.82l-1.42,2.74c-.13-.91-.2-1.81-.2-2.69,0-3.22.67-5.83,2-7.82,1-1.49,2.37-2.23,4.12-2.23h5.22c2.16,0,3.24-1.34,3.24-4.03,0-.94-.16-1.8-.48-2.6l1.1-2.11c.26.7.38,1.61.38,2.71,0,2.31-.52,4.25-1.55,5.81-1.04,1.56-2.31,2.35-3.83,2.35h-2.43l-.65,11.88-.1,1.95c-.1,1.66-.28,2.87-.54,3.6s-.76,1.46-1.5,2.16l2.54.26-1.05,2.04-4.26-.39,1.13-2.18.95.21c.7-.9,1.14-2.75,1.31-5.54l.09-1.71.68-12.3h-1.48c-2.44,0-3.66,1.62-3.66,4.87,0,.98.14,1.99.41,3.01Z"/>
    <path class="cls-7" d="m268.94,1410.48c-.66,2.18-1.38,3.96-2.17,5.35s-1.47,2.08-2.06,2.08c-.8,0-1.2-1.29-1.2-3.88,0-3.56.58-6.65,1.74-9.25s2.54-3.91,4.13-3.91c.61,0,1.12.15,1.55.46-.03.21-.05.34-.05.39l-.1.93c-.07.64-.11,1.02-.11,1.12l-.56,7.76-.08,1.12c-.08,1.11-.11,1.86-.11,2.23,0,.5.07.75.22.75.49,0,.99-1.1,1.5-3.29.16.19.23.38.23.56,0,.41-.25,1.24-.75,2.48-.68,1.69-1.31,2.53-1.9,2.53-.43,0-.64-.57-.64-1.72,0-.35.02-.84.06-1.46l.09-1.41.11-1.55.1-1.3Zm.5-6.96c-.53-.6-1.07-.9-1.61-.9-.82,0-1.5,1-2.05,3s-.83,4.48-.83,7.44c0,1.52.22,2.28.67,2.28.52,0,1.15-.8,1.88-2.39.99-2.14,1.59-4.66,1.8-7.55l.14-1.9Z"/>
    <path class="cls-7" d="m275.43,1403.14l-.42,7.77c-.08,1.39-.11,2.43-.11,3.09,0,1.32.22,1.99.67,1.99.48,0,.98-.8,1.5-2.39.09.22.13.42.13.6,0,.66-.29,1.44-.86,2.36-.57.91-1.07,1.37-1.48,1.37-.83,0-1.24-1.07-1.24-3.2,0-.79.05-2.06.15-3.81l.42-7.77h-1.83l1.02-2.04h.93l.18-3.2,1.29-.86-.21,4.06h3.7l-1.02,2.04h-2.8Z"/>
    <path class="cls-7" d="m284.33,1410.48c-.66,2.18-1.38,3.96-2.17,5.35s-1.47,2.08-2.06,2.08c-.8,0-1.2-1.29-1.2-3.88,0-3.56.58-6.65,1.74-9.25s2.54-3.91,4.13-3.91c.61,0,1.12.15,1.55.46-.03.21-.05.34-.05.39l-.1.93c-.07.64-.11,1.02-.11,1.12l-.56,7.76-.08,1.12c-.08,1.11-.11,1.86-.11,2.23,0,.5.07.75.22.75.49,0,.99-1.1,1.5-3.29.16.19.23.38.23.56,0,.41-.25,1.24-.75,2.48-.68,1.69-1.31,2.53-1.9,2.53-.43,0-.64-.57-.64-1.72,0-.35.02-.84.06-1.46l.09-1.41.11-1.55.1-1.3Zm.5-6.96c-.53-.6-1.07-.9-1.61-.9-.82,0-1.5,1-2.05,3s-.83,4.48-.83,7.44c0,1.52.22,2.28.67,2.28.52,0,1.15-.8,1.88-2.39.99-2.14,1.59-4.66,1.8-7.55l.14-1.9Z"/>
    <path class="cls-7" d="m290.45,1406.41c.44-1.64.98-3.01,1.64-4.11.66-1.1,1.27-1.65,1.82-1.65.75,0,1.12.77,1.12,2.32s-.31,2.83-.93,4.05-1.44,2.11-2.46,2.65c1.11,3.98,1.93,5.98,2.47,5.98.39,0,.8-.68,1.23-2.04.13.2.2.39.2.58,0,.55-.27,1.31-.8,2.27-.54.96-.97,1.45-1.29,1.48-.58.06-1.58-2.43-2.98-7.47l-.21-.79-.39,7.19-1.31,1.07.03-.49.07-1.3.07-1.23.85-15.41c.2-3.65.87-6.75,2-9.32,1.14-2.57,2.41-3.85,3.82-3.85.29,0,.57.06.84.19l-1.28,2.53c-.33-.2-.65-.3-.94-.3-1.73,0-2.74,2.72-3.05,8.16l-.52,9.5Zm-.16,2.72c.93,0,1.71-.42,2.34-1.27.63-.85.94-1.9.94-3.15s-.22-1.89-.66-1.89c-.41,0-.86.6-1.35,1.8s-.92,2.7-1.27,4.51Z"/>
    <path class="cls-7" d="m300.6,1412.35c.16.19.23.37.23.54,0,.42-.25,1.25-.76,2.5-.68,1.69-1.31,2.53-1.9,2.53-.42,0-.64-.57-.64-1.7,0-.48.09-1.96.26-4.42l.34-4.78.09-1.21.07-.97c.03-.41.04-.75.04-1.04,0-.58-.08-.88-.24-.88-.45,0-.94,1-1.46,3.01-.11-.2-.17-.4-.17-.6,0-.71.33-1.68.98-2.88s1.18-1.81,1.57-1.81c.44,0,.66.61.66,1.83,0,.23-.02.71-.07,1.44l-.08,1.18c0,.09-.04.57-.1,1.42l-.36,5.02-.09,1.12c-.08,1.11-.11,1.86-.11,2.23,0,.5.07.75.22.75.49,0,.99-1.1,1.5-3.29Zm-1.75-13.97l.73-3.64c.65-.54,1.19-1.28,1.61-2.23.06.16.09.33.09.51,0,1.57-.81,3.36-2.43,5.36Z"/>
    <path class="cls-7" d="m312.46,1400.9l.08-1.51c.21-3.75.85-6.87,1.91-9.35s2.29-3.73,3.68-3.73c.33,0,.62.06.86.18l-1.24,2.55c-.27-.19-.6-.28-.97-.28-.87,0-1.53.62-1.96,1.84-.43,1.23-.73,3.33-.89,6.29l-.81,14.65-.06,1.11c-.05,1-.08,1.7-.08,2.13,0,.57.08.86.23.86.48,0,.97-1.1,1.46-3.29.16.19.24.38.24.56,0,.42-.24,1.25-.71,2.48-.66,1.69-1.28,2.53-1.85,2.53-.45,0-.67-.62-.67-1.86,0-.46.04-1.37.1-2.72l.09-1.55.06-1.3c-.4,1.76-1.04,3.44-1.92,5.04s-1.62,2.4-2.19,2.4c-.82,0-1.23-1.29-1.23-3.88,0-3.39.57-6.43,1.7-9.12s2.42-4.04,3.84-4.04c.07,0,.18.01.34.04Zm-.14,2.53c-.49-.54-.94-.81-1.35-.81-.86,0-1.57.98-2.13,2.95s-.84,4.46-.84,7.5c0,1.52.22,2.28.66,2.28.54,0,1.17-.8,1.89-2.39.94-2.05,1.49-4.56,1.66-7.55l.11-1.98Z"/>
    <path class="cls-7" d="m321.12,1411.87c.15.2.22.43.22.7,0,.36-.19.98-.56,1.86-1,2.32-1.98,3.48-2.95,3.48-.59,0-1.08-.47-1.47-1.42s-.58-2.16-.58-3.64c0-2.67.5-5.38,1.51-8.11s2-4.1,2.98-4.1c.71,0,1.07.77,1.07,2.3,0,1.72-.42,3.4-1.25,5.04s-1.84,2.78-3.04,3.43c.12,2.81.67,4.22,1.66,4.22s1.78-1.25,2.4-3.76Zm-4.03-2.6c.17.12.32.18.46.18.72,0,1.35-.45,1.9-1.34s.81-1.93.81-3.13c0-1.37-.35-2.06-1.04-2.06-.5,0-.95.6-1.36,1.8-.4,1.2-.66,2.72-.77,4.54Z"/>
    <path class="cls-7" d="m326.88,1416.97l1.21-1.99c.46.97,1.03,1.46,1.72,1.46.84,0,1.26-.81,1.26-2.44,0-.9-.39-2.16-1.16-3.78l-.5-1.04c-.73-1.54-1.1-2.78-1.1-3.73,0-1.36.29-2.5.88-3.43.59-.93,1.31-1.39,2.16-1.39.47,0,.98.18,1.53.53l-1.05,1.95c-.44-.67-.93-1-1.48-1-.64,0-.95.53-.95,1.6,0,.76.35,1.88,1.06,3.36l.54,1.16c.8,1.69,1.21,3.05,1.21,4.08,0,1.48-.35,2.78-1.06,3.91-.71,1.13-1.52,1.7-2.44,1.7-.65,0-1.26-.32-1.83-.95Z"/>
    <path class="cls-7" d="m339.21,1410.48c-.66,2.18-1.38,3.96-2.17,5.35s-1.47,2.08-2.06,2.08c-.8,0-1.2-1.29-1.2-3.88,0-3.56.58-6.65,1.74-9.25s2.54-3.91,4.13-3.91c.61,0,1.12.15,1.55.46-.03.21-.05.34-.05.39l-.1.93c-.07.64-.11,1.02-.11,1.12l-.56,7.76-.08,1.12c-.08,1.11-.11,1.86-.11,2.23,0,.5.07.75.22.75.49,0,.99-1.1,1.5-3.29.16.19.23.38.23.56,0,.41-.25,1.24-.75,2.48-.68,1.69-1.31,2.53-1.9,2.53-.43,0-.64-.57-.64-1.72,0-.35.02-.84.06-1.46l.09-1.41.11-1.55.1-1.3Zm.5-6.96c-.53-.6-1.07-.9-1.61-.9-.82,0-1.5,1-2.05,3s-.83,4.48-.83,7.44c0,1.52.22,2.28.67,2.28.52,0,1.15-.8,1.88-2.39.99-2.14,1.59-4.66,1.8-7.55l.14-1.9Z"/>
    <path class="cls-7" d="m349.3,1410.55c-.66,2.05-1.41,3.79-2.25,5.22-.83,1.43-1.51,2.14-2.04,2.14-.58,0-.87-.77-.87-2.32,0-.57.04-1.52.11-2.83l.31-5.76c0-.08.02-.42.04-1.02l.05-1.14c.02-.34.03-.64.03-.91,0-.68-.1-1.02-.29-1.02-.44,0-.92,1-1.43,2.99-.11-.18-.17-.36-.17-.56,0-.73.32-1.69.97-2.9.64-1.21,1.16-1.81,1.53-1.81.48,0,.73.67.73,2,0,.32-.01.69-.03,1.11l-.08,1.35-.08,1.48-.27,5.03c-.05.86-.07,1.72-.07,2.6,0,.81.15,1.21.44,1.21.66,0,1.4-1.09,2.22-3.27.83-2.18,1.32-4.34,1.47-6.47l.3-4.17,1.42-.97c-.16,1.36-.29,2.57-.37,3.63l-.53,7.34c-.03.44-.05.82-.07,1.12l-.06.97c-.04.6-.05,1.02-.05,1.26,0,.5.07.75.21.75.5,0,1-1.1,1.51-3.29.16.19.24.38.24.56,0,.41-.25,1.24-.76,2.48-.68,1.69-1.31,2.53-1.9,2.53-.42,0-.64-.57-.64-1.72,0-.36.02-.85.06-1.46l.1-1.41c.05-.76.09-1.28.11-1.55l.09-1.23Z"/>
    <path class="cls-7" d="m359.83,1416.85l-1.3,1.07.03-.49.07-1.3.06-1.23.44-7.89.06-.9c.02-.47.03-.93.03-1.37,0-1.14-.17-1.71-.52-1.71-.54,0-1.16,1.1-1.88,3.3s-1.13,4.3-1.24,6.29l-.22,4.22-1.31,1.07.03-.49.07-1.3.07-1.23.45-8.16.05-.93c.04-.73.06-1.31.06-1.76,0-.75-.09-1.12-.28-1.12-.44,0-.91,1-1.42,2.99-.13-.22-.2-.42-.2-.58,0-.7.32-1.66.96-2.87s1.14-1.82,1.52-1.82c.5,0,.75.64.75,1.93,0,.33-.01.77-.04,1.32l-.07,1.42-.07,1.2-.07,1.25.24-.77c1.31-4.23,2.52-6.35,3.64-6.35.54,0,.81.79.81,2.36,0,.27-.02.84-.07,1.71l-.09,1.62-.12,2.2c.54-2.26,1.18-4.14,1.93-5.63s1.4-2.24,1.99-2.24.87.75.87,2.25c0,.64-.03,1.41-.1,2.3l-.46,6.52c-.1,1.35-.15,2.39-.15,3.13,0,.62.08.93.25.93.2,0,.45-.33.75-1s.54-1.42.73-2.27c.16.21.24.4.24.58,0,.74-.33,1.73-.98,2.97-.65,1.24-1.17,1.86-1.56,1.86-.5,0-.75-.67-.75-2,0-.84.06-2.15.19-3.92l.31-4.24c.01-.15.03-.49.06-1,.01-.21.03-.57.06-1.07.03-.5.04-.89.04-1.16,0-1-.16-1.49-.49-1.49-.55,0-1.18,1.1-1.9,3.3-.72,2.2-1.14,4.3-1.25,6.29l-.23,4.22Z"/>
    <path class="cls-7" d="m369.06,1417.92c-1.31,0-1.97-1.75-1.97-5.24,0-2.81.51-5.52,1.54-8.13s2.09-3.91,3.19-3.91c1.33,0,1.99,1.75,1.99,5.24,0,2.82-.51,5.54-1.54,8.14s-2.1,3.9-3.21,3.9Zm1.06-1.97c.67,0,1.23-.75,1.68-2.25s.68-3.37.68-5.61c0-3.66-.57-5.48-1.7-5.48-.66,0-1.22.75-1.67,2.26-.45,1.51-.68,3.37-.68,5.6,0,3.66.56,5.48,1.69,5.48Z"/>
    <path class="cls-7" d="m377.16,1416.85l-1.31,1.07.03-.49.07-1.3.07-1.23.46-8.16.05-.93c.04-.73.05-1.31.05-1.76,0-.75-.09-1.12-.28-1.12-.44,0-.91,1-1.41,2.99-.13-.22-.2-.42-.2-.58,0-.7.32-1.66.96-2.87s1.14-1.82,1.51-1.82c.5,0,.75.64.75,1.93,0,.33-.01.77-.04,1.32l-.07,1.42-.07,1.2-.07,1.25c.69-2.06,1.44-3.76,2.26-5.11s1.52-2.01,2.09-2.01.85.79.85,2.37c0,.48-.03,1.2-.09,2.16l-.47,6.55c-.1,1.31-.14,2.35-.14,3.11,0,.61.08.91.25.91.4,0,.9-1.07,1.49-3.22.14.18.21.36.21.54,0,.76-.33,1.76-.98,3s-1.18,1.85-1.59,1.85c-.46,0-.68-.66-.68-1.97,0-.96.06-2.29.18-3.99l.31-4.25c.1-1.38.15-2.48.15-3.29,0-.93-.16-1.39-.48-1.39-.75,0-1.5,1.02-2.27,3.05-.76,2.03-1.21,4.22-1.34,6.55l-.23,4.22Z"/>
    <path class="cls-7" d="m395.17,1411.87c.15.2.22.43.22.7,0,.36-.19.98-.56,1.86-1,2.32-1.98,3.48-2.95,3.48-.59,0-1.08-.47-1.47-1.42s-.58-2.16-.58-3.64c0-2.67.5-5.38,1.51-8.11s2-4.1,2.98-4.1c.71,0,1.07.77,1.07,2.3,0,1.72-.42,3.4-1.25,5.04s-1.84,2.78-3.04,3.43c.12,2.81.67,4.22,1.66,4.22s1.78-1.25,2.4-3.76Zm-4.03-2.6c.17.12.32.18.46.18.72,0,1.35-.45,1.9-1.34s.81-1.93.81-3.13c0-1.37-.35-2.06-1.04-2.06-.5,0-.95.6-1.36,1.8-.4,1.2-.66,2.72-.77,4.54Z"/>
    <path class="cls-7" d="m399.25,1403.14l-.42,7.77c-.08,1.39-.11,2.43-.11,3.09,0,1.32.22,1.99.67,1.99.48,0,.98-.8,1.5-2.39.09.22.13.42.13.6,0,.66-.29,1.44-.86,2.36-.57.91-1.07,1.37-1.48,1.37-.83,0-1.24-1.07-1.24-3.2,0-.79.05-2.06.15-3.81l.42-7.77h-1.83l1.02-2.04h.93l.18-3.2,1.29-.86-.21,4.06h3.7l-1.02,2.04h-2.8Z"/>
    <path class="cls-7" d="m407.27,1416.97l1.21-1.99c.46.97,1.03,1.46,1.72,1.46.84,0,1.26-.81,1.26-2.44,0-.9-.39-2.16-1.16-3.78l-.5-1.04c-.73-1.54-1.1-2.78-1.1-3.73,0-1.36.29-2.5.88-3.43.59-.93,1.31-1.39,2.16-1.39.47,0,.98.18,1.53.53l-1.05,1.95c-.44-.67-.93-1-1.48-1-.64,0-.95.53-.95,1.6,0,.76.35,1.88,1.06,3.36l.54,1.16c.8,1.69,1.21,3.05,1.21,4.08,0,1.48-.35,2.78-1.06,3.91-.71,1.13-1.52,1.7-2.44,1.7-.65,0-1.26-.32-1.83-.95Z"/>
    <path class="cls-7" d="m419.6,1410.48c-.66,2.18-1.38,3.96-2.17,5.35s-1.47,2.08-2.06,2.08c-.8,0-1.2-1.29-1.2-3.88,0-3.56.58-6.65,1.74-9.25s2.54-3.91,4.13-3.91c.61,0,1.12.15,1.55.46-.03.21-.05.34-.05.39l-.1.93c-.07.64-.11,1.02-.11,1.12l-.56,7.76-.08,1.12c-.08,1.11-.11,1.86-.11,2.23,0,.5.07.75.22.75.49,0,.99-1.1,1.5-3.29.16.19.23.38.23.56,0,.41-.25,1.24-.75,2.48-.68,1.69-1.31,2.53-1.9,2.53-.43,0-.64-.57-.64-1.72,0-.35.02-.84.06-1.46l.09-1.41.11-1.55.1-1.3Zm.5-6.96c-.53-.6-1.07-.9-1.61-.9-.82,0-1.5,1-2.05,3s-.83,4.48-.83,7.44c0,1.52.22,2.28.67,2.28.52,0,1.15-.8,1.88-2.39.99-2.14,1.59-4.66,1.8-7.55l.14-1.9Z"/>
    <path class="cls-7" d="m427.78,1416.97l1.21-1.99c.46.97,1.03,1.46,1.72,1.46.84,0,1.26-.81,1.26-2.44,0-.9-.39-2.16-1.16-3.78l-.5-1.04c-.73-1.54-1.1-2.78-1.1-3.73,0-1.36.29-2.5.88-3.43.59-.93,1.31-1.39,2.16-1.39.47,0,.98.18,1.53.53l-1.05,1.95c-.44-.67-.93-1-1.48-1-.64,0-.95.53-.95,1.6,0,.76.35,1.88,1.06,3.36l.54,1.16c.8,1.69,1.21,3.05,1.21,4.08,0,1.48-.35,2.78-1.06,3.91-.71,1.13-1.52,1.7-2.44,1.7-.65,0-1.26-.32-1.83-.95Z"/>
    <path class="cls-7" d="m440.12,1410.48c-.66,2.18-1.38,3.96-2.17,5.35s-1.47,2.08-2.06,2.08c-.8,0-1.2-1.29-1.2-3.88,0-3.56.58-6.65,1.74-9.25s2.54-3.91,4.13-3.91c.61,0,1.12.15,1.55.46-.03.21-.05.34-.05.39l-.1.93c-.07.64-.11,1.02-.11,1.12l-.56,7.76-.08,1.12c-.08,1.11-.11,1.86-.11,2.23,0,.5.07.75.22.75.49,0,.99-1.1,1.5-3.29.16.19.23.38.23.56,0,.41-.25,1.24-.75,2.48-.68,1.69-1.31,2.53-1.9,2.53-.43,0-.64-.57-.64-1.72,0-.35.02-.84.06-1.46l.09-1.41.11-1.55.1-1.3Zm.5-6.96c-.53-.6-1.07-.9-1.61-.9-.82,0-1.5,1-2.05,3s-.83,4.48-.83,7.44c0,1.52.22,2.28.67,2.28.52,0,1.15-.8,1.88-2.39.99-2.14,1.59-4.66,1.8-7.55l.14-1.9Z"/>
    <path class="cls-7" d="m450.2,1410.55c-.66,2.05-1.41,3.79-2.25,5.22-.83,1.43-1.51,2.14-2.04,2.14-.58,0-.87-.77-.87-2.32,0-.57.04-1.52.11-2.83l.31-5.76c0-.08.02-.42.04-1.02l.05-1.14c.02-.34.03-.64.03-.91,0-.68-.1-1.02-.29-1.02-.44,0-.92,1-1.43,2.99-.11-.18-.17-.36-.17-.56,0-.73.32-1.69.97-2.9.64-1.21,1.16-1.81,1.53-1.81.48,0,.73.67.73,2,0,.32-.01.69-.03,1.11l-.08,1.35-.08,1.48-.27,5.03c-.05.86-.07,1.72-.07,2.6,0,.81.15,1.21.44,1.21.66,0,1.4-1.09,2.22-3.27.83-2.18,1.32-4.34,1.47-6.47l.3-4.17,1.42-.97c-.16,1.36-.29,2.57-.37,3.63l-.53,7.34c-.03.44-.05.82-.07,1.12l-.06.97c-.04.6-.05,1.02-.05,1.26,0,.5.07.75.21.75.5,0,1-1.1,1.51-3.29.16.19.24.38.24.56,0,.41-.25,1.24-.76,2.48-.68,1.69-1.31,2.53-1.9,2.53-.42,0-.64-.57-.64-1.72,0-.36.02-.85.06-1.46l.1-1.41c.05-.76.09-1.28.11-1.55l.09-1.23Z"/>
    <path class="cls-7" d="m459.99,1401.1l-1,2.41c-.47-.39-.91-.58-1.34-.58-.76,0-1.36.65-1.8,1.95s-.66,3.08-.66,5.34c0,1.59.16,2.88.48,3.85s.73,1.46,1.25,1.46c.87,0,1.55-1.14,2.04-3.43.13.28.19.54.19.79,0,.97-.38,2.05-1.13,3.24-.75,1.19-1.45,1.78-2.08,1.78s-1.1-.49-1.49-1.47c-.39-.98-.58-2.25-.58-3.81,0-3.04.51-5.79,1.54-8.28s2.16-3.73,3.42-3.73c.46,0,.84.15,1.16.46Z"/>
    <path class="cls-7" d="m466.07,1411.87c.15.2.22.43.22.7,0,.36-.19.98-.56,1.86-1,2.32-1.98,3.48-2.95,3.48-.59,0-1.08-.47-1.47-1.42s-.58-2.16-.58-3.64c0-2.67.5-5.38,1.51-8.11s2-4.1,2.98-4.1c.71,0,1.07.77,1.07,2.3,0,1.72-.42,3.4-1.25,5.04s-1.84,2.78-3.04,3.43c.12,2.81.67,4.22,1.66,4.22s1.78-1.25,2.4-3.76Zm-4.03-2.6c.17.12.32.18.46.18.72,0,1.35-.45,1.9-1.34s.81-1.93.81-3.13c0-1.37-.35-2.06-1.04-2.06-.5,0-.95.6-1.36,1.8-.4,1.2-.66,2.72-.77,4.54Z"/>
    <path class="cls-7" d="m477.8,1410.48c-.66,2.18-1.38,3.96-2.17,5.35s-1.47,2.08-2.06,2.08c-.8,0-1.2-1.29-1.2-3.88,0-3.56.58-6.65,1.74-9.25s2.54-3.91,4.13-3.91c.61,0,1.12.15,1.55.46-.03.21-.05.34-.05.39l-.1.93c-.07.64-.11,1.02-.11,1.12l-.56,7.76-.08,1.12c-.08,1.11-.11,1.86-.11,2.23,0,.5.07.75.22.75.49,0,.99-1.1,1.5-3.29.16.19.23.38.23.56,0,.41-.25,1.24-.75,2.48-.68,1.69-1.31,2.53-1.9,2.53-.43,0-.64-.57-.64-1.72,0-.35.02-.84.06-1.46l.09-1.41.11-1.55.1-1.3Zm.5-6.96c-.53-.6-1.07-.9-1.61-.9-.82,0-1.5,1-2.05,3s-.83,4.48-.83,7.44c0,1.52.22,2.28.67,2.28.52,0,1.15-.8,1.88-2.39.99-2.14,1.59-4.66,1.8-7.55l.14-1.9Z"/>
    <path class="cls-7" d="m487.89,1410.55c-.66,2.05-1.41,3.79-2.25,5.22-.83,1.43-1.51,2.14-2.04,2.14-.58,0-.87-.77-.87-2.32,0-.57.04-1.52.11-2.83l.31-5.76c0-.08.02-.42.04-1.02l.05-1.14c.02-.34.03-.64.03-.91,0-.68-.1-1.02-.29-1.02-.44,0-.92,1-1.43,2.99-.11-.18-.17-.36-.17-.56,0-.73.32-1.69.97-2.9.64-1.21,1.16-1.81,1.53-1.81.48,0,.73.67.73,2,0,.32-.01.69-.03,1.11l-.08,1.35-.08,1.48-.27,5.03c-.05.86-.07,1.72-.07,2.6,0,.81.15,1.21.44,1.21.66,0,1.4-1.09,2.22-3.27.83-2.18,1.32-4.34,1.47-6.47l.3-4.17,1.42-.97c-.16,1.36-.29,2.57-.37,3.63l-.53,7.34c-.03.44-.05.82-.07,1.12l-.06.97c-.04.6-.05,1.02-.05,1.26,0,.5.07.75.21.75.5,0,1-1.1,1.51-3.29.16.19.24.38.24.56,0,.41-.25,1.24-.76,2.48-.68,1.69-1.31,2.53-1.9,2.53-.42,0-.64-.57-.64-1.72,0-.36.02-.85.06-1.46l.1-1.41c.05-.76.09-1.28.11-1.55l.09-1.23Z"/>
    <path class="cls-7" d="m502.65,1401.1l-1,2.41c-.47-.39-.91-.58-1.34-.58-.76,0-1.36.65-1.8,1.95s-.66,3.08-.66,5.34c0,1.59.16,2.88.48,3.85s.73,1.46,1.25,1.46c.87,0,1.55-1.14,2.04-3.43.13.28.19.54.19.79,0,.97-.38,2.05-1.13,3.24-.75,1.19-1.45,1.78-2.08,1.78s-1.1-.49-1.49-1.47c-.39-.98-.58-2.25-.58-3.81,0-3.04.51-5.79,1.54-8.28s2.16-3.73,3.42-3.73c.46,0,.84.15,1.16.46Z"/>
    <path class="cls-7" d="m507.65,1412.35c.16.19.23.37.23.54,0,.42-.25,1.25-.76,2.5-.68,1.69-1.31,2.53-1.9,2.53-.42,0-.64-.57-.64-1.7,0-.48.09-1.96.26-4.42l.34-4.78.09-1.21.07-.97c.03-.41.04-.75.04-1.04,0-.58-.08-.88-.24-.88-.45,0-.94,1-1.46,3.01-.11-.2-.17-.4-.17-.6,0-.71.33-1.68.98-2.88s1.18-1.81,1.57-1.81c.44,0,.66.61.66,1.83,0,.23-.02.71-.07,1.44l-.08,1.18c0,.09-.04.57-.1,1.42l-.36,5.02-.09,1.12c-.08,1.11-.11,1.86-.11,2.23,0,.5.07.75.22.75.49,0,.99-1.1,1.5-3.29Zm-1.75-13.97l.73-3.64c.65-.54,1.19-1.28,1.61-2.23.06.16.09.33.09.51,0,1.57-.81,3.36-2.43,5.36Z"/>
    <path class="cls-7" d="m511.44,1403.14l-.42,7.77c-.08,1.39-.11,2.43-.11,3.09,0,1.32.22,1.99.67,1.99.48,0,.98-.8,1.5-2.39.09.22.13.42.13.6,0,.66-.29,1.44-.86,2.36-.57.91-1.07,1.37-1.48,1.37-.83,0-1.24-1.07-1.24-3.2,0-.79.05-2.06.15-3.81l.42-7.77h-1.83l1.02-2.04h.93l.18-3.2,1.29-.86-.21,4.06h3.7l-1.02,2.04h-2.8Z"/>
    <path class="cls-7" d="m517.9,1408.04c1.29-4.93,2.56-7.4,3.82-7.4.33,0,.65.15.98.46l-1.23,2.71c-.19-.21-.42-.32-.72-.32-.61,0-1.24.99-1.92,2.96-.67,1.97-1.07,4.03-1.18,6.16l-.24,4.29-1.3.88.03-.53.06-1.14.07-1.14.46-8.37.05-.91c.04-.69.06-1.25.06-1.69,0-.71-.1-1.07-.3-1.07-.47,0-.93,1-1.39,3.01-.15-.22-.22-.45-.21-.69.02-.71.34-1.66.98-2.84.63-1.18,1.13-1.77,1.5-1.77.5,0,.74.66.74,1.97,0,.32-.01.74-.04,1.28l-.06,1.23-.08,1.48-.08,1.44Z"/>
    <path class="cls-7" d="m524.17,1417.92c-1.31,0-1.97-1.75-1.97-5.24,0-2.81.51-5.52,1.54-8.13s2.09-3.91,3.19-3.91c1.33,0,1.99,1.75,1.99,5.24,0,2.82-.51,5.54-1.54,8.14s-2.1,3.9-3.21,3.9Zm1.06-1.97c.67,0,1.23-.75,1.68-2.25s.68-3.37.68-5.61c0-3.66-.57-5.48-1.7-5.48-.66,0-1.22.75-1.67,2.26-.45,1.51-.68,3.37-.68,5.6,0,3.66.56,5.48,1.69,5.48Z"/>
    <path class="cls-7" d="m532.26,1416.85l-1.31,1.07.03-.49.07-1.3.07-1.23.46-8.16.05-.93c.04-.73.05-1.31.05-1.76,0-.75-.09-1.12-.28-1.12-.44,0-.91,1-1.41,2.99-.13-.22-.2-.42-.2-.58,0-.7.32-1.66.96-2.87s1.14-1.82,1.51-1.82c.5,0,.75.64.75,1.93,0,.33-.01.77-.04,1.32l-.07,1.42-.07,1.2-.07,1.25c.69-2.06,1.44-3.76,2.26-5.11s1.52-2.01,2.09-2.01.85.79.85,2.37c0,.48-.03,1.2-.09,2.16l-.47,6.55c-.1,1.31-.14,2.35-.14,3.11,0,.61.08.91.25.91.4,0,.9-1.07,1.49-3.22.14.18.21.36.21.54,0,.76-.33,1.76-.98,3s-1.18,1.85-1.59,1.85c-.46,0-.68-.66-.68-1.97,0-.96.06-2.29.18-3.99l.31-4.25c.1-1.38.15-2.48.15-3.29,0-.93-.16-1.39-.48-1.39-.75,0-1.5,1.02-2.27,3.05-.76,2.03-1.21,4.22-1.34,6.55l-.23,4.22Z"/>
  </g>
  <g>
    <path class="cls-7" d="m267.36,1035.03l2.3.26-1.04,2.04-4.03-.39,1.13-2.18.94.21c.71-.9,1.15-2.75,1.31-5.54l.1-1.71.73-13.32c-2.64,1.01-3.97,3.02-3.97,6.03,0,1.21.13,2.28.38,3.22l-1.41,2.5c-.12-.9-.18-1.82-.18-2.74,0-3.19.67-5.79,2.02-7.8,1.35-2.01,3.09-3.01,5.23-3.01,2.87,0,4.3,1.89,4.3,5.66,0,2.39-.53,4.44-1.6,6.13s-2.42,2.65-4.06,2.85c-.14,2.73-.32,4.51-.55,5.34-.23.83-.76,1.65-1.59,2.44Zm2.86-20.83l-.63,11.21c.33.12.61.18.86.18,2.24,0,3.36-1.96,3.36-5.89,0-3.67-1.2-5.5-3.59-5.5Z"/>
    <path class="cls-7" d="m279.69,1031.83c.16.19.23.37.23.54,0,.42-.25,1.25-.76,2.5-.68,1.69-1.31,2.53-1.9,2.53-.43,0-.64-.57-.64-1.7,0-.48.09-1.96.26-4.42l.34-4.78.09-1.21.07-.97c.03-.41.04-.75.04-1.04,0-.58-.08-.88-.24-.88-.45,0-.94,1-1.46,3.01-.11-.2-.17-.4-.17-.6,0-.71.33-1.68.98-2.88s1.18-1.81,1.57-1.81c.44,0,.66.61.66,1.83,0,.23-.02.71-.07,1.44l-.08,1.18c0,.09-.04.57-.1,1.42l-.36,5.02-.09,1.12c-.08,1.11-.11,1.86-.11,2.23,0,.5.07.75.22.75.49,0,.99-1.1,1.5-3.29Zm-1.75-13.97l.73-3.64c.65-.54,1.19-1.28,1.61-2.23.06.16.09.33.09.51,0,1.57-.81,3.36-2.43,5.36Z"/>
    <path class="cls-7" d="m286.06,1031.36c.15.2.22.43.22.7,0,.36-.19.98-.56,1.86-1,2.32-1.98,3.48-2.95,3.48-.59,0-1.08-.47-1.47-1.42-.38-.95-.58-2.16-.58-3.64,0-2.67.5-5.38,1.51-8.11,1-2.74,2-4.1,2.98-4.1.71,0,1.07.77,1.07,2.3,0,1.72-.42,3.4-1.25,5.04-.83,1.64-1.84,2.78-3.04,3.43.12,2.81.67,4.22,1.66,4.22s1.78-1.25,2.4-3.76Zm-4.03-2.6c.17.12.32.18.46.18.72,0,1.35-.45,1.9-1.34s.81-1.93.81-3.13c0-1.37-.35-2.06-1.04-2.06-.5,0-.95.6-1.36,1.8s-.66,2.72-.77,4.54Zm3.2-10.9c-.72-.93-1.3-2.58-1.76-4.96l.71-1.42c.52,2.27,1.13,3.86,1.82,4.76l-.76,1.62Z"/>
    <path class="cls-7" d="m293.49,1020.58l-1,2.41c-.47-.39-.91-.58-1.34-.58-.76,0-1.37.65-1.8,1.95s-.66,3.08-.66,5.34c0,1.59.16,2.88.48,3.85s.73,1.46,1.25,1.46c.87,0,1.55-1.14,2.04-3.43.13.28.19.54.19.79,0,.97-.38,2.05-1.13,3.24-.75,1.19-1.45,1.78-2.08,1.78s-1.1-.49-1.49-1.47c-.39-.98-.58-2.25-.58-3.81,0-3.04.51-5.79,1.54-8.28,1.03-2.48,2.16-3.73,3.42-3.73.45,0,.84.15,1.16.46Z"/>
    <path class="cls-7" d="m299.56,1031.36c.15.2.22.43.22.7,0,.36-.19.98-.56,1.86-1,2.32-1.98,3.48-2.95,3.48-.59,0-1.08-.47-1.47-1.42-.38-.95-.58-2.16-.58-3.64,0-2.67.5-5.38,1.51-8.11,1-2.74,2-4.1,2.98-4.1.71,0,1.07.77,1.07,2.3,0,1.72-.42,3.4-1.25,5.04-.83,1.64-1.84,2.78-3.04,3.43.12,2.81.67,4.22,1.66,4.22s1.78-1.25,2.4-3.76Zm-4.03-2.6c.17.12.32.18.46.18.72,0,1.35-.45,1.9-1.34s.81-1.93.81-3.13c0-1.37-.35-2.06-1.04-2.06-.5,0-.95.6-1.36,1.8s-.66,2.72-.77,4.54Z"/>
    <path class="cls-7" d="m311.71,1020.39l.08-1.51c.21-3.75.85-6.87,1.91-9.35s2.29-3.73,3.68-3.73c.33,0,.62.06.86.18l-1.24,2.55c-.27-.19-.6-.28-.97-.28-.87,0-1.53.62-1.96,1.84-.43,1.23-.73,3.33-.89,6.29l-.81,14.65-.06,1.11c-.05,1-.08,1.7-.08,2.13,0,.57.08.86.23.86.48,0,.97-1.1,1.46-3.29.16.19.24.38.24.56,0,.42-.24,1.25-.71,2.48-.66,1.69-1.28,2.53-1.85,2.53-.45,0-.67-.62-.67-1.86,0-.46.04-1.37.11-2.72l.09-1.55.06-1.3c-.4,1.76-1.04,3.44-1.92,5.04-.89,1.6-1.62,2.4-2.19,2.4-.82,0-1.23-1.29-1.23-3.88,0-3.39.57-6.43,1.7-9.12,1.13-2.7,2.42-4.04,3.84-4.04.07,0,.18.01.34.04Zm-.14,2.53c-.49-.54-.94-.81-1.35-.81-.86,0-1.57.98-2.13,2.95-.56,1.97-.84,4.46-.84,7.5,0,1.52.22,2.28.66,2.28.54,0,1.17-.8,1.89-2.39.94-2.05,1.49-4.56,1.66-7.55l.11-1.98Z"/>
    <path class="cls-7" d="m321.38,1030.04c-.67,2.05-1.41,3.79-2.25,5.22s-1.51,2.14-2.04,2.14c-.58,0-.87-.77-.87-2.32,0-.57.04-1.52.11-2.83l.31-5.76c0-.08.02-.42.04-1.02l.05-1.14c.02-.34.03-.64.03-.91,0-.68-.1-1.02-.29-1.02-.44,0-.92,1-1.43,2.99-.11-.18-.17-.36-.17-.56,0-.73.32-1.69.97-2.9s1.16-1.81,1.53-1.81c.48,0,.73.67.73,2,0,.32-.01.69-.04,1.11l-.08,1.35-.08,1.48-.27,5.03c-.05.86-.07,1.72-.07,2.6,0,.81.15,1.21.44,1.21.66,0,1.4-1.09,2.22-3.27s1.32-4.34,1.47-6.47l.3-4.17,1.42-.97c-.16,1.36-.29,2.57-.37,3.63l-.53,7.34c-.03.44-.05.82-.07,1.12l-.06.97c-.04.6-.05,1.02-.05,1.26,0,.5.07.75.21.75.5,0,1-1.1,1.51-3.29.16.19.24.38.24.56,0,.41-.25,1.24-.76,2.48-.68,1.69-1.31,2.53-1.9,2.53-.43,0-.64-.57-.64-1.72,0-.36.02-.85.06-1.46l.1-1.41c.05-.76.09-1.28.11-1.55l.09-1.23Z"/>
    <path class="cls-7" d="m332.29,1027.59c.63-2.21,1.33-4,2.09-5.38.76-1.38,1.44-2.08,2.02-2.08.84,0,1.26,1.44,1.26,4.31,0,3.52-.55,6.53-1.67,9.02s-2.45,3.74-4.02,3.74c-.2,0-.37-.02-.52-.05l-.71-.14s-.15-.01-.33-.04c.13-.89.22-1.83.27-2.81l.84-15.17c.2-3.65.87-6.76,2.01-9.33,1.14-2.57,2.41-3.85,3.81-3.85.29,0,.57.06.84.19l-1.29,2.53c-.33-.2-.64-.3-.94-.3-1.74,0-2.75,2.72-3.05,8.17l-.62,11.19Zm-.37,6.95c.54.6,1.08.9,1.62.9.8,0,1.45-.93,1.95-2.8s.75-4.3.75-7.29c0-1.74-.24-2.62-.71-2.62-.52,0-1.14.79-1.84,2.37-.95,2.14-1.51,4.66-1.67,7.55l-.1,1.9Z"/>
    <path class="cls-7" d="m340.67,1037.41c-1.31,0-1.97-1.75-1.97-5.24,0-2.81.51-5.52,1.54-8.13,1.03-2.61,2.09-3.91,3.19-3.91,1.33,0,1.99,1.75,1.99,5.24,0,2.82-.51,5.54-1.54,8.14s-2.1,3.9-3.21,3.9Zm1.06-1.97c.67,0,1.23-.75,1.68-2.25.45-1.5.68-3.37.68-5.61,0-3.66-.57-5.48-1.7-5.48-.66,0-1.22.75-1.67,2.26s-.68,3.37-.68,5.6c0,3.66.56,5.48,1.69,5.48Z"/>
    <path class="cls-7" d="m352.73,1030.04c-.67,2.05-1.41,3.79-2.25,5.22s-1.51,2.14-2.04,2.14c-.58,0-.87-.77-.87-2.32,0-.57.04-1.52.11-2.83l.31-5.76c0-.08.02-.42.04-1.02l.05-1.14c.02-.34.03-.64.03-.91,0-.68-.1-1.02-.29-1.02-.44,0-.92,1-1.43,2.99-.11-.18-.17-.36-.17-.56,0-.73.32-1.69.97-2.9s1.16-1.81,1.53-1.81c.48,0,.73.67.73,2,0,.32-.01.69-.04,1.11l-.08,1.35-.08,1.48-.27,5.03c-.05.86-.07,1.72-.07,2.6,0,.81.15,1.21.44,1.21.66,0,1.4-1.09,2.22-3.27s1.32-4.34,1.47-6.47l.3-4.17,1.42-.97c-.16,1.36-.29,2.57-.37,3.63l-.53,7.34c-.03.44-.05.82-.07,1.12l-.06.97c-.04.6-.05,1.02-.05,1.26,0,.5.07.75.21.75.5,0,1-1.1,1.51-3.29.16.19.24.38.24.56,0,.41-.25,1.24-.76,2.48-.68,1.69-1.31,2.53-1.9,2.53-.43,0-.64-.57-.64-1.72,0-.36.02-.85.06-1.46l.1-1.41c.05-.76.09-1.28.11-1.55l.09-1.23Z"/>
    <path class="cls-7" d="m362.52,1020.58l-1,2.41c-.47-.39-.91-.58-1.34-.58-.76,0-1.37.65-1.8,1.95s-.66,3.08-.66,5.34c0,1.59.16,2.88.48,3.85s.73,1.46,1.25,1.46c.87,0,1.55-1.14,2.04-3.43.13.28.19.54.19.79,0,.97-.38,2.05-1.13,3.24-.75,1.19-1.45,1.78-2.08,1.78s-1.1-.49-1.49-1.47c-.39-.98-.58-2.25-.58-3.81,0-3.04.51-5.79,1.54-8.28,1.03-2.48,2.16-3.73,3.42-3.73.45,0,.84.15,1.16.46Z"/>
    <path class="cls-7" d="m365.56,1027.25c.68-2.06,1.43-3.76,2.25-5.11s1.52-2.01,2.1-2.01.85.79.85,2.37c0,.47-.03,1.19-.1,2.16l-.47,6.55c-.1,1.31-.15,2.35-.15,3.11,0,.61.08.91.25.91.4,0,.9-1.07,1.48-3.22.15.18.22.36.22.54,0,.76-.33,1.76-.98,3-.65,1.24-1.18,1.85-1.59,1.85-.46,0-.68-.66-.68-1.97,0-.96.06-2.29.18-3.99l.3-4.25c.1-1.39.15-2.5.15-3.32,0-.9-.16-1.35-.48-1.35-.74,0-1.5,1.02-2.26,3.05-.76,2.03-1.21,4.22-1.34,6.55l-.23,4.22-1.31,1.07.03-.49.07-1.3.07-1.23.85-15.41c.2-3.63.87-6.74,2.01-9.31,1.14-2.57,2.41-3.86,3.81-3.86.29,0,.57.06.85.19l-1.28,2.53c-.33-.2-.65-.3-.94-.3-1.73,0-2.75,2.72-3.05,8.16l-.61,10.86Z"/>
    <path class="cls-7" d="m378.12,1031.36c.15.2.22.43.22.7,0,.36-.19.98-.56,1.86-1,2.32-1.98,3.48-2.95,3.48-.59,0-1.08-.47-1.47-1.42-.38-.95-.58-2.16-.58-3.64,0-2.67.5-5.38,1.51-8.11,1-2.74,2-4.1,2.98-4.1.71,0,1.07.77,1.07,2.3,0,1.72-.42,3.4-1.25,5.04-.83,1.64-1.84,2.78-3.04,3.43.12,2.81.67,4.22,1.66,4.22s1.78-1.25,2.4-3.76Zm-4.03-2.6c.17.12.32.18.46.18.72,0,1.35-.45,1.9-1.34s.81-1.93.81-3.13c0-1.37-.35-2.06-1.04-2.06-.5,0-.95.6-1.36,1.8s-.66,2.72-.77,4.54Z"/>
    <path class="cls-7" d="m382.31,1027.53c1.29-4.93,2.56-7.4,3.82-7.4.33,0,.65.15.98.46l-1.23,2.71c-.19-.21-.42-.32-.72-.32-.61,0-1.24.99-1.92,2.96-.67,1.97-1.07,4.03-1.18,6.16l-.24,4.29-1.3.88.03-.53.06-1.14.07-1.14.46-8.37.05-.91c.04-.69.06-1.25.06-1.69,0-.71-.1-1.07-.3-1.07-.47,0-.93,1-1.39,3.01-.15-.22-.21-.45-.21-.69.02-.71.34-1.66.98-2.84s1.13-1.77,1.5-1.77c.5,0,.74.66.74,1.97,0,.32-.01.74-.04,1.28l-.06,1.23-.08,1.48-.08,1.44Z"/>
    <path class="cls-7" d="m386.53,1043.31l-.22-.49c.89-1.3,1.34-2.72,1.34-4.27,0-1.29-.35-2.4-1.06-3.32l1.23-2.46c.71,1.07,1.07,2.33,1.07,3.8,0,2.09-.79,4.34-2.36,6.75Z"/>
    <path class="cls-7" d="m397.34,1037.41c-1.31,0-1.97-1.75-1.97-5.24,0-2.81.51-5.52,1.54-8.13s2.09-3.91,3.19-3.91c1.33,0,1.99,1.75,1.99,5.24,0,2.82-.51,5.54-1.54,8.14-1.03,2.6-2.1,3.9-3.22,3.9Zm1.06-1.97c.67,0,1.23-.75,1.68-2.25s.68-3.37.68-5.61c0-3.66-.56-5.48-1.69-5.48-.66,0-1.22.75-1.67,2.26-.45,1.51-.68,3.37-.68,5.6,0,3.66.56,5.48,1.69,5.48Z"/>
    <path class="cls-7" d="m408.38,1031.36c.15.2.22.43.22.7,0,.36-.19.98-.56,1.86-1,2.32-1.98,3.48-2.95,3.48-.59,0-1.08-.47-1.47-1.42-.38-.95-.58-2.16-.58-3.64,0-2.67.5-5.38,1.51-8.11,1-2.74,2-4.1,2.98-4.1.71,0,1.07.77,1.07,2.3,0,1.72-.42,3.4-1.25,5.04-.83,1.64-1.84,2.78-3.04,3.43.12,2.81.67,4.22,1.66,4.22s1.78-1.25,2.4-3.76Zm-4.03-2.6c.17.12.32.18.46.18.72,0,1.35-.45,1.9-1.34s.81-1.93.81-3.13c0-1.37-.35-2.06-1.04-2.06-.5,0-.95.6-1.36,1.8s-.66,2.72-.77,4.54Z"/>
    <path class="cls-7" d="m416.05,1030.04c-.67,2.05-1.41,3.79-2.25,5.22s-1.51,2.14-2.04,2.14c-.58,0-.87-.77-.87-2.32,0-.57.04-1.52.11-2.83l.31-5.76c0-.08.02-.42.04-1.02l.05-1.14c.02-.34.03-.64.03-.91,0-.68-.1-1.02-.29-1.02-.44,0-.92,1-1.43,2.99-.11-.18-.17-.36-.17-.56,0-.73.32-1.69.97-2.9.64-1.21,1.16-1.81,1.53-1.81.48,0,.73.67.73,2,0,.32-.01.69-.04,1.11l-.08,1.35-.08,1.48-.27,5.03c-.05.86-.07,1.72-.07,2.6,0,.81.15,1.21.44,1.21.66,0,1.4-1.09,2.23-3.27.83-2.18,1.32-4.34,1.47-6.47l.3-4.17,1.42-.97c-.16,1.36-.29,2.57-.37,3.63l-.53,7.34c-.03.44-.05.82-.07,1.12l-.06.97c-.04.6-.05,1.02-.05,1.26,0,.5.07.75.21.75.5,0,1-1.1,1.51-3.29.16.19.24.38.24.56,0,.41-.25,1.24-.76,2.48-.68,1.69-1.31,2.53-1.9,2.53-.43,0-.64-.57-.64-1.72,0-.36.02-.85.06-1.46l.1-1.41c.05-.76.09-1.28.11-1.55l.09-1.23Z"/>
    <path class="cls-7" d="m422.51,1022.62l-.71,14.21c-.16,3.22-.4,5.67-.73,7.36-.33,1.69-.86,3.2-1.59,4.55-1.08,1.98-2.29,2.97-3.62,2.97-.27,0-.61-.15-1.03-.44l1.16-2.13c.5.33.94.49,1.34.49,1.72,0,2.71-2.62,2.98-7.86l.23-4.36.73-14.8h-1.57l.99-2.04h.69l.05-1.02c.21-4.34.83-7.71,1.86-10.13,1.03-2.42,2.36-3.63,4-3.63.31,0,.66.06,1.04.17l-1.22,2.41c-.44-.34-.87-.51-1.28-.51-1,0-1.71.7-2.14,2.09-.43,1.4-.73,4.07-.93,8.03l-.13,2.59h3.54l-1.04,2.04h-2.61Z"/>
    <path class="cls-7" d="m437.13,1036.33l-1.3,1.07.03-.49.07-1.3.06-1.23.44-7.89.06-.9c.02-.47.04-.93.04-1.37,0-1.14-.17-1.71-.52-1.71-.54,0-1.16,1.1-1.88,3.3s-1.13,4.3-1.24,6.29l-.22,4.22-1.31,1.07.03-.49.07-1.3.07-1.23.45-8.16.05-.93c.04-.73.06-1.31.06-1.76,0-.75-.09-1.12-.28-1.12-.44,0-.91,1-1.42,2.99-.13-.22-.2-.42-.2-.58,0-.7.32-1.66.96-2.87.64-1.21,1.14-1.82,1.52-1.82.5,0,.75.64.75,1.93,0,.33-.01.77-.04,1.32l-.07,1.42-.07,1.2-.07,1.25.24-.77c1.3-4.23,2.52-6.35,3.64-6.35.54,0,.81.79.81,2.36,0,.27-.02.84-.07,1.71l-.09,1.62-.12,2.2c.54-2.26,1.18-4.14,1.93-5.63.74-1.49,1.4-2.24,1.99-2.24s.87.75.87,2.25c0,.64-.03,1.41-.1,2.3l-.46,6.52c-.1,1.35-.16,2.39-.16,3.13,0,.62.08.93.26.93.2,0,.45-.33.75-1s.54-1.42.73-2.27c.16.21.24.4.24.58,0,.74-.33,1.73-.98,2.97-.65,1.24-1.17,1.86-1.56,1.86-.5,0-.75-.67-.75-2,0-.84.06-2.15.19-3.92l.31-4.24c.01-.15.03-.49.06-1,.01-.21.03-.57.06-1.07s.04-.89.04-1.16c0-1-.16-1.49-.49-1.49-.55,0-1.18,1.1-1.9,3.3s-1.14,4.3-1.25,6.29l-.23,4.22Z"/>
    <path class="cls-7" d="m446.36,1037.41c-1.31,0-1.97-1.75-1.97-5.24,0-2.81.51-5.52,1.54-8.13s2.09-3.91,3.19-3.91c1.33,0,1.99,1.75,1.99,5.24,0,2.82-.51,5.54-1.54,8.14-1.03,2.6-2.1,3.9-3.22,3.9Zm1.06-1.97c.67,0,1.23-.75,1.68-2.25s.68-3.37.68-5.61c0-3.66-.56-5.48-1.69-5.48-.66,0-1.22.75-1.67,2.26-.45,1.51-.68,3.37-.68,5.6,0,3.66.56,5.48,1.69,5.48Z"/>
    <path class="cls-7" d="m455.64,1031.78c.17.16.25.38.25.63,0,.84-.31,1.89-.94,3.13s-1.15,1.86-1.58,1.86c-.48,0-.72-.7-.72-2.11,0-.86.03-1.73.08-2.62l.1-1.56.67-12.23c.21-3.73.85-6.84,1.91-9.33s2.29-3.74,3.67-3.74c.34,0,.62.06.86.18l-1.24,2.55c-.27-.19-.59-.28-.96-.28-.87,0-1.53.62-1.96,1.85-.43,1.24-.73,3.33-.89,6.28l-.81,14.72c-.06,1.14-.1,1.95-.1,2.44,0,1.05.09,1.58.27,1.58.21,0,.47-.35.76-1.04.29-.69.5-1.46.64-2.3Z"/>
    <path class="cls-7" d="m460.41,1031.78c.17.16.25.38.25.63,0,.84-.31,1.89-.94,3.13s-1.15,1.86-1.58,1.86c-.48,0-.72-.7-.72-2.11,0-.86.03-1.73.08-2.62l.1-1.56.67-12.23c.21-3.73.85-6.84,1.91-9.33s2.29-3.74,3.67-3.74c.34,0,.62.06.86.18l-1.24,2.55c-.27-.19-.59-.28-.96-.28-.87,0-1.53.62-1.96,1.85-.43,1.24-.73,3.33-.89,6.28l-.81,14.72c-.06,1.14-.1,1.95-.1,2.44,0,1.05.09,1.58.27,1.58.21,0,.47-.35.76-1.04.29-.69.5-1.46.64-2.3Z"/>
    <path class="cls-7" d="m466.95,1031.36c.15.2.22.43.22.7,0,.36-.19.98-.56,1.86-1,2.32-1.98,3.48-2.95,3.48-.59,0-1.08-.47-1.47-1.42-.38-.95-.58-2.16-.58-3.64,0-2.67.5-5.38,1.51-8.11,1-2.74,2-4.1,2.98-4.1.71,0,1.07.77,1.07,2.3,0,1.72-.42,3.4-1.25,5.04-.83,1.64-1.84,2.78-3.04,3.43.12,2.81.67,4.22,1.66,4.22s1.78-1.25,2.4-3.76Zm-4.03-2.6c.17.12.32.18.46.18.72,0,1.35-.45,1.9-1.34s.81-1.93.81-3.13c0-1.37-.35-2.06-1.04-2.06-.5,0-.95.6-1.36,1.8s-.66,2.72-.77,4.54Z"/>
    <path class="cls-7" d="m471.02,1022.62l-.42,7.77c-.08,1.39-.11,2.43-.11,3.09,0,1.32.22,1.99.67,1.99.48,0,.98-.8,1.5-2.39.09.22.13.42.13.6,0,.66-.29,1.44-.86,2.36-.57.91-1.07,1.37-1.48,1.37-.83,0-1.24-1.07-1.24-3.2,0-.79.05-2.06.15-3.81l.42-7.77h-1.83l1.02-2.04h.93l.19-3.2,1.29-.86-.21,4.06h3.71l-1.02,2.04h-2.8Z"/>
    <path class="cls-7" d="m474.42,1043.31l-.22-.49c.89-1.3,1.34-2.72,1.34-4.27,0-1.29-.35-2.4-1.06-3.32l1.23-2.46c.71,1.07,1.07,2.33,1.07,3.8,0,2.09-.79,4.34-2.36,6.75Z"/>
    <path class="cls-7" d="m486.02,1022.62l-.42,7.77c-.08,1.39-.11,2.43-.11,3.09,0,1.32.22,1.99.67,1.99.48,0,.98-.8,1.5-2.39.09.22.13.42.13.6,0,.66-.29,1.44-.86,2.36-.57.91-1.07,1.37-1.48,1.37-.83,0-1.24-1.07-1.24-3.2,0-.79.05-2.06.15-3.81l.42-7.77h-1.83l1.02-2.04h.93l.18-3.2,1.29-.86-.21,4.06h3.7l-1.02,2.04h-2.8Z"/>
    <path class="cls-7" d="m491.43,1037.41c-1.31,0-1.97-1.75-1.97-5.24,0-2.81.51-5.52,1.54-8.13s2.09-3.91,3.19-3.91c1.33,0,1.99,1.75,1.99,5.24,0,2.82-.51,5.54-1.54,8.14-1.03,2.6-2.1,3.9-3.22,3.9Zm1.06-1.97c.67,0,1.23-.75,1.68-2.25s.68-3.37.68-5.61c0-3.66-.56-5.48-1.69-5.48-.66,0-1.22.75-1.67,2.26-.45,1.51-.68,3.37-.68,5.6,0,3.66.56,5.48,1.69,5.48Z"/>
    <path class="cls-7" d="m503.99,1036.33l-1.3,1.07.03-.49.07-1.3.06-1.23.44-7.89.06-.9c.02-.47.04-.93.04-1.37,0-1.14-.17-1.71-.52-1.71-.54,0-1.16,1.1-1.88,3.3s-1.13,4.3-1.24,6.29l-.22,4.22-1.31,1.07.03-.49.07-1.3.07-1.23.45-8.16.05-.93c.04-.73.06-1.31.06-1.76,0-.75-.09-1.12-.28-1.12-.44,0-.91,1-1.42,2.99-.13-.22-.2-.42-.2-.58,0-.7.32-1.66.96-2.87s1.14-1.82,1.52-1.82c.5,0,.75.64.75,1.93,0,.33-.01.77-.04,1.32l-.07,1.42-.07,1.2-.07,1.25.25-.77c1.3-4.23,2.52-6.35,3.64-6.35.54,0,.81.79.81,2.36,0,.27-.02.84-.07,1.71l-.09,1.62-.12,2.2c.54-2.26,1.18-4.14,1.93-5.63s1.41-2.24,1.99-2.24.86.75.86,2.25c0,.64-.03,1.41-.1,2.3l-.46,6.52c-.1,1.35-.15,2.39-.15,3.13,0,.62.08.93.25.93.2,0,.45-.33.75-1s.54-1.42.72-2.27c.16.21.24.4.24.58,0,.74-.33,1.73-.98,2.97-.65,1.24-1.17,1.86-1.56,1.86-.5,0-.75-.67-.75-2,0-.84.06-2.15.19-3.92l.31-4.24c.01-.15.03-.49.06-1,.01-.21.03-.57.06-1.07s.04-.89.04-1.16c0-1-.16-1.49-.49-1.49-.55,0-1.18,1.1-1.9,3.3-.72,2.2-1.14,4.3-1.25,6.29l-.23,4.22Z"/>
    <path class="cls-7" d="m516.7,1029.97c-.66,2.18-1.38,3.96-2.17,5.35s-1.47,2.08-2.05,2.08c-.8,0-1.2-1.29-1.2-3.88,0-3.56.58-6.65,1.74-9.25,1.16-2.61,2.54-3.91,4.13-3.91.61,0,1.12.15,1.55.46-.03.21-.05.34-.05.39l-.11.93c-.07.64-.11,1.02-.11,1.12l-.56,7.76-.08,1.12c-.08,1.11-.11,1.86-.11,2.23,0,.5.07.75.22.75.49,0,.99-1.1,1.5-3.29.16.19.24.38.24.56,0,.41-.25,1.24-.75,2.48-.68,1.69-1.31,2.53-1.9,2.53-.43,0-.64-.57-.64-1.72,0-.35.02-.84.06-1.46l.09-1.41.11-1.55.1-1.3Zm.5-6.96c-.53-.6-1.07-.9-1.61-.9-.82,0-1.5,1-2.05,3s-.83,4.48-.83,7.44c0,1.52.22,2.28.67,2.28.52,0,1.15-.8,1.88-2.39.99-2.14,1.59-4.66,1.8-7.55l.14-1.9Z"/>
    <path class="cls-7" d="m523.2,1022.62l-.42,7.77c-.08,1.39-.11,2.43-.11,3.09,0,1.32.22,1.99.67,1.99.48,0,.98-.8,1.5-2.39.09.22.13.42.13.6,0,.66-.29,1.44-.86,2.36-.57.91-1.07,1.37-1.48,1.37-.83,0-1.24-1.07-1.24-3.2,0-.79.05-2.06.15-3.81l.42-7.77h-1.83l1.02-2.04h.93l.19-3.2,1.29-.86-.21,4.06h3.71l-1.02,2.04h-2.8Z"/>
    <path class="cls-7" d="m531.97,1031.36c.15.2.22.43.22.7,0,.36-.19.98-.56,1.86-1,2.32-1.98,3.48-2.95,3.48-.59,0-1.08-.47-1.47-1.42-.38-.95-.58-2.16-.58-3.64,0-2.67.5-5.38,1.51-8.11s2-4.1,2.98-4.1c.71,0,1.07.77,1.07,2.3,0,1.72-.42,3.4-1.25,5.04s-1.84,2.78-3.04,3.43c.12,2.81.67,4.22,1.66,4.22s1.78-1.25,2.4-3.76Zm-4.03-2.6c.17.12.32.18.46.18.72,0,1.35-.45,1.9-1.34.54-.89.81-1.93.81-3.13,0-1.37-.35-2.06-1.04-2.06-.5,0-.95.6-1.36,1.8-.41,1.2-.66,2.72-.77,4.54Z"/>
  </g>
  <g>
    <path class="cls-7" d="m663.37,678.58l.71-12.96c-.5.72-.92,1.26-1.25,1.64l-.82.97s-.08.09-.19.22l.09-1.5c1.02-.74,2.16-1.99,3.41-3.76l-.85,15.39h1.94l-.75,1.22h-4.47l.77-1.22h1.41Z"/>
    <path class="cls-7" d="m670.91,672.69c1.71.56,2.57,2.15,2.57,4.76,0,1.85-.46,3.51-1.36,4.98s-1.93,2.21-3.07,2.21c-.63,0-1.24-.19-1.84-.58l.92-1.98c.74.63,1.42.95,2.05.95.68,0,1.24-.39,1.68-1.16s.67-1.75.67-2.94c0-1.41-.32-2.54-.95-3.38s-1.48-1.26-2.55-1.26c-.17,0-.35.04-.54.12l.92-1.82h.26c.08,0,.21,0,.38.02,1.64-.82,2.46-2.38,2.46-4.68,0-.87-.15-1.58-.45-2.14-.3-.55-.68-.83-1.15-.83-.74,0-1.36.5-1.85,1.5-.05-.2-.08-.34-.08-.44,0-.49.29-1,.88-1.54.59-.54,1.15-.8,1.68-.8.65,0,1.18.32,1.6.97.42.64.62,1.47.62,2.48,0,2.06-.95,3.91-2.85,5.57Z"/>
    <path class="cls-7" d="m684.06,668.65h-8.84l.37-1.71h8.83l-.36,1.71Zm-.73,3.43h-8.11l.37-1.71h8.11l-.37,1.71Zm1.7,5.4c-.89,1.55-2,2.32-3.32,2.32-1.45,0-2.66-.99-3.64-2.96-.98-1.97-1.47-4.42-1.47-7.33s.49-5.35,1.47-7.33c.98-1.97,2.2-2.96,3.64-2.96s2.68,1.02,3.69,3.06l-.37,1.73c-.95-2.05-2.05-3.07-3.32-3.07-1.19,0-2.2.83-3.02,2.5-.83,1.66-1.24,3.69-1.24,6.08s.41,4.42,1.24,6.08c.83,1.66,1.83,2.49,3.02,2.49,1.29,0,2.4-1.04,3.32-3.13v2.53Z"/>
  </g>
  <g>
    <path class="cls-7" d="m660.97,1029.8l.96-1.9c1.4-.67,2.54-1.82,3.4-3.43.87-1.61,1.3-3.38,1.3-5.3,0-1.11-.2-2.03-.61-2.76s-.92-1.09-1.55-1.09c-.75,0-1.48.56-2.19,1.67-.05-.22-.07-.36-.07-.42,0-.55.41-1.17,1.22-1.86s1.54-1.04,2.18-1.04,1.19.41,1.67,1.22c.48.81.72,1.75.72,2.82,0,1.46-.43,3.17-1.31,5.15-.87,1.97-1.93,3.65-3.19,5.04l4.54.47-.91,1.84-6.18-.41Z"/>
    <path class="cls-7" d="m670.27,1025.08c0-2.87.49-5.49,1.47-7.85.98-2.36,2.07-3.55,3.25-3.55.63,0,1.14.49,1.53,1.47.39.98.58,2.27.58,3.88,0,2.75-.5,5.31-1.49,7.66-1,2.35-2.08,3.52-3.24,3.52-.61,0-1.11-.48-1.51-1.45s-.59-2.19-.59-3.68Zm5.65-4.18c0-1.67-.19-3.03-.56-4.06-.37-1.03-.86-1.55-1.46-1.55-.68,0-1.25.75-1.73,2.24-.48,1.49-.72,3.29-.72,5.4,0,1.71.18,3.08.55,4.11.37,1.03.86,1.55,1.46,1.55.68,0,1.25-.75,1.73-2.25.48-1.5.72-3.31.72-5.44Z"/>
    <path class="cls-7" d="m686.96,1018.65h-8.84l.37-1.71h8.83l-.36,1.71Zm-.73,3.43h-8.11l.37-1.71h8.11l-.37,1.71Zm1.7,5.4c-.89,1.55-2,2.32-3.32,2.32-1.45,0-2.66-.99-3.64-2.96-.98-1.97-1.47-4.42-1.47-7.33s.49-5.35,1.47-7.33c.98-1.97,2.2-2.96,3.64-2.96s2.68,1.02,3.69,3.06l-.37,1.73c-.95-2.05-2.05-3.07-3.32-3.07-1.19,0-2.2.83-3.02,2.5-.83,1.66-1.24,3.69-1.24,6.08s.41,4.42,1.24,6.08c.83,1.66,1.83,2.49,3.02,2.49,1.29,0,2.4-1.04,3.32-3.13v2.53Z"/>
  </g>
  <g>
    <path class="cls-7" d="m657.34,1408.6l.71-12.96c-.5.72-.92,1.26-1.25,1.64l-.82.97s-.08.09-.19.22l.09-1.5c1.02-.74,2.16-1.99,3.41-3.76l-.85,15.39h1.94l-.75,1.22h-4.47l.77-1.22h1.41Z"/>
    <path class="cls-7" d="m668.24,1402.75c-.37,1.35-.88,2.44-1.51,3.27s-1.28,1.25-1.94,1.25c-.62,0-1.12-.44-1.51-1.31s-.59-2-.59-3.37c0-1.97.39-3.75,1.16-5.33.77-1.58,1.64-2.37,2.61-2.37.87,0,1.58.66,2.14,1.98.56,1.32.84,3,.84,5.05,0,3.57-.65,6.78-1.95,9.64s-2.75,4.3-4.37,4.3c-.59,0-1.2-.18-1.81-.55l1.02-2c.61.76,1.24,1.14,1.91,1.14,1.01,0,1.85-.84,2.53-2.53.41-1.02.76-2.37,1.04-4.06s.43-3.22.43-4.59v-.53Zm-.09-1.54c-.34-3.34-1.15-5-2.43-5-.57,0-1.04.42-1.43,1.25s-.58,1.87-.58,3.09c0,1.43.19,2.62.57,3.56.38.94.86,1.41,1.44,1.41,1.18,0,1.99-1.44,2.43-4.32Z"/>
    <path class="cls-7" d="m670.74,1415.46l-.19-.44c.79-1.15,1.19-2.42,1.19-3.79,0-1.14-.31-2.13-.94-2.95l1.09-2.18c.63.95.95,2.07.95,3.37,0,1.85-.7,3.85-2.09,5.99Z"/>
    <path class="cls-7" d="m673.67,1414.11l.98-2.04c.73.61,1.38.92,1.95.92.72,0,1.31-.4,1.76-1.21.45-.8.67-1.84.67-3.12,0-1.5-.31-2.72-.94-3.63-.63-.92-1.46-1.38-2.48-1.38-.2,0-.43.03-.7.09l.57-7.27,1.13-2.39h4.31l-.93,1.9h-3.49l-.45,5.35c2.53.35,3.79,2.24,3.79,5.64,0,2.08-.42,3.88-1.27,5.39-.85,1.51-1.85,2.27-3.02,2.27-.73,0-1.36-.18-1.88-.53Z"/>
    <path class="cls-7" d="m682.15,1405.09c0-2.87.49-5.49,1.47-7.85.98-2.36,2.07-3.55,3.25-3.55.63,0,1.14.49,1.53,1.47.39.98.58,2.27.58,3.88,0,2.75-.5,5.31-1.49,7.66-1,2.35-2.08,3.52-3.24,3.52-.61,0-1.11-.48-1.51-1.45s-.59-2.19-.59-3.68Zm5.65-4.18c0-1.67-.19-3.03-.56-4.06-.37-1.03-.86-1.55-1.46-1.55-.68,0-1.25.75-1.73,2.24-.48,1.49-.72,3.29-.72,5.4,0,1.71.18,3.08.55,4.11.37,1.03.86,1.55,1.46,1.55.68,0,1.25-.75,1.73-2.25.48-1.5.72-3.31.72-5.44Z"/>
    <path class="cls-7" d="m698.84,1398.66h-8.84l.37-1.71h8.83l-.36,1.71Zm-.73,3.43h-8.11l.37-1.71h8.11l-.37,1.71Zm1.7,5.4c-.89,1.55-2,2.32-3.32,2.32-1.45,0-2.66-.99-3.64-2.96-.98-1.97-1.47-4.42-1.47-7.33s.49-5.35,1.47-7.33c.98-1.97,2.2-2.96,3.64-2.96s2.68,1.02,3.69,3.06l-.37,1.73c-.95-2.05-2.05-3.07-3.32-3.07-1.19,0-2.2.83-3.02,2.5-.83,1.66-1.24,3.69-1.24,6.08s.41,4.42,1.24,6.08c.83,1.66,1.83,2.49,3.02,2.49,1.29,0,2.4-1.04,3.32-3.13v2.53Z"/>
  </g>
</svg>